<?xml version="1.0" standalone="no"?>
<!DOCTYPE svg PUBLIC "-//W3C//DTD SVG 1.1//EN" "http://www.w3.org/Graphics/SVG/1.1/DTD/svg11.dtd" >
<svg xmlns="http://www.w3.org/2000/svg" xmlns:xlink="http://www.w3.org/1999/xlink" version="1.1">
<metadata>
Created by FontForge 20161003 at Wed May  9 10:54:24 2018
 By www-data
Copyright (c) 2007 by Tomas Brousil. All rights reserved.
</metadata>
<defs>
<font id="Atrament_Regular" horiz-adv-x="330" >
  <font-face 
    font-family="Atrament_Regular"
    font-weight="400"
    font-stretch="normal"
    units-per-em="1000"
    panose-1="2 0 0 0 0 0 0 0 0 0"
    ascent="800"
    descent="-200"
    x-height="556"
    cap-height="724"
    bbox="-130 -230 1178 968.115"
    underline-thickness="50"
    underline-position="-150"
    unicode-range="U+0020-FB04"
  />
<missing-glyph horiz-adv-x="830" 
d="M100 0v630h630v-630h-630zM415 280l-230 -230h460zM185 580l230 -230l230 230h-460zM450 315l230 -230v460zM380 315l-230 230v-460z" />
    <glyph glyph-name="f_f" unicode="ff" horiz-adv-x="440" 
d="M264 492h-117v-470q0 -22 -22 -22h-33q-22 0 -22 22v470h-43q-22 0 -22 22v21q0 21 22 21h43v61q0 67 30 98.5t106 31.5h74q27 53 119 53h25q21 0 21 -21v-21q0 -22 -21 -22h-25q-34 0 -46.5 -16t-12.5 -50v-114h64q21 0 21 -21v-21q0 -22 -21 -22h-64v-470
q0 -22 -21 -22h-34q-21 0 -21 22v470zM147 556h117v127h-58q-34 0 -46.5 -16t-12.5 -51v-60z" />
    <glyph glyph-name="f_i" unicode="fi" horiz-adv-x="380" 
d="M340 535v-513q0 -22 -21 -22h-34q-21 0 -21 22v470h-117v-470q0 -22 -22 -22h-33q-22 0 -22 22v470h-43q-22 0 -22 22v21q0 21 22 21h43v115q0 66 30 97.5t106 31.5h64q22 0 22 -21v-21q0 -22 -22 -22h-64q-34 0 -46.5 -16t-12.5 -50v-114h172q21 0 21 -21z" />
    <glyph glyph-name="f_l" unicode="fl" horiz-adv-x="380" 
d="M70 492h-43q-22 0 -22 22v21q0 21 22 21h43v115q0 66 30 97.5t106 31.5h113q21 0 21 -21v-757q0 -22 -21 -22h-34q-21 0 -21 22v714h-58q-34 0 -46.5 -16t-12.5 -50v-114h56q21 0 21 -21v-21q0 -22 -21 -22h-56v-470q0 -22 -22 -22h-33q-22 0 -22 22v470z" />
    <glyph glyph-name="f_f_i" unicode="ffi" horiz-adv-x="574" 
d="M147 556h117v127h-58q-34 0 -46.5 -16t-12.5 -51v-60zM457 492h-117v-470q0 -22 -21 -22h-34q-21 0 -21 22v470h-117v-470q0 -22 -22 -22h-33q-22 0 -22 22v470h-43q-22 0 -22 22v21q0 21 22 21h43v61q0 67 30 98.5t106 31.5h74q27 53 119 53h65q21 0 21 -21v-21
q0 -22 -21 -22h-65q-34 0 -46.5 -16t-12.5 -50v-114h172q22 0 22 -21v-513q0 -22 -22 -22h-33q-22 0 -22 22v470z" />
    <glyph glyph-name="f_f_l" unicode="ffl" horiz-adv-x="574" 
d="M534 779v-757q0 -22 -22 -22h-33q-22 0 -22 22v714h-58q-34 0 -46.5 -16t-12.5 -50v-114h56q22 0 22 -21v-21q0 -22 -22 -22h-56v-470q0 -22 -21 -22h-34q-21 0 -21 22v470h-117v-470q0 -22 -22 -22h-33q-22 0 -22 22v470h-43q-22 0 -22 22v21q0 21 22 21h43v61
q0 67 30 98.5t106 31.5h74q27 53 119 53h113q22 0 22 -21zM147 556h117v127h-58q-34 0 -46.5 -16t-12.5 -51v-60z" />
    <glyph glyph-name="T_h" unicode="Th" horiz-adv-x="641" 
d="M601 469v-448q0 -21 -22 -21h-33q-22 0 -22 21v418q0 32 -10 44t-35 12q-52 0 -52 -60v-414q0 -21 -21 -21h-34q-21 0 -21 21v633h-131v-632q0 -22 -22 -22h-40q-22 0 -22 22v632h-114q-22 0 -22 22v27q0 21 22 21h329v55q0 21 21 21h34q21 0 21 -21v-257q41 39 92 39
q35 0 58.5 -23.5t23.5 -68.5z" />
    <glyph glyph-name="f_b" unicode="fb" horiz-adv-x="554" 
d="M340 779v-257q41 39 92 39q36 0 59 -23.5t23 -68.5v-382q0 -45 -23 -68.5t-59 -23.5q-51 0 -92 39v-13q0 -21 -21 -21h-34q-21 0 -21 21v715h-58q-34 0 -46.5 -16t-12.5 -50v-114h56q21 0 21 -21v-21q0 -22 -21 -22h-56v-470q0 -22 -22 -22h-33q-22 0 -22 22v470h-43
q-22 0 -22 22v21q0 21 22 21h43v115q0 66 30 97.5t106 31.5h113q21 0 21 -21zM437 118v321q0 32 -10 44t-35 12q-52 0 -52 -60v-314q0 -59 52 -59q26 0 35.5 12t9.5 44z" />
    <glyph glyph-name="f_h" unicode="fh" horiz-adv-x="554" 
d="M340 435v-413q0 -22 -21 -22h-34q-21 0 -21 22v714h-58q-34 0 -46.5 -16t-12.5 -50v-114h56q21 0 21 -21v-21q0 -22 -21 -22h-56v-470q0 -22 -22 -22h-33q-22 0 -22 22v470h-43q-22 0 -22 22v21q0 21 22 21h43v115q0 66 30 97.5t106 31.5h113q21 0 21 -21v-257
q41 39 92 39q36 0 59 -23.5t23 -68.5v-448q0 -21 -22 -21h-33q-22 0 -22 21v418q0 32 -10 44t-35 12q-52 0 -52 -60z" />
    <glyph glyph-name="f_j" unicode="fj" horiz-adv-x="380" 
d="M340 535v-606q0 -66 -30 -97.5t-105 -31.5h-15q-21 0 -21 21v21q0 22 21 22h15q34 0 46.5 16t12.5 50v562h-117v-470q0 -22 -22 -22h-33q-22 0 -22 22v470h-43q-22 0 -22 22v21q0 21 22 21h43v115q0 66 30 97.5t106 31.5h64q22 0 22 -21v-21q0 -22 -22 -22h-64
q-34 0 -46.5 -16t-12.5 -50v-114h172q21 0 21 -21z" />
    <glyph glyph-name="f_k" unicode="fk" horiz-adv-x="542" 
d="M410 279l124 -250q5 -9 1 -19t-17 -10h-39q-15 0 -21 14l-112 228h-6v-220q0 -22 -21 -22h-34q-21 0 -21 22v714h-58q-34 0 -46.5 -16t-12.5 -50v-114h56q21 0 21 -21v-21q0 -22 -21 -22h-56v-470q0 -22 -22 -22h-33q-22 0 -22 22v470h-43q-22 0 -22 22v21q0 21 22 21h43
v115q0 66 30 97.5t106 31.5h113q21 0 21 -21v-464h6l112 228q6 13 21 13h39q13 0 17 -10t-1 -19z" />
    <glyph glyph-name="f_t" unicode="ft" horiz-adv-x="450" 
d="M70 492h-43q-22 0 -22 22v21q0 21 22 21h43v115q0 66 30 97.5t106 31.5h19q22 0 22 -21v-21q0 -22 -22 -22h-19q-34 0 -46.5 -16t-12.5 -50v-114h117v147q0 21 21 21h34q21 0 21 -21v-147h64q21 0 21 -21v-21q0 -22 -21 -22h-64v-361q0 -35 12.5 -51t46.5 -16h25
q21 0 21 -21v-21q0 -22 -21 -22h-25q-76 0 -105.5 31.5t-29.5 98.5v362h-117v-470q0 -22 -22 -22h-33q-22 0 -22 22v470z" />
    <glyph glyph-name="f_f_b" unicode="ffb" horiz-adv-x="747" 
d="M399 800h113q22 0 22 -21v-257q39 39 91 39q35 0 58.5 -23.5t23.5 -68.5v-382q0 -45 -23.5 -68.5t-58.5 -23.5q-52 0 -91 39v-13q0 -21 -22 -21h-33q-22 0 -22 21v715h-58q-34 0 -46.5 -16t-12.5 -50v-114h56q22 0 22 -21v-21q0 -22 -22 -22h-56v-470q0 -22 -21 -22h-34
q-21 0 -21 22v470h-117v-470q0 -22 -22 -22h-33q-22 0 -22 22v470h-43q-22 0 -22 22v21q0 21 22 21h43v61q0 67 30 98.5t106 31.5h74q27 53 119 53zM147 556h117v127h-58q-34 0 -46.5 -16t-12.5 -51v-60zM631 118v321q0 31 -10 43.5t-35 12.5q-52 0 -52 -60v-314
q0 -59 52 -59q25 0 35 12t10 44z" />
    <glyph glyph-name="f_f_h" unicode="ffh" horiz-adv-x="747" 
d="M147 556h117v127h-58q-34 0 -46.5 -16t-12.5 -51v-60zM534 435v-413q0 -22 -22 -22h-33q-22 0 -22 22v714h-58q-34 0 -46.5 -16t-12.5 -50v-114h56q22 0 22 -21v-21q0 -22 -22 -22h-56v-470q0 -22 -21 -22h-34q-21 0 -21 22v470h-117v-470q0 -22 -22 -22h-33
q-22 0 -22 22v470h-43q-22 0 -22 22v21q0 21 22 21h43v61q0 67 30 98.5t106 31.5h74q27 53 119 53h113q22 0 22 -21v-257q39 39 91 39q35 0 58.5 -23.5t23.5 -68.5v-448q0 -21 -21 -21h-34q-21 0 -21 21v418q0 31 -10 43.5t-35 12.5q-52 0 -52 -60z" />
    <glyph glyph-name="f_f_j" unicode="ffj" horiz-adv-x="574" 
d="M457 -70v562h-117v-470q0 -22 -21 -22h-34q-21 0 -21 22v470h-117v-470q0 -22 -22 -22h-33q-22 0 -22 22v470h-43q-22 0 -22 22v21q0 21 22 21h43v61q0 67 30 98.5t106 31.5h74q27 53 119 53h65q21 0 21 -21v-21q0 -22 -21 -22h-65q-34 0 -46.5 -16t-12.5 -50v-114h172
q22 0 22 -21v-606q0 -66 -30 -97.5t-106 -31.5h-14q-22 0 -22 21v21q0 22 22 22h14q34 0 46.5 16t12.5 50zM147 556h117v127h-58q-34 0 -46.5 -16t-12.5 -51v-60z" />
    <glyph glyph-name="f_f_k" unicode="ffk" horiz-adv-x="735" 
d="M147 556h117v127h-58q-34 0 -46.5 -16t-12.5 -51v-60zM604 279l124 -250q5 -9 0.5 -19t-16.5 -10h-39q-15 0 -21 14l-113 228h-5v-220q0 -22 -22 -22h-33q-22 0 -22 22v714h-58q-34 0 -46.5 -16t-12.5 -50v-114h56q22 0 22 -21v-21q0 -22 -22 -22h-56v-470q0 -22 -21 -22
h-34q-21 0 -21 22v470h-117v-470q0 -22 -22 -22h-33q-22 0 -22 22v470h-43q-22 0 -22 22v21q0 21 22 21h43v61q0 67 30 98.5t106 31.5h74q27 53 119 53h113q22 0 22 -21v-464h5l113 228q6 13 21 13h39q12 0 16.5 -10t-0.5 -19z" />
    <glyph glyph-name=".notdef" horiz-adv-x="830" 
d="M100 0v630h630v-630h-630zM415 280l-230 -230h460zM185 580l230 -230l230 230h-460zM450 315l230 -230v460zM380 315l-230 230v-460z" />
    <glyph glyph-name=".null" horiz-adv-x="0" 
 />
    <glyph glyph-name="nonmarkingreturn" horiz-adv-x="333" 
 />
    <glyph glyph-name="space" unicode=" " horiz-adv-x="193" 
 />
    <glyph glyph-name="exclam" unicode="!" horiz-adv-x="231" 
d="M163 703l-14 -490q0 -22 -21 -22h-24q-20 0 -22 22l-14 490q0 21 22 21h51q22 0 22 -21zM62 49q0 23 15 38t39 15q23 0 38 -15t15 -38q0 -24 -15 -39t-38 -15q-24 0 -39 15t-15 39z" />
    <glyph glyph-name="quotedbl" unicode="&#x22;" horiz-adv-x="302" 
d="M261 703l-16 -215q0 -21 -21 -21h-16q-21 0 -21 21l-17 215q0 21 22 21h48q22 0 21 -21zM131 703l-16 -215q0 -21 -21 -21h-16q-21 0 -21 21l-17 215q0 21 22 21h48q22 0 21 -21z" />
    <glyph glyph-name="numbersign" unicode="#" horiz-adv-x="440" 
d="M375 205h-74l-41 -188q-5 -17 -20 -17h-30q-25 0 -19 27l39 178h-88l-41 -188q-5 -17 -20 -17h-30q-25 0 -19 27l38 178h-48q-22 0 -22 21v26q0 21 22 21h63l39 178h-59q-22 0 -22 21v26q0 21 22 21h74l41 188q3 17 20 17h30q24 0 18 -27l-39 -178h89l41 188q5 17 20 17
h30q25 0 19 -27l-40 -178h50q22 0 22 -21v-26q0 -21 -22 -21h-64l-39 -178h60q22 0 22 -21v-26q0 -21 -22 -21zM195 451l-39 -178h88l39 178h-88z" />
    <glyph glyph-name="dollar" unicode="$" horiz-adv-x="383" 
d="M229 809v-82q65 -7 90.5 -42.5t25.5 -102.5v-95q0 -21 -21 -21h-41q-21 0 -21 21v95q0 39 -15.5 58t-55.5 19t-55 -19t-15 -58q0 -50 10 -77.5t44 -62.5l104 -109q36 -36 51 -76t15 -115q0 -67 -25.5 -102.5t-90.5 -42.5v-82q0 -21 -22 -21h-31q-22 0 -22 21v82
q-65 7 -90.5 42t-25.5 103v95q0 22 21 22h41q21 0 21 -22v-95q0 -39 15 -58t55 -19t55.5 19t15.5 58q0 49 -10 76.5t-44 63.5l-104 109q-36 35 -51 75.5t-15 115.5q0 67 25.5 102.5t90.5 42.5v82q0 21 22 21h31q22 0 22 -21z" />
    <glyph glyph-name="percent" unicode="%" horiz-adv-x="523" 
d="M412 316q-28 0 -28 -30v-210q0 -30 28 -30t28 30v210q0 30 -28 30zM412 365q47 0 69 -19t22 -60v-210q0 -79 -91 -79t-91 79v210q0 41 22 60t69 19zM429 699l-270 -687q-6 -12 -19 -12h-33q-10 1 -14 9t0 16l270 687q6 12 19 12h33q10 -1 14 -8.5t0 -16.5zM111 678
q-28 0 -28 -30v-210q0 -30 28 -30t28 30v210q0 30 -28 30zM111 727q47 0 69 -19t22 -60v-210q0 -79 -91 -79t-91 79v210q0 41 22 60t69 19z" />
    <glyph glyph-name="ampersand" unicode="&#x26;" horiz-adv-x="426" 
d="M264 142v190h-57q-49 0 -66 -22.5t-17 -68.5v-99q0 -39 15 -58t55 -19t55 19t15 58zM348 332v-190q0 -75 -34 -111t-120 -36t-120 36t-34 111v71q0 62 19.5 99t68.5 52v5q-49 14 -68.5 51t-19.5 100v62q0 75 34 111t120 36t120 -36t34 -111v-42q0 -22 -22 -22h-40
q-22 0 -22 22v42q0 39 -15 58t-55 19t-55 -19t-15 -58v-90q0 -47 17 -68.5t66 -21.5h198q21 0 21 -22v-27q0 -21 -21 -21h-57z" />
    <glyph glyph-name="quotesingle" unicode="'" horiz-adv-x="172" 
d="M131 703l-16 -215q0 -21 -21 -21h-16q-21 0 -21 21l-17 215q0 21 22 21h48q22 0 21 -21z" />
    <glyph glyph-name="parenleft" unicode="(" horiz-adv-x="261" 
d="M60 362q0 245 103 462q7 16 24 16h45q13 0 17 -11t-1 -21q-103 -204 -103 -446t103 -446q5 -10 1 -21t-17 -11h-45q-17 0 -24 16q-103 217 -103 462z" />
    <glyph glyph-name="parenright" unicode=")" horiz-adv-x="261" 
d="M201 362q0 -245 -103 -462q-7 -16 -24 -16h-45q-13 0 -17 11t1 21q103 204 103 446t-103 446q-5 10 -1 21t17 11h45q17 0 24 -16q103 -217 103 -462z" />
    <glyph glyph-name="asterisk" unicode="*" horiz-adv-x="354" 
d="M67 663l89 -71l-16 113q0 19 19 19h36q19 0 18 -19l-17 -113l91 71q16 10 25 -7l18 -31q10 -16 -7 -25l-107 -42l107 -43q16 -9 7 -25l-18 -31q-9 -17 -25 -7l-91 71l17 -113q2 -19 -18 -19h-36q-19 0 -19 19l17 113l-90 -71q-16 -10 -25 7l-18 31q-9 16 6 25l106 43
l-106 42q-15 9 -6 25l18 31q9 17 25 7z" />
    <glyph glyph-name="plus" unicode="+" horiz-adv-x="420" 
d="M245 512v-114h114q21 0 21 -21v-27q0 -22 -21 -22h-114v-113q0 -22 -21 -22h-27q-22 0 -22 22v113h-113q-22 0 -22 22v27q0 21 22 21h113v114q0 21 22 21h27q21 0 21 -21z" />
    <glyph glyph-name="comma" unicode="," horiz-adv-x="192" 
d="M150 88l-49 -193q-4 -20 -22 -20h-14q-23 0 -20 23l11 195q3 20 23 20h52q11 0 16.5 -7t2.5 -18z" />
    <glyph glyph-name="hyphen" unicode="-" horiz-adv-x="266" 
d="M42 314h183q21 0 21 -21v-27q0 -22 -21 -22h-183q-22 0 -22 22v27q0 21 22 21z" />
    <glyph glyph-name="period" unicode="." horiz-adv-x="192" 
d="M40 51q0 25 15.5 40.5t40.5 15.5t40.5 -15.5t15.5 -40.5t-15.5 -40.5t-40.5 -15.5t-40.5 15.5t-15.5 40.5z" />
    <glyph glyph-name="slash" unicode="/" horiz-adv-x="280" 
d="M-19 -89l249 912q3 17 20 17h30q13 0 17 -8t1 -19l-248 -912q-5 -17 -20 -17h-30q-13 0 -17.5 8t-1.5 19z" />
    <glyph glyph-name="zero" unicode="0" horiz-adv-x="384" 
d="M192 662q-42 0 -57 -19.5t-15 -60.5v-440q0 -41 15 -60.5t57 -19.5t57 19.5t15 60.5v440q0 41 -15 60.5t-57 19.5zM192 729q86 0 119 -35.5t33 -111.5v-440q0 -76 -33 -111.5t-119 -35.5t-119 35.5t-33 111.5v440q0 76 33 111.5t119 35.5z" />
    <glyph glyph-name="one" unicode="1" horiz-adv-x="244" 
d="M124 654v49q0 21 21 21h37q22 0 22 -21v-681q0 -22 -22 -22h-37q-21 0 -21 22v531h-92q-22 0 -22 22v24q0 21 22 21h58q34 0 34 34z" />
    <glyph glyph-name="two" unicode="2" horiz-adv-x="384" 
d="M264 528v54q0 41 -15 60.5t-57 19.5t-57 -19.5t-15 -60.5v-97q0 -22 -21 -22h-37q-22 0 -22 22v97q0 76 33 111.5t119 35.5t119 -35.5t33 -111.5v-47q0 -69 -37 -135l-178 -328h193q22 0 22 -21v-29q0 -22 -22 -22h-260q-22 0 -22 22v30q0 14 5 23l191 354q28 53 28 99z
" />
    <glyph glyph-name="three" unicode="3" horiz-adv-x="384" 
d="M179 334h-13q-21 0 -21 21v23q0 21 21 21h13q49 0 67 22.5t18 69.5v91q0 41 -15 60.5t-57 19.5t-57 -19.5t-15 -60.5v-77q0 -22 -21 -22h-37q-22 0 -22 22v77q0 76 33 111.5t119 35.5t119 -35.5t33 -111.5v-62q0 -63 -19.5 -100t-68.5 -51v-5q49 -15 68.5 -52t19.5 -99
v-71q0 -76 -33 -111.5t-119 -35.5t-119 35.5t-33 111.5v78q0 21 22 21h37q21 0 21 -21v-78q0 -40 15 -60t57 -20t57 20t15 60v101q0 46 -18 68.5t-67 22.5z" />
    <glyph glyph-name="four" unicode="4" horiz-adv-x="381" 
d="M289 397v-168h71q21 0 21 -22v-30q0 -22 -21 -22h-71v-133q0 -22 -22 -22h-34q-21 0 -21 22v133h-170q-22 0 -22 22v31q0 12 4 24l133 475q3 17 20 17h43q13 0 17 -8.5t1 -18.5l-133 -468h107v168q0 22 21 22h34q22 0 22 -22z" />
    <glyph glyph-name="five" unicode="5" horiz-adv-x="384" 
d="M40 326v377q0 21 22 21h250q22 0 22 -21v-32q0 -21 -22 -21h-197v-227q38 47 107 47q65 0 93.5 -35t28.5 -106v-187q0 -76 -33 -111.5t-119 -35.5t-119 35.5t-33 111.5v25q0 22 22 22h37q21 0 21 -22v-25q0 -41 15 -60.5t57 -19.5t57 19.5t15 60.5v181q0 40 -14 60
t-51 20q-73 0 -79 -72v-7q-2 -20 -21 -20h-37q-22 0 -22 22z" />
    <glyph glyph-name="six" unicode="6" horiz-adv-x="384" 
d="M222 412q65 0 93.5 -35t28.5 -106v-129q0 -76 -33 -111.5t-119 -35.5t-119 35.5t-33 111.5v440q0 76 33 111.5t119 35.5t119 -35.5t33 -111.5v-55q0 -21 -22 -21h-37q-21 0 -21 21v55q0 41 -15 60.5t-57 19.5t-57 -19.5t-15 -60.5v-214q37 44 102 44zM120 142
q0 -41 15 -60.5t57 -19.5t57 19.5t15 60.5v123q0 40 -14 60t-51 20q-76 0 -79 -74v-129z" />
    <glyph glyph-name="seven" unicode="7" horiz-adv-x="334" 
d="M320 646l-177 -629q-5 -17 -21 -17h-40q-13 0 -17 8.5t-1 19.5l177 620h-199q-22 0 -22 22v33q0 21 22 21h260q22 0 22 -21v-33q0 -8 -4 -24z" />
    <glyph glyph-name="eight" unicode="8" horiz-adv-x="384" 
d="M192 -5q-86 0 -119 35.5t-33 111.5v71q0 62 19.5 99t68.5 52v5q-49 14 -68.5 51t-19.5 100v62q0 76 33 111.5t119 35.5t119 -35.5t33 -111.5v-62q0 -63 -19.5 -100t-68.5 -51v-5q49 -15 68.5 -52t19.5 -99v-71q0 -76 -33 -111.5t-119 -35.5zM192 62q42 0 57 20t15 60v98
q0 90 -72 90t-72 -90v-98q0 -40 15 -60t57 -20zM120 494q0 -92 72 -92t72 92v88q0 41 -15 60.5t-57 19.5t-57 -19.5t-15 -60.5v-88z" />
    <glyph glyph-name="nine" unicode="9" horiz-adv-x="384" 
d="M162 295q-66 0 -94 34.5t-28 105.5v147q0 76 33 111.5t119 35.5t119 -35.5t33 -111.5v-440q0 -76 -33 -111.5t-119 -35.5t-119 35.5t-33 111.5v53q0 21 22 21h37q21 0 21 -21v-53q0 -40 15 -60t57 -20t57 20t15 60v196q-37 -43 -102 -43zM264 582q0 41 -15 60.5t-57 19.5
t-57 -19.5t-15 -60.5v-140q0 -40 14 -60t50 -20q77 0 80 74v146z" />
    <glyph glyph-name="colon" unicode=":" horiz-adv-x="192" 
d="M40 51q0 25 15.5 40.5t40.5 15.5t40.5 -15.5t15.5 -40.5t-15.5 -40.5t-40.5 -15.5t-40.5 15.5t-15.5 40.5zM40 505q0 25 15.5 40.5t40.5 15.5t40.5 -15.5t15.5 -40.5t-15.5 -40.5t-40.5 -15.5t-40.5 15.5t-15.5 40.5z" />
    <glyph glyph-name="semicolon" unicode=";" horiz-adv-x="192" 
d="M40 505q0 25 15.5 40.5t40.5 15.5t40.5 -15.5t15.5 -40.5t-15.5 -40.5t-40.5 -15.5t-40.5 15.5t-15.5 40.5zM150 88l-49 -193q-4 -20 -22 -20h-14q-23 0 -20 23l11 195q3 20 23 20h52q11 0 16.5 -7t2.5 -18z" />
    <glyph glyph-name="less" unicode="&#x3c;" horiz-adv-x="420" 
d="M351 198l-296 123q-15 6 -15 23v38q0 17 15 23l296 123q10 4 19.5 -0.5t9.5 -16.5v-33q0 -18 -18 -24l-233 -88v-6l233 -88q18 -7 18 -24v-32q0 -13 -9 -17.5t-20 -0.5z" />
    <glyph glyph-name="equal" unicode="=" horiz-adv-x="420" 
d="M62 307h297q21 0 21 -21v-27q0 -22 -21 -22h-297q-22 0 -22 22v27q0 21 22 21zM62 489h297q21 0 21 -21v-27q0 -22 -21 -22h-297q-22 0 -22 22v27q0 21 22 21z" />
    <glyph glyph-name="greater" unicode="&#x3e;" horiz-adv-x="420" 
d="M69 528l297 -123q14 -6 14 -23v-38q0 -17 -14 -23l-297 -123q-10 -4 -19.5 0.5t-9.5 17.5v32q0 18 18 24l233 88v6l-233 88q-18 7 -18 24v33q0 12 9.5 16.5t19.5 0.5z" />
    <glyph glyph-name="question" unicode="?" horiz-adv-x="364" 
d="M334 582v-10q0 -44 -18 -84t-39.5 -66.5t-39.5 -67.5t-18 -87v-54q0 -22 -21 -22h-32q-22 0 -22 22v44q0 47 11.5 86.5t27.5 66.5t32 50.5t27.5 50t11.5 54.5v17q0 41 -15 60.5t-57 19.5t-57 -19.5t-15 -60.5v-60q0 -21 -21 -21h-37q-22 0 -22 21v60q0 76 33 111.5
t119 35.5t119 -35.5t33 -111.5zM128 49q0 23 15 38t39 15q23 0 38 -15t15 -38q0 -24 -15 -39t-38 -15q-24 0 -39 15t-15 39z" />
    <glyph glyph-name="at" unicode="@" horiz-adv-x="599" 
d="M175 193q0 61 27.5 90t97.5 29h48v129q0 31 -11 43.5t-37 12.5t-37.5 -12.5t-11.5 -43.5v-43q0 -21 -21 -21h-34q-21 0 -21 21v44q0 61 27.5 90t97.5 29q69 0 96.5 -29t28.5 -90v-346q0 -37 29 -37t29 37v362q0 93 -40 138t-143 45q-104 0 -143.5 -44.5t-39.5 -138.5
v-359q0 -95 39.5 -139.5t143.5 -44.5h103q22 0 22 -21v-21q0 -22 -22 -22h-103q-146 0 -203 60t-57 188v359q0 126 57 186.5t203 60.5t202.5 -60t56.5 -187v-362q0 -51 -22.5 -76t-76.5 -25t-79 33q-29 -33 -90 -33q-63 0 -89.5 29.5t-26.5 89.5v79zM251 193v-78
q0 -31 11.5 -43.5t37.5 -12.5q25 0 36.5 12.5t11.5 43.5v134h-48q-26 0 -37.5 -12.5t-11.5 -43.5z" />
    <glyph glyph-name="A" unicode="A" horiz-adv-x="367" 
d="M295 0q-19 0 -21 20l-21 137h-139l-20 -137q-3 -20 -22 -20h-42q-10 0 -15.5 7t-3.5 18l104 677q3 22 24 22h90q20 0 23 -22l104 -677q3 -25 -19 -25h-42zM158 460l-35 -233h120l-34 233l-23 194h-5z" />
    <glyph glyph-name="B" unicode="B" horiz-adv-x="376" 
d="M171 0h-109q-22 0 -22 22v681q0 21 22 21h109q94 0 130.5 -39t36.5 -121v-44q0 -63 -19.5 -100t-68.5 -51v-5q49 -15 68.5 -52t19.5 -99v-52q0 -83 -36.5 -122t-130.5 -39zM124 70h47q48 0 65.5 22.5t17.5 68.5v80q0 46 -17.5 68.5t-65.5 22.5h-47v-262zM124 402h47
q48 0 65.5 22t17.5 68v72q0 46 -17.5 68t-65.5 22h-47v-252z" />
    <glyph glyph-name="C" unicode="C" horiz-adv-x="388" 
d="M348 582v-117q0 -22 -22 -22h-40q-22 0 -22 22v117q0 39 -15 58t-55 19t-55 -19t-15 -58v-440q0 -39 15 -58t55 -19t55 19t15 58v118q0 21 22 21h40q22 0 22 -21v-118q0 -75 -34 -111t-120 -36t-120 36t-34 111v440q0 75 34 111t120 36t120 -36t34 -111z" />
    <glyph glyph-name="D" unicode="D" horiz-adv-x="380" 
d="M174 0h-112q-22 0 -22 22v681q0 21 22 21h112q94 0 130 -39t36 -121v-403q0 -83 -36 -122t-130 -39zM124 70h50q48 0 65.5 22.5t17.5 68.5v403q0 46 -17.5 68t-65.5 22h-50v-584z" />
    <glyph glyph-name="E" unicode="E" horiz-adv-x="320" 
d="M62 724h226q22 0 22 -21v-27q0 -22 -22 -22h-164v-257h126q22 0 22 -21v-27q0 -22 -22 -22h-126v-257h164q22 0 22 -21v-27q0 -22 -22 -22h-226q-22 0 -22 22v681q0 21 22 21z" />
    <glyph glyph-name="F" unicode="F" horiz-adv-x="315" 
d="M62 724h226q22 0 22 -21v-27q0 -22 -22 -22h-164v-257h126q22 0 22 -21v-27q0 -22 -22 -22h-126v-305q0 -22 -22 -22h-40q-22 0 -22 22v681q0 21 22 21z" />
    <glyph glyph-name="G" unicode="G" horiz-adv-x="388" 
d="M210 368h116q22 0 22 -22v-204q0 -75 -34 -111t-120 -36t-120 36t-34 111v440q0 75 34 111t120 36t120 -36t34 -111v-77q0 -22 -22 -22h-40q-22 0 -22 22v77q0 39 -15 58t-55 19t-55 -19t-15 -58v-440q0 -39 15 -58t55 -19t55 19t15 58v156h-54q-21 0 -21 21v27
q0 22 21 22z" />
    <glyph glyph-name="H" unicode="H" horiz-adv-x="388" 
d="M124 703v-306h140v306q0 21 22 21h40q22 0 22 -21v-681q0 -22 -22 -22h-40q-22 0 -22 22v305h-140v-305q0 -22 -22 -22h-40q-22 0 -22 22v681q0 21 22 21h40q22 0 22 -21z" />
    <glyph glyph-name="I" unicode="I" horiz-adv-x="164" 
d="M124 703v-681q0 -22 -22 -22h-40q-22 0 -22 22v681q0 21 22 21h40q22 0 22 -21z" />
    <glyph glyph-name="J" unicode="J" horiz-adv-x="368" 
d="M328 703v-561q0 -75 -34 -111t-120 -36t-120 36t-34 111v83q0 21 22 21h40q22 0 22 -21v-83q0 -39 15 -58t55 -19t55 19t15 58v561q0 21 22 21h40q22 0 22 -21z" />
    <glyph glyph-name="K" unicode="K" horiz-adv-x="366" 
d="M124 703v-298h5l145 305q7 14 22 14h46q12 0 16.5 -10t-0.5 -18l-160 -334l160 -334q5 -8 0.5 -18t-16.5 -10h-46q-15 0 -22 14l-145 305h-5v-297q0 -22 -22 -22h-40q-22 0 -22 22v681q0 21 22 21h40q22 0 22 -21z" />
    <glyph glyph-name="L" unicode="L" horiz-adv-x="315" 
d="M124 703v-633h164q22 0 22 -21v-27q0 -22 -22 -22h-226q-22 0 -22 22v681q0 21 22 21h40q22 0 22 -21z" />
    <glyph glyph-name="M" unicode="M" horiz-adv-x="474" 
d="M268 147h-62q-20 0 -23 20l-66 407h-5l7 -141v-411q0 -22 -22 -22h-35q-22 0 -22 22v681q0 21 22 21h73q20 0 23 -21l51 -288l25 -171h6l25 171l50 288q4 21 24 21h73q22 0 22 -21v-681q0 -22 -22 -22h-35q-22 0 -22 22v411l7 141h-5l-66 -407q-3 -20 -23 -20z" />
    <glyph glyph-name="N" unicode="N" horiz-adv-x="390" 
d="M269 335v368q0 21 22 21h38q21 0 21 -21v-681q0 -22 -21 -22h-53q-17 0 -23 19l-100 375l-35 147l-5 -1l8 -151v-367q0 -22 -21 -22h-38q-22 0 -22 22v681q0 21 22 21h52q19 0 23 -19l100 -375l35 -147l5 1z" />
    <glyph glyph-name="O" unicode="O" horiz-adv-x="388" 
d="M194 659q-40 0 -55 -19t-15 -58v-440q0 -39 15 -58t55 -19t55 19t15 58v440q0 39 -15 58t-55 19zM194 729q86 0 120 -36t34 -111v-440q0 -75 -34 -111t-120 -36t-120 36t-34 111v440q0 75 34 111t120 36z" />
    <glyph glyph-name="P" unicode="P" horiz-adv-x="358" 
d="M171 292h-47v-270q0 -22 -22 -22h-40q-22 0 -22 22v681q0 21 22 21h109q94 0 130.5 -39t36.5 -121v-111q0 -83 -36.5 -122t-130.5 -39zM124 362h47q48 0 65.5 22.5t17.5 68.5v111q0 46 -17.5 68t-65.5 22h-47v-292z" />
    <glyph glyph-name="Q" unicode="Q" horiz-adv-x="388" 
d="M194 729q86 0 120 -36t34 -111v-440q0 -70 -26 -103l62 -107q11 -19 -8 -30l-35 -20q-19 -10 -29 8l-64 110q-25 -5 -54 -5q-86 0 -120 36t-34 111v440q0 75 34 111t120 36zM194 659q-40 0 -55 -19t-15 -58v-440q0 -39 15 -58t55 -19t55 19t15 58v440q0 39 -15 58t-55 19
z" />
    <glyph glyph-name="R" unicode="R" horiz-adv-x="380" 
d="M340 480q0 -64 -20 -100.5t-72 -49.5l115 -302q4 -10 -0.5 -18.5t-16.5 -9.5h-45q-17 0 -22 15l-116 305h-39v-298q0 -22 -22 -22h-40q-22 0 -22 22v681q0 21 22 21h112q94 0 130 -39t36 -121v-84zM124 390h50q48 0 65.5 22t17.5 68v84q0 46 -17.5 68t-65.5 22h-50v-264z
" />
    <glyph glyph-name="S" unicode="S" horiz-adv-x="383" 
d="M121 582q0 -50 10 -77.5t44 -62.5l104 -109q36 -36 51 -76t15 -115t-34 -111t-120 -36t-119.5 36t-33.5 111v95q0 22 21 22h41q21 0 21 -22v-95q0 -39 15 -58t55 -19t55.5 19t15.5 58q0 49 -10 76.5t-44 63.5l-104 109q-36 35 -51 75.5t-15 115.5t33.5 111t119.5 36
t120 -36t34 -111v-95q0 -21 -21 -21h-41q-21 0 -21 21v95q0 39 -15.5 58t-55.5 19t-55 -19t-15 -58z" />
    <glyph glyph-name="T" unicode="T" horiz-adv-x="356" 
d="M334 654h-114v-632q0 -22 -22 -22h-40q-22 0 -22 22v632h-114q-22 0 -22 22v27q0 21 22 21h312q22 0 22 -21v-27q0 -22 -22 -22z" />
    <glyph glyph-name="U" unicode="U" horiz-adv-x="388" 
d="M40 142v561q0 21 22 21h40q22 0 22 -21v-561q0 -39 15 -58t55 -19t55 19t15 58v561q0 21 22 21h40q22 0 22 -21v-561q0 -75 -34 -111t-120 -36t-120 36t-34 111z" />
    <glyph glyph-name="V" unicode="V" horiz-adv-x="367" 
d="M72 724q19 0 22 -20l65 -439l22 -195h5l22 195l66 439q2 20 21 20h42q22 0 19 -25l-104 -677q-3 -22 -23 -22h-90q-21 0 -24 22l-104 677q-3 25 19 25h42z" />
    <glyph glyph-name="W" unicode="W" horiz-adv-x="517" 
d="M70 724q20 0 21 -20l43 -444l12 -182h5l11 182l39 444q2 20 22 20h71q19 0 22 -20l39 -444l10 -182h6l11 182l44 444q2 20 21 20h40q21 0 19 -25l-72 -677q-3 -22 -23 -22h-83q-22 0 -23 22l-34 420l-10 174h-5l-10 -174l-34 -420q-1 -22 -23 -22h-83q-22 0 -23 22
l-72 677q-2 25 19 25h40z" />
    <glyph glyph-name="X" unicode="X" horiz-adv-x="366" 
d="M354 696l-124 -334l124 -334q4 -10 -0.5 -18.5t-16.5 -9.5h-43q-16 0 -22 15l-48 131l-38 127h-6l-38 -127l-48 -131q-6 -15 -22 -15h-43q-12 1 -16 9.5t-1 18.5l124 334l-124 334q-3 10 1 18.5t16 9.5h43q16 0 22 -15l48 -131l38 -127h6l38 127l48 131q6 15 22 15h43
q12 -1 16.5 -9.5t0.5 -18.5z" />
    <glyph glyph-name="Y" unicode="Y" horiz-adv-x="369" 
d="M30 724h42q18 0 22 -15l51 -171l37 -148h5l37 148l50 171q4 15 22 15h43q11 0 16 -8t2 -19l-131 -415v-260q0 -22 -21 -22h-41q-21 0 -21 22v260l-131 415q-4 11 1.5 19t16.5 8z" />
    <glyph glyph-name="Z" unicode="Z" horiz-adv-x="308" 
d="M113 70h154q21 0 21 -21v-27q0 -22 -21 -22h-225q-22 0 -22 22v25q0 10 3 19l172 588h-153q-22 0 -22 22v27q0 21 22 21h225q21 0 21 -21v-26q0 -9 -3 -18z" />
    <glyph glyph-name="bracketleft" unicode="[" horiz-adv-x="272" 
d="M164 770v-816h76q22 0 22 -22v-27q0 -21 -22 -21h-138q-22 0 -22 21v914q0 21 22 21h138q22 0 22 -21v-27q0 -22 -22 -22h-76z" />
    <glyph glyph-name="backslash" unicode="\" horiz-adv-x="280" 
d="M50 823l248 -912q3 -11 -1 -19t-17 -8h-30q-17 0 -20 17l-249 912q-3 11 1.5 19t17.5 8h30q15 0 20 -17z" />
    <glyph glyph-name="bracketright" unicode="]" horiz-adv-x="272" 
d="M108 -46v816h-76q-22 0 -22 22v27q0 21 22 21h138q22 0 22 -21v-914q0 -21 -22 -21h-138q-22 0 -22 21v27q0 22 22 22h76z" />
    <glyph glyph-name="asciicircum" unicode="^" horiz-adv-x="414" 
d="M42 412l123 297q6 14 23 14h38q17 0 23 -14l123 -297q4 -10 -0.5 -19.5t-16.5 -9.5h-33q-18 0 -24 18l-88 233h-6l-88 -233q-7 -18 -24 -18h-32q-13 0 -17.5 9.5t-0.5 19.5z" />
    <glyph glyph-name="underscore" unicode="_" horiz-adv-x="453" 
d="M22 -25h410q21 0 21 -22v-24q0 -22 -21 -22h-410q-22 0 -22 22v24q0 22 22 22z" />
    <glyph glyph-name="grave" unicode="`" horiz-adv-x="287" 
d="M181 603l-114 113q-14 14 2 27l26 24q15 12 27 -2l98 -127q13 -13 -1 -26l-11 -11q-14 -11 -27 2z" />
    <glyph glyph-name="a" unicode="a" 
d="M214 249h-49q-25 0 -36.5 -12.5t-11.5 -43.5v-75q0 -32 9.5 -44t34.5 -12q53 0 53 59v128zM165 312h49v129q0 31 -11.5 43.5t-37.5 12.5t-37 -12.5t-11 -43.5v-43q0 -21 -22 -21h-33q-22 0 -22 21v44q0 61 27.5 90t97.5 29t97 -29t28 -90v-421q0 -21 -21 -21h-34
q-21 0 -21 21v13q-41 -39 -92 -39q-36 0 -59 23.5t-23 68.5v106q0 61 27.5 90t97.5 29z" />
    <glyph glyph-name="b" unicode="b" 
d="M214 118v321q0 31 -10 43.5t-35 12.5q-52 0 -52 -60v-314q0 -59 52 -59q25 0 35 12t10 44zM40 21v758q0 21 22 21h33q22 0 22 -21v-257q39 39 91 39q36 0 59 -23.5t23 -68.5v-382q0 -45 -23 -68.5t-59 -23.5q-52 0 -91 39v-13q0 -21 -22 -21h-33q-22 0 -22 21z" />
    <glyph glyph-name="c" unicode="c" 
d="M290 442v-79q0 -21 -21 -21h-34q-21 0 -21 21v78q0 31 -11.5 43.5t-37.5 12.5t-37 -12.5t-11 -43.5v-326q0 -31 11.5 -43.5t36.5 -12.5q26 0 37.5 12.5t11.5 43.5v78q0 22 21 22h34q21 0 21 -22v-79q0 -61 -27.5 -90t-97.5 -29t-97.5 29t-27.5 90v328q0 61 27.5 90
t97.5 29t97.5 -29t27.5 -90z" />
    <glyph glyph-name="d" unicode="d" 
d="M117 439v-321q0 -32 9.5 -44t34.5 -12q53 0 53 59v314q0 60 -53 60q-25 0 -34.5 -12t-9.5 -44zM290 779v-758q0 -21 -21 -21h-34q-21 0 -21 21v13q-41 -39 -92 -39q-36 0 -59 23.5t-23 68.5v382q0 45 23 68.5t59 23.5q51 0 92 -39v257q0 21 21 21h34q21 0 21 -21z" />
    <glyph glyph-name="e" unicode="e" 
d="M290 442v-172q0 -23 -23 -23h-150v-132q0 -31 11.5 -43.5t36.5 -12.5q26 0 37.5 12.5t11.5 43.5v36q0 21 21 21h34q21 0 21 -21v-37q0 -61 -27.5 -90t-97.5 -29t-97.5 29t-27.5 90v328q0 61 27.5 90t97.5 29t97.5 -29t27.5 -90zM117 441v-131h97v131q0 31 -11.5 43.5
t-37.5 12.5t-37 -12.5t-11 -43.5z" />
    <glyph glyph-name="f" unicode="f" horiz-adv-x="247" 
d="M70 492h-43q-22 0 -22 22v21q0 21 22 21h43v115q0 66 30 97.5t106 31.5h24q22 0 22 -21v-21q0 -22 -22 -22h-24q-34 0 -46.5 -16t-12.5 -50v-114h63q22 0 22 -21v-21q0 -22 -22 -22h-63v-470q0 -22 -22 -22h-33q-22 0 -22 22v470z" />
    <glyph glyph-name="g" unicode="g" 
d="M290 535v-606q0 -66 -30 -97.5t-105 -31.5h-49q-22 0 -22 21v21q0 22 22 22h49q34 0 46.5 16t12.5 50v104q-41 -39 -92 -39q-36 0 -59 23.5t-23 68.5v382q0 45 23 68.5t59 23.5q51 0 92 -39v13q0 21 21 21h34q21 0 21 -21zM117 439v-321q0 -32 9.5 -44t34.5 -12
q53 0 53 59v314q0 60 -53 60q-25 0 -34.5 -12t-9.5 -44z" />
    <glyph glyph-name="h" unicode="h" 
d="M290 469v-448q0 -21 -21 -21h-34q-21 0 -21 21v418q0 31 -10 43.5t-35 12.5q-52 0 -52 -60v-414q0 -21 -22 -21h-33q-22 0 -22 21v758q0 21 22 21h33q22 0 22 -21v-257q39 39 91 39q36 0 59 -23.5t23 -68.5z" />
    <glyph glyph-name="i" unicode="i" horiz-adv-x="157" 
d="M117 535v-513q0 -22 -22 -22h-33q-22 0 -22 22v513q0 21 22 21h33q22 0 22 -21zM30 679q0 22 13.5 35.5t34.5 13.5q22 0 35.5 -13.5t13.5 -35.5q0 -21 -13.5 -34.5t-35.5 -13.5q-21 0 -34.5 13.5t-13.5 34.5z" />
    <glyph glyph-name="j" unicode="j" horiz-adv-x="157" 
d="M40 -70v605q0 21 22 21h33q22 0 22 -21v-606q0 -66 -30 -97.5t-106 -31.5h-15q-21 0 -21 21v21q0 22 21 22h15q34 0 46.5 16t12.5 50zM30 679q0 22 13.5 35.5t34.5 13.5q22 0 35.5 -13.5t13.5 -35.5q0 -21 -13.5 -34.5t-35.5 -13.5q-21 0 -34.5 13.5t-13.5 34.5z" />
    <glyph glyph-name="k" unicode="k" horiz-adv-x="318" 
d="M117 779v-464h5l113 228q7 13 21 13h39q12 0 16.5 -10t-0.5 -19l-124 -248l124 -250q5 -9 0.5 -19t-16.5 -10h-39q-15 0 -21 14l-113 228h-5v-220q0 -22 -22 -22h-33q-22 0 -22 22v757q0 21 22 21h33q22 0 22 -21z" />
    <glyph glyph-name="l" unicode="l" horiz-adv-x="157" 
d="M117 779v-757q0 -22 -22 -22h-33q-22 0 -22 22v757q0 21 22 21h33q22 0 22 -21z" />
    <glyph glyph-name="m" unicode="m" horiz-adv-x="504" 
d="M208 561q51 0 71 -42q44 42 103 42q36 0 59 -23.5t23 -68.5v-448q0 -21 -22 -21h-33q-22 0 -22 21v418q0 32 -10 44t-35 12q-52 0 -52 -60v-414q0 -21 -21 -21h-34q-21 0 -21 21v418q0 31 -10 43.5t-35 12.5q-52 0 -52 -60v-414q0 -21 -22 -21h-33q-22 0 -22 21v514
q0 21 22 21h33q22 0 22 -21v-13q39 39 91 39z" />
    <glyph glyph-name="n" unicode="n" 
d="M290 469v-448q0 -21 -21 -21h-34q-21 0 -21 21v418q0 31 -10 43.5t-35 12.5q-52 0 -52 -60v-414q0 -21 -22 -21h-33q-22 0 -22 21v514q0 21 22 21h33q22 0 22 -21v-13q39 39 91 39q36 0 59 -23.5t23 -68.5z" />
    <glyph glyph-name="o" unicode="o" 
d="M165 497q-26 0 -37 -12.5t-11 -43.5v-326q0 -31 11.5 -43.5t36.5 -12.5q26 0 37.5 12.5t11.5 43.5v326q0 31 -11.5 43.5t-37.5 12.5zM165 561q70 0 97.5 -29t27.5 -90v-328q0 -61 -27.5 -90t-97.5 -29t-97.5 29t-27.5 90v328q0 61 27.5 90t97.5 29z" />
    <glyph glyph-name="p" unicode="p" 
d="M214 118v321q0 31 -10 43.5t-35 12.5q-52 0 -52 -60v-314q0 -59 52 -59q25 0 35 12t10 44zM40 -179v714q0 21 22 21h33q22 0 22 -21v-13q39 39 91 39q36 0 59 -23.5t23 -68.5v-382q0 -45 -23 -68.5t-59 -23.5q-52 0 -91 39v-213q0 -21 -22 -21h-33q-22 0 -22 21z" />
    <glyph glyph-name="q" unicode="q" 
d="M117 439v-321q0 -32 9.5 -44t34.5 -12q53 0 53 59v314q0 60 -53 60q-25 0 -34.5 -12t-9.5 -44zM290 535v-714q0 -21 -21 -21h-34q-21 0 -21 21v213q-41 -39 -92 -39q-36 0 -59 23.5t-23 68.5v382q0 45 23 68.5t59 23.5q51 0 92 -39v13q0 21 21 21h34q21 0 21 -21z" />
    <glyph glyph-name="r" unicode="r" horiz-adv-x="310" 
d="M290 469v-143q0 -21 -21 -21h-34q-21 0 -21 21v113q0 31 -10 43.5t-35 12.5q-52 0 -52 -60v-414q0 -21 -22 -21h-33q-22 0 -22 21v514q0 21 22 21h33q22 0 22 -21v-13q39 39 91 39q36 0 59 -23.5t23 -68.5z" />
    <glyph glyph-name="s" unicode="s" horiz-adv-x="325" 
d="M288 114q0 -61 -28 -90t-97 -29q-70 0 -97.5 29t-27.5 90v64q0 22 21 22h34q21 0 21 -22v-63q0 -31 11.5 -43.5t37.5 -12.5q25 0 36.5 12.5t11.5 43.5q0 44 -7 58.5t-37 44.5l-76 74q-29 28 -41 59t-12 91q0 61 27.5 90t97.5 29q69 0 97 -29t28 -90v-64q0 -21 -22 -21
h-33q-22 0 -22 21v63q0 31 -11 43.5t-37 12.5t-37.5 -12.5t-11.5 -43.5t4.5 -47.5t10.5 -24.5t29 -31l76 -74q29 -29 41.5 -59.5t12.5 -90.5z" />
    <glyph glyph-name="t" unicode="t" horiz-adv-x="257" 
d="M27 556h43v147q0 21 22 21h33q22 0 22 -21v-147h63q22 0 22 -21v-21q0 -22 -22 -22h-63v-361q0 -35 12.5 -51t46.5 -16h24q22 0 22 -21v-21q0 -22 -22 -22h-24q-76 0 -106 31.5t-30 98.5v362h-43q-22 0 -22 22v21q0 21 22 21z" />
    <glyph glyph-name="u" unicode="u" 
d="M40 87v448q0 21 22 21h33q22 0 22 -21v-417q0 -32 9.5 -44t34.5 -12q53 0 53 59v414q0 21 21 21h34q21 0 21 -21v-514q0 -21 -21 -21h-34q-21 0 -21 21v13q-41 -39 -92 -39q-36 0 -59 23.5t-23 68.5z" />
    <glyph glyph-name="v" unicode="v" horiz-adv-x="287" 
d="M58 556q21 0 24 -21l40 -281l19 -175h5l19 175l39 281q3 21 25 21h32q24 0 20 -26l-79 -509q-3 -21 -24 -21h-69q-21 0 -25 21l-78 509q-4 26 20 26h32z" />
    <glyph glyph-name="w" unicode="w" horiz-adv-x="469" 
d="M260 556q22 0 25 -21l32 -286l16 -170h6l14 170l34 286q3 21 24 21h32q24 0 20 -26l-68 -509q-3 -21 -25 -21h-61q-21 0 -24 21l-34 271l-14 170h-5l-14 -170l-34 -271q-3 -21 -24 -21h-61q-21 0 -25 21l-68 509q-4 26 20 26h32q21 0 24 -21l34 -286l15 -170h5l16 170
l32 286q3 21 25 21h51z" />
    <glyph glyph-name="x" unicode="x" horiz-adv-x="299" 
d="M191 279l96 -249q4 -11 -0.5 -20.5t-16.5 -9.5h-35q-19 0 -23 18l-32 95l-28 89h-5l-28 -89l-31 -95q-6 -18 -24 -18h-34q-13 0 -17.5 9.5t-0.5 20.5l97 249l-97 247q-4 11 0.5 20.5t17.5 9.5h34q18 0 24 -18l31 -94l28 -90h5l28 90l32 94q4 18 23 18h35q12 0 16.5 -9.5
t0.5 -20.5z" />
    <glyph glyph-name="y" unicode="y" horiz-adv-x="287" 
d="M58 556q21 0 24 -21l40 -281l19 -175h5l19 175l39 281q3 21 25 21h32q24 0 20 -26l-108 -709q-3 -21 -24 -21h-32q-24 0 -20 26l29 174h-17q-21 0 -25 21l-78 509q-4 26 20 26h32z" />
    <glyph glyph-name="z" unicode="z" horiz-adv-x="256" 
d="M242 495l-146 -431h129q21 0 21 -21v-21q0 -22 -21 -22h-192q-21 0 -21 22v21q0 10 3 19l145 430h-128q-22 0 -22 22v21q0 21 22 21h191q22 0 22 -21v-21q0 -12 -3 -19z" />
    <glyph glyph-name="braceleft" unicode="{" horiz-adv-x="281" 
d="M22 327q-22 0 -22 22v27q0 21 22 21q50 0 68.5 23.5t18.5 72.5v218q0 66 30.5 97.5t109.5 31.5q22 0 22 -21v-26q0 -21 -22 -21q-32 0 -44 -16t-12 -51v-190q0 -62 -19.5 -99t-68.5 -51v-6q49 -14 68.5 -51t19.5 -99v-190q0 -35 12 -51t44 -16q22 0 22 -21v-26
q0 -21 -22 -21q-79 0 -109.5 31.5t-30.5 98.5v218q0 47 -19 71t-68 24z" />
    <glyph glyph-name="bar" unicode="|" horiz-adv-x="149" 
d="M109 779v-958q0 -21 -22 -21h-25q-22 0 -22 21v958q0 21 22 21h25q22 0 22 -21z" />
    <glyph glyph-name="braceright" unicode="}" horiz-adv-x="281" 
d="M259 397q22 0 22 -21v-27q0 -22 -22 -22q-50 0 -68.5 -23.5t-18.5 -71.5v-218q0 -67 -30.5 -98.5t-109.5 -31.5q-22 0 -22 21v26q0 21 22 21q32 0 44 16t12 51v190q0 62 19.5 99t68.5 51v6q-49 15 -68.5 52t-19.5 98v190q0 35 -12 51t-44 16q-22 0 -22 21v26q0 21 22 21
q79 0 109.5 -31.5t30.5 -97.5v-218q0 -48 18.5 -72t68.5 -24z" />
    <glyph glyph-name="asciitilde" unicode="~" horiz-adv-x="451" 
d="M231 222l-66 59q-19 17 -38.5 8.5t-19.5 -33.5v-23q0 -21 -21 -21h-26q-20 0 -20 21v23q0 54 31.5 84t74 28t74.5 -31l66 -59q19 -17 39 -8.5t20 33.5v24q0 20 21 20h25q20 0 20 -20v-24q0 -54 -31.5 -84t-74 -28t-74.5 31z" />
    <glyph glyph-name="nbspace" unicode="&#xa0;" horiz-adv-x="193" 
 />
    <glyph glyph-name="exclamdown" unicode="&#xa1;" horiz-adv-x="231" 
d="M68 -147l14 491q2 21 22 21h24q21 0 21 -21l14 -491q0 -21 -22 -21h-51q-22 0 -22 21zM169 508q0 -24 -15 -39t-38 -15q-24 0 -39 15t-15 39q0 23 15 38t39 15q23 0 38 -15t15 -38z" />
    <glyph glyph-name="cent" unicode="&#xa2;" 
d="M203 809v-83q48 -7 67.5 -35.5t19.5 -80.5v-79q0 -21 -21 -21h-34q-21 0 -21 21v78q0 31 -11.5 43.5t-37.5 12.5t-37 -12.5t-11 -43.5v-326q0 -31 11.5 -43.5t36.5 -12.5q26 0 37.5 12.5t11.5 43.5v78q0 22 21 22h34q21 0 21 -22v-79q0 -52 -19.5 -80.5t-67.5 -35.5v-82
q0 -22 -22 -22h-31q-22 0 -22 22v82q-49 7 -68.5 35.5t-19.5 80.5v328q0 52 19.5 80.5t68.5 35.5v83q0 21 22 21h31q22 0 22 -21z" />
    <glyph glyph-name="sterling" unicode="&#xa3;" horiz-adv-x="378" 
d="M63 351h63q-7 25 -30 60t-39.5 76t-16.5 95q0 75 34 111t120 36t120 -36t34 -111v-60q0 -21 -22 -21h-40q-22 0 -22 21v60q0 39 -15 58t-55 19t-55 -19t-15 -58q0 -49 16.5 -89t39 -76.5t29.5 -65.5h82q21 0 21 -21v-27q0 -22 -21 -22h-77q-6 -47 -36 -114l-46 -97h188
q22 0 22 -21v-27q0 -22 -22 -22h-257q-21 0 -21 22v25q0 13 3 19l57 121q24 54 29 94h-68q-21 0 -21 22v27q0 21 21 21z" />
    <glyph glyph-name="currency" unicode="&#xa4;" horiz-adv-x="418" 
d="M340 187l-53 51q-34 -20 -78 -20t-79 20l-51 -51q-15 -15 -31 0l-20 20q-16 15 0 31l51 51q-20 35 -20 79t20 78l-51 53q-16 14 0 30l20 20q16 15 31 0l51 -52q37 21 79 21t78 -21l53 52q14 16 30 0l20 -20q16 -16 0 -30l-52 -53q21 -36 21 -78t-21 -79l52 -51
q16 -16 0 -31l-20 -20q-16 -16 -30 0zM129 368q0 -34 22.5 -57t57.5 -23t58 23t23 57t-23 57.5t-58 23.5q-34 0 -57 -23t-23 -58z" />
    <glyph glyph-name="yen" unicode="&#xa5;" horiz-adv-x="369" 
d="M55 315h77l-120 382q-4 11 1.5 19t16.5 8h42q18 0 22 -15l51 -171l37 -148h5l37 148l50 171q4 15 22 15h43q11 0 16 -8t2 -19l-121 -382h78q21 0 21 -21v-27q0 -22 -21 -22h-88v-223q0 -22 -21 -22h-41q-21 0 -21 22v223h-88q-21 0 -21 22v27q0 21 21 21z" />
    <glyph glyph-name="brokenbar" unicode="&#xa6;" horiz-adv-x="149" 
d="M109 779v-362q0 -22 -22 -22h-25q-22 0 -22 22v362q0 21 22 21h25q22 0 22 -21zM109 184v-363q0 -21 -22 -21h-25q-22 0 -22 21v363q0 21 22 21h25q22 0 22 -21z" />
    <glyph glyph-name="section" unicode="&#xa7;" horiz-adv-x="388" 
d="M348 207q0 -79 -63 -117q32 -33 47.5 -68.5t15.5 -94.5q0 -65 -34.5 -98.5t-119.5 -33.5q-86 0 -120 36t-34 111v88q0 21 22 21h40q22 0 22 -21v-88q0 -39 15 -58t55 -19q70 0 70 62q0 33 -10.5 56.5t-42.5 58.5l-105 109q-34 35 -50 70.5t-16 95.5q0 78 62 117
q-32 35 -47 70t-15 93q0 65 34.5 98.5t119.5 33.5q86 0 120 -36t34 -111v-87q0 -22 -22 -22h-40q-22 0 -22 22v87q0 39 -15 58t-55 19q-70 0 -70 -62q0 -33 10.5 -56.5t42.5 -58.5l104 -109q35 -35 51 -70.5t16 -95.5zM211 322l-53 57q-34 -22 -34 -62q0 -32 10 -56t43 -59
l53 -58q34 23 34 63q0 33 -10 56.5t-43 58.5z" />
    <glyph glyph-name="dieresis" unicode="&#xa8;" horiz-adv-x="353" 
d="M204 678q0 20 12 32.5t32 12.5t32.5 -12.5t12.5 -32.5t-12.5 -32.5t-32.5 -12.5t-32 12.5t-12 32.5zM60 678q0 20 12.5 32.5t32.5 12.5t32.5 -12.5t12.5 -32.5t-12.5 -32.5t-32.5 -12.5t-32.5 12.5t-12.5 32.5z" />
    <glyph glyph-name="copyright" unicode="&#xa9;" horiz-adv-x="754" 
d="M79 362q0 -133 84 -219t214 -86t214 86t84 219t-84 219t-214 86t-214 -86t-84 -219zM10 362q0 160 103.5 263.5t263.5 103.5t263.5 -103.5t103.5 -263.5t-103.5 -263.5t-263.5 -103.5t-263.5 103.5t-103.5 263.5zM492 486v-52q0 -19 -19 -19h-31q-19 0 -19 19v51
q0 30 -10.5 42t-35.5 12t-35.5 -12t-10.5 -42v-247q0 -30 10.5 -41.5t35.5 -11.5t35.5 11.5t10.5 41.5v52q0 19 19 19h31q19 0 19 -19v-53q0 -56 -25 -83t-90 -27t-89.5 27t-24.5 84v248q0 57 25 84t89 27t89.5 -27t25.5 -84z" />
    <glyph glyph-name="ordfeminine" unicode="&#xaa;" horiz-adv-x="198" 
d="M118 563h-19q-19 0 -19 -20v-33q0 -22 19 -22t19 22v53zM99 608h19v52q0 22 -19 22t-19 -21v-11q0 -18 -18 -18h-23q-19 0 -19 19v11q0 65 79 65t79 -65v-203q0 -18 -18 -18h-24q-18 0 -18 17v3q-23 -23 -52 -23q-20 0 -33 14t-13 40v51q0 65 79 65z" />
    <glyph glyph-name="guillemotleft" unicode="&#xab;" horiz-adv-x="399" 
d="M125 279l74 -184q4 -10 -0.5 -19.5t-17.5 -9.5h-39q-17 0 -22 14l-80 199l80 198q5 15 22 15h39q13 0 17.5 -10t0.5 -20zM283 279l75 -184q3 -10 -1.5 -19.5t-16.5 -9.5h-39q-17 0 -23 14l-79 199l79 198q7 15 23 15h39q12 0 16.5 -10t1.5 -20z" />
    <glyph glyph-name="logicalnot" unicode="&#xac;" horiz-adv-x="420" 
d="M62 398h297q21 0 21 -21v-162q0 -22 -21 -22h-27q-22 0 -22 22v113h-248q-22 0 -22 22v27q0 21 22 21z" />
    <glyph glyph-name="uni00AD" unicode="&#xad;" horiz-adv-x="266" 
d="M42 314h183q21 0 21 -21v-27q0 -22 -21 -22h-183q-22 0 -22 22v27q0 21 22 21z" />
    <glyph glyph-name="registered" unicode="&#xae;" horiz-adv-x="754" 
d="M438 152l-75 182h-27v-180q0 -19 -19 -19h-30q-19 0 -19 19v423q0 19 19 19h85q71 0 98 -29.5t27 -91.5v-20q0 -95 -65 -114l79 -180q3 -9 -0.5 -17.5t-14.5 -8.5h-37q-15 0 -21 17zM336 538v-147h36q33 0 45 16t12 49v18q0 33 -12 48.5t-45 15.5h-36zM79 362
q0 -133 84 -219t214 -86t214 86t84 219t-84 219t-214 86t-214 -86t-84 -219zM10 362q0 160 103.5 263.5t263.5 103.5t263.5 -103.5t103.5 -263.5t-103.5 -263.5t-263.5 -103.5t-263.5 103.5t-103.5 263.5z" />
    <glyph glyph-name="macron" unicode="&#xaf;" horiz-adv-x="331" 
d="M79 700h178q19 0 19 -19v-26q0 -19 -19 -19h-178q-19 0 -19 19v26q0 19 19 19z" />
    <glyph glyph-name="degree" unicode="&#xb0;" horiz-adv-x="277" 
d="M20 611q0 51 33.5 84.5t84.5 33.5t85 -33.5t34 -84.5t-34 -84.5t-85 -33.5t-84.5 33.5t-33.5 84.5zM78 611q0 -27 17 -45t43 -18q27 0 43.5 18t16.5 45t-16.5 44.5t-43.5 17.5q-26 0 -43 -17.5t-17 -44.5z" />
    <glyph glyph-name="plusminus" unicode="&#xb1;" horiz-adv-x="420" 
d="M245 512v-114h114q21 0 21 -21v-27q0 -22 -21 -22h-114v-113q0 -22 -21 -22h-27q-22 0 -22 22v113h-113q-22 0 -22 22v27q0 21 22 21h113v114q0 21 22 21h27q21 0 21 -21zM62 70h297q21 0 21 -21v-27q0 -22 -21 -22h-297q-22 0 -22 22v27q0 21 22 21z" />
    <glyph glyph-name="twosuperior" unicode="&#xb2;" horiz-adv-x="222" 
d="M139 620v28q0 30 -28 30t-28 -30v-41q0 -19 -18 -19h-26q-19 0 -19 19v41q0 41 22 60t69 19t69 -19t22 -60v-22q0 -41 -20 -70l-90 -137h92q18 0 18 -18v-20q0 -19 -18 -19h-145q-19 0 -19 19v23q0 9 5 18l102 159q12 18 12 39z" />
    <glyph glyph-name="threesuperior" unicode="&#xb3;" horiz-adv-x="222" 
d="M110 521h-13q-18 0 -18 18v10q0 18 18 18h13q29 0 29 30v51q0 30 -28 30t-28 -30v-31q0 -19 -18 -19h-26q-19 0 -19 19v31q0 41 22 60t69 19t69 -19t22 -60v-29q0 -57 -46 -73v-4q46 -16 46 -73v-31q0 -79 -91 -79t-91 79v32q0 18 19 18h26q18 0 18 -18v-32q0 -30 28 -30
t28 30v53q0 30 -29 30z" />
    <glyph glyph-name="acute" unicode="&#xb4;" horiz-adv-x="287" 
d="M219 716l-113 -113q-13 -13 -27 -2l-11 11q-14 13 -1 26l98 127q12 14 27 2l26 -24q15 -13 1 -27z" />
    <glyph glyph-name="uni00B5" unicode="&#xb5;" 
d="M40 -179v714q0 21 22 21h33q22 0 22 -21v-417q0 -32 9.5 -44t34.5 -12q53 0 53 59v414q0 21 21 21h34q21 0 21 -21v-514q0 -21 -21 -21h-34q-21 0 -21 21v13q-47 -43 -97 -36v-177q0 -21 -22 -21h-33q-22 0 -22 21z" />
    <glyph glyph-name="paragraph" unicode="&#xb6;" horiz-adv-x="442" 
d="M258 -179v611h-95q-74 0 -113.5 32.5t-39.5 113.5t39.5 113.5t113.5 32.5h258q21 0 21 -21v-26q0 -21 -21 -21h-88v-835q0 -21 -21 -21h-32q-22 0 -22 21zM258 656h-92q-81 0 -81 -78t81 -78h92v156z" />
    <glyph glyph-name="periodcentered" unicode="&#xb7;" horiz-adv-x="192" 
d="M40 362q0 25 15.5 40.5t40.5 15.5t40.5 -15.5t15.5 -40.5t-15.5 -40.5t-40.5 -15.5t-40.5 15.5t-15.5 40.5z" />
    <glyph glyph-name="cedilla" unicode="&#xb8;" horiz-adv-x="265" 
d="M149 0l-19 -48q75 -5 75 -76q0 -42 -21.5 -59t-63.5 -17h-41q-19 0 -19 19v14q0 19 19 19h36q31 0 31 24t-31 24h-26q-19 0 -19 19v18q0 7 3 14l20 49h56z" />
    <glyph glyph-name="onesuperior" unicode="&#xb9;" horiz-adv-x="150" 
d="M67 693v13q0 18 19 18h26q18 0 18 -18v-325q0 -19 -18 -19h-26q-19 0 -19 19v243h-43q-19 0 -19 18v12q0 18 19 18h23q20 0 20 21z" />
    <glyph glyph-name="ordmasculine" unicode="&#xba;" horiz-adv-x="198" 
d="M99 682q-19 0 -19 -22v-154q0 -22 19 -22t19 22v154q0 22 -19 22zM99 727q79 0 79 -65v-158q0 -66 -79 -66t-79 66v158q0 65 79 65z" />
    <glyph glyph-name="guillemotright" unicode="&#xbb;" horiz-adv-x="399" 
d="M275 279l-75 183q-3 10 1.5 20t16.5 10h39q16 0 23 -15l79 -198l-79 -199q-6 -14 -23 -14h-39q-12 0 -16.5 9.5t-1.5 19.5zM116 279l-74 183q-4 10 0.5 20t17.5 10h39q17 0 22 -15l80 -198l-80 -199q-5 -14 -22 -14h-39q-13 0 -17.5 9.5t-0.5 19.5z" />
    <glyph glyph-name="onequarter" unicode="&#xbc;" horiz-adv-x="448" 
d="M406 189v-64h23q18 0 18 -19v-20q0 -18 -18 -18h-23v-49q0 -19 -18 -19h-26q-18 0 -18 19v49h-85q-19 0 -19 18v23q0 10 4 19l65 222q5 12 18 12h28q22 0 17 -26l-67 -211h39v64q0 18 18 18h26q18 0 18 -18zM67 693v13q0 18 19 18h26q18 0 18 -18v-325q0 -19 -18 -19h-26
q-19 0 -19 19v243h-43q-19 0 -19 18v12q0 18 19 18h23q20 0 20 21zM388 699l-270 -687q-6 -12 -19 -12h-33q-10 1 -14 9t0 16l270 687q6 12 19 12h33q10 -1 14 -8.5t0 -16.5z" />
    <glyph glyph-name="onehalf" unicode="&#xbd;" horiz-adv-x="459" 
d="M399 258v28q0 30 -28 30t-28 -30v-41q0 -19 -18 -19h-26q-19 0 -19 19v41q0 41 22 60t69 19t69 -19t22 -60v-22q0 -41 -20 -70l-90 -137h92q18 0 18 -18v-20q0 -19 -18 -19h-145q-19 0 -19 19v23q0 9 5 18l102 159q12 18 12 39zM67 693v13q0 18 19 18h26q18 0 18 -18
v-325q0 -19 -18 -19h-26q-19 0 -19 19v243h-43q-19 0 -19 18v12q0 18 19 18h23q20 0 20 21zM388 699l-270 -687q-6 -12 -19 -12h-33q-10 1 -14 9t0 16l270 687q6 12 19 12h33q10 -1 14 -8.5t0 -16.5z" />
    <glyph glyph-name="threequarters" unicode="&#xbe;" horiz-adv-x="489" 
d="M447 189v-64h23q18 0 18 -19v-20q0 -18 -18 -18h-23v-49q0 -19 -18 -19h-26q-18 0 -18 19v49h-85q-19 0 -19 18v23q0 10 4 19l65 222q4 12 18 12h28q22 0 17 -26l-67 -211h39v64q0 18 18 18h26q18 0 18 -18zM110 521h-13q-18 0 -18 18v10q0 18 18 18h13q29 0 29 30v51
q0 30 -28 30t-28 -30v-31q0 -19 -18 -19h-26q-19 0 -19 19v31q0 41 22 60t69 19t69 -19t22 -60v-29q0 -57 -46 -73v-4q46 -16 46 -73v-31q0 -79 -91 -79t-91 79v32q0 18 19 18h26q18 0 18 -18v-32q0 -30 28 -30t28 30v53q0 30 -29 30zM429 699l-270 -687q-6 -12 -19 -12h-33
q-10 1 -14 9t0 16l270 687q6 12 19 12h33q10 -1 14 -8.5t0 -16.5z" />
    <glyph glyph-name="questiondown" unicode="&#xbf;" horiz-adv-x="364" 
d="M30 -26v10q0 44 18 84t39 66.5t39 67.5t18 87v55q0 21 22 21h32q21 0 21 -21v-45q0 -57 -17 -105t-37.5 -74.5t-37.5 -61t-17 -67.5v-17q0 -41 15 -60.5t57 -19.5t57 19.5t15 60.5v60q0 22 21 22h37q22 0 22 -22v-60q0 -76 -33 -111.5t-119 -35.5t-119 35.5t-33 111.5z
M236 508q0 -24 -15 -39t-39 -15q-23 0 -38 15t-15 39q0 23 15 38t38 15q24 0 39 -15t15 -38z" />
    <glyph glyph-name="Agrave" unicode="&#xc0;" horiz-adv-x="367" 
d="M295 0q-19 0 -21 20l-21 137h-139l-20 -137q-3 -20 -22 -20h-42q-10 0 -15.5 7t-3.5 18l104 677q3 22 24 22h90q20 0 23 -22l104 -677q3 -25 -19 -25h-42zM158 460l-35 -233h120l-34 233l-23 194h-5zM224 762l-153 72q-18 8 -8 26l16 31q9 17 26 8l144 -90q16 -9 8 -25
l-8 -15q-9 -14 -25 -7z" />
    <glyph glyph-name="Aacute" unicode="&#xc1;" horiz-adv-x="367" 
d="M295 0q-19 0 -21 20l-21 137h-139l-20 -137q-3 -20 -22 -20h-42q-10 0 -15.5 7t-3.5 18l104 677q3 22 24 22h90q20 0 23 -22l104 -677q3 -25 -19 -25h-42zM158 460l-35 -233h120l-34 233l-23 194h-5zM298 834l-154 -72q-16 -7 -25 7l-8 15q-8 16 8 25l144 90q17 9 26 -8
l17 -31q10 -18 -8 -26z" />
    <glyph glyph-name="Acircumflex" unicode="&#xc2;" horiz-adv-x="367" 
d="M295 0q-19 0 -21 20l-21 137h-139l-20 -137q-3 -20 -22 -20h-42q-10 0 -15.5 7t-3.5 18l104 677q3 22 24 22h90q20 0 23 -22l104 -677q3 -25 -19 -25h-42zM158 460l-35 -233h120l-34 233l-23 194h-5zM184 823l-108 -60q-18 -8 -27 6l-8 13q-9 14 6 26l111 86q7 6 16 6h21
q8 0 15 -6l112 -86q14 -10 6 -26l-8 -13q-10 -14 -27 -5z" />
    <glyph glyph-name="Atilde" unicode="&#xc3;" horiz-adv-x="367" 
d="M295 0q-19 0 -21 20l-21 137h-139l-20 -137q-3 -20 -22 -20h-42q-10 0 -15.5 7t-3.5 18l104 677q3 22 24 22h90q20 0 23 -22l104 -677q3 -25 -19 -25h-42zM158 460l-35 -233h120l-34 233l-23 194h-5zM181 781l-42 36q-11 10 -24 5t-13 -22v-15q0 -18 -18 -18h-20
q-18 0 -18 18v17q0 41 25 63.5t58 21t57 -23.5l42 -35q12 -11 24.5 -6t12.5 23v15q0 18 18 18h20q18 0 18 -18v-17q0 -41 -25 -63.5t-57.5 -21.5t-57.5 23z" />
    <glyph glyph-name="Adieresis" unicode="&#xc4;" horiz-adv-x="367" 
d="M295 0q-19 0 -21 20l-21 137h-139l-20 -137q-3 -20 -22 -20h-42q-10 0 -15.5 7t-3.5 18l104 677q3 22 24 22h90q20 0 23 -22l104 -677q3 -25 -19 -25h-42zM158 460l-35 -233h120l-34 233l-23 194h-5zM54 825q0 20 13 33t33 13q21 0 34 -13t13 -33q0 -21 -13 -33.5
t-34 -12.5q-20 0 -33 12.5t-13 33.5zM221 825q0 20 12.5 33t33.5 13q20 0 33 -13t13 -33q0 -21 -13 -33.5t-33 -12.5q-21 0 -33.5 12.5t-12.5 33.5z" />
    <glyph glyph-name="Aring" unicode="&#xc5;" horiz-adv-x="367" 
d="M295 0q-19 0 -21 20l-21 137h-139l-20 -137q-3 -20 -22 -20h-42q-10 0 -15.5 7t-3.5 18l104 677q3 22 24 22h90q20 0 23 -22l104 -677q3 -25 -19 -25h-42zM158 460l-35 -233h120l-34 233l-23 194h-5zM98 824q0 38 24 61.5t62 23.5t61.5 -23.5t23.5 -61.5t-23.5 -62
t-61.5 -24t-62 24t-24 62zM146 824q0 -17 10.5 -28.5t27.5 -11.5q16 0 26.5 11.5t10.5 28.5t-10.5 28t-26.5 11q-17 0 -27.5 -11t-10.5 -28z" />
    <glyph glyph-name="AE" unicode="&#xc6;" horiz-adv-x="534" 
d="M255 157h-134l-37 -141q-4 -16 -19 -16h-45q-13 0 -17 8.5t-1 19.5l192 680q4 16 24 16h285q21 0 21 -21v-27q0 -22 -21 -22h-165v-257h127q21 0 21 -21v-27q0 -22 -21 -22h-127v-257h165q21 0 21 -21v-27q0 -22 -21 -22h-227q-21 0 -21 22v135zM249 648l-48 -197
l-61 -224h115v421h-6z" />
    <glyph glyph-name="Ccedilla" unicode="&#xc7;" horiz-adv-x="388" 
d="M348 582v-117q0 -22 -22 -22h-40q-22 0 -22 22v117q0 39 -15 58t-55 19t-55 -19t-15 -58v-440q0 -39 15 -58t55 -19t55 19t15 58v118q0 21 22 21h40q22 0 22 -21v-118q0 -70 -28.5 -105.5t-100.5 -40.5l-17 -44q75 -5 75 -76q0 -42 -21.5 -59t-63.5 -17h-41q-19 0 -19 19
v14q0 19 19 19h36q31 0 31 24t-31 24h-26q-19 0 -19 19v18q0 7 3 14l18 46q-68 6 -95.5 41t-27.5 104v440q0 75 34 111t120 36t120 -36t34 -111z" />
    <glyph glyph-name="Egrave" unicode="&#xc8;" horiz-adv-x="320" 
d="M226 762l-153 72q-18 8 -8 26l16 31q9 17 26 8l144 -90q16 -9 8 -25l-8 -15q-9 -14 -25 -7zM62 724h226q22 0 22 -21v-27q0 -22 -22 -22h-164v-257h126q22 0 22 -21v-27q0 -22 -22 -22h-126v-257h164q22 0 22 -21v-27q0 -22 -22 -22h-226q-22 0 -22 22v681q0 21 22 21z
" />
    <glyph glyph-name="Eacute" unicode="&#xc9;" horiz-adv-x="320" 
d="M273 834l-154 -72q-16 -7 -25 7l-8 15q-8 16 8 25l144 90q17 9 26 -8l17 -31q10 -18 -8 -26zM62 724h226q22 0 22 -21v-27q0 -22 -22 -22h-164v-257h126q22 0 22 -21v-27q0 -22 -22 -22h-126v-257h164q22 0 22 -21v-27q0 -22 -22 -22h-226q-22 0 -22 22v681q0 21 22 21z
" />
    <glyph glyph-name="Ecircumflex" unicode="&#xca;" horiz-adv-x="320" 
d="M62 724h226q22 0 22 -21v-27q0 -22 -22 -22h-164v-257h126q22 0 22 -21v-27q0 -22 -22 -22h-126v-257h164q22 0 22 -21v-27q0 -22 -22 -22h-226q-22 0 -22 22v681q0 21 22 21zM174 823l-108 -60q-18 -8 -27 6l-8 13q-9 14 6 26l111 86q7 6 16 6h21q8 0 15 -6l112 -86
q14 -10 6 -26l-8 -13q-10 -14 -27 -5z" />
    <glyph glyph-name="Edieresis" unicode="&#xcb;" horiz-adv-x="320" 
d="M44 825q0 20 13 33t33 13q21 0 34 -13t13 -33q0 -21 -13 -33.5t-34 -12.5q-20 0 -33 12.5t-13 33.5zM211 825q0 20 12.5 33t33.5 13q20 0 33 -13t13 -33q0 -21 -13 -33.5t-33 -12.5q-21 0 -33.5 12.5t-12.5 33.5zM62 724h226q22 0 22 -21v-27q0 -22 -22 -22h-164v-257
h126q22 0 22 -21v-27q0 -22 -22 -22h-126v-257h164q22 0 22 -21v-27q0 -22 -22 -22h-226q-22 0 -22 22v681q0 21 22 21z" />
    <glyph glyph-name="Igrave" unicode="&#xcc;" horiz-adv-x="164" 
d="M124 703v-681q0 -22 -22 -22h-40q-22 0 -22 22v681q0 21 22 21h40q22 0 22 -21zM110 762l-153 72q-18 8 -8 26l16 31q9 17 26 8l144 -90q16 -9 8 -25l-8 -15q-9 -14 -25 -7z" />
    <glyph glyph-name="Iacute" unicode="&#xcd;" horiz-adv-x="164" 
d="M124 703v-681q0 -22 -22 -22h-40q-22 0 -22 22v681q0 21 22 21h40q22 0 22 -21zM210 834l-154 -72q-16 -7 -25 7l-8 15q-8 16 8 25l144 90q17 9 26 -8l17 -31q10 -18 -8 -26z" />
    <glyph glyph-name="Icircumflex" unicode="&#xce;" horiz-adv-x="164" 
d="M124 703v-681q0 -22 -22 -22h-40q-22 0 -22 22v681q0 21 22 21h40q22 0 22 -21zM82 823l-108 -60q-18 -8 -27 6l-8 13q-9 14 6 26l111 86q7 6 16 6h21q8 0 15 -6l112 -86q14 -10 6 -26l-8 -13q-10 -14 -27 -5z" />
    <glyph glyph-name="Idieresis" unicode="&#xcf;" horiz-adv-x="164" 
d="M124 703v-681q0 -22 -22 -22h-40q-22 0 -22 22v681q0 21 22 21h40q22 0 22 -21zM-47 825q0 20 13 33t33 13q21 0 34 -13t13 -33q0 -21 -13 -33.5t-34 -12.5q-20 0 -33 12.5t-13 33.5zM120 825q0 20 12.5 33t33.5 13q20 0 33 -13t13 -33q0 -21 -13 -33.5t-33 -12.5
q-21 0 -33.5 12.5t-12.5 33.5z" />
    <glyph glyph-name="Eth" unicode="&#xd0;" horiz-adv-x="380" 
d="M174 0h-112q-22 0 -22 22v307h-38q-20 0 -20 19v28q0 19 20 19h38v308q0 21 22 21h112q94 0 130 -39t36 -121v-403q0 -83 -36 -122t-130 -39zM124 70h50q48 0 65.5 22.5t17.5 68.5v403q0 46 -17.5 68t-65.5 22h-50v-259h55q19 0 19 -19v-28q0 -19 -19 -19h-55v-259z" />
    <glyph glyph-name="Ntilde" unicode="&#xd1;" horiz-adv-x="390" 
d="M193 781l-42 36q-11 10 -24 5t-13 -22v-15q0 -18 -18 -18h-20q-18 0 -18 18v17q0 41 25 63.5t58 21t57 -23.5l42 -35q12 -11 24.5 -6t12.5 23v15q0 18 18 18h20q18 0 18 -18v-17q0 -41 -25 -63.5t-57.5 -21.5t-57.5 23zM269 335v368q0 21 22 21h38q21 0 21 -21v-681
q0 -22 -21 -22h-53q-17 0 -23 19l-100 375l-35 147l-5 -1l8 -151v-367q0 -22 -21 -22h-38q-22 0 -22 22v681q0 21 22 21h52q19 0 23 -19l100 -375l35 -147l5 1z" />
    <glyph glyph-name="Ograve" unicode="&#xd2;" horiz-adv-x="388" 
d="M248 762l-153 72q-18 8 -8 26l16 31q9 17 26 8l144 -90q16 -9 8 -25l-8 -15q-9 -14 -25 -7zM194 659q-40 0 -55 -19t-15 -58v-440q0 -39 15 -58t55 -19t55 19t15 58v440q0 39 -15 58t-55 19zM194 729q86 0 120 -36t34 -111v-440q0 -75 -34 -111t-120 -36t-120 36t-34 111
v440q0 75 34 111t120 36z" />
    <glyph glyph-name="Oacute" unicode="&#xd3;" horiz-adv-x="388" 
d="M293 834l-154 -72q-16 -7 -25 7l-8 15q-8 16 8 25l144 90q17 9 26 -8l17 -31q10 -18 -8 -26zM194 659q-40 0 -55 -19t-15 -58v-440q0 -39 15 -58t55 -19t55 19t15 58v440q0 39 -15 58t-55 19zM194 729q86 0 120 -36t34 -111v-440q0 -75 -34 -111t-120 -36t-120 36
t-34 111v440q0 75 34 111t120 36z" />
    <glyph glyph-name="Ocircumflex" unicode="&#xd4;" horiz-adv-x="388" 
d="M194 659q-40 0 -55 -19t-15 -58v-440q0 -39 15 -58t55 -19t55 19t15 58v440q0 39 -15 58t-55 19zM194 729q86 0 120 -36t34 -111v-440q0 -75 -34 -111t-120 -36t-120 36t-34 111v440q0 75 34 111t120 36zM194 823l-108 -60q-18 -8 -27 6l-8 13q-9 14 6 26l111 86
q7 6 16 6h21q8 0 15 -6l112 -86q14 -10 6 -26l-8 -13q-10 -14 -27 -5z" />
    <glyph glyph-name="Otilde" unicode="&#xd5;" horiz-adv-x="388" 
d="M192 781l-42 36q-11 10 -24 5t-13 -22v-15q0 -18 -18 -18h-20q-18 0 -18 18v17q0 41 25 63.5t58 21t57 -23.5l42 -35q12 -11 24.5 -6t12.5 23v15q0 18 18 18h20q18 0 18 -18v-17q0 -41 -25 -63.5t-57.5 -21.5t-57.5 23zM194 659q-40 0 -55 -19t-15 -58v-440q0 -39 15 -58
t55 -19t55 19t15 58v440q0 39 -15 58t-55 19zM194 729q86 0 120 -36t34 -111v-440q0 -75 -34 -111t-120 -36t-120 36t-34 111v440q0 75 34 111t120 36z" />
    <glyph glyph-name="Odieresis" unicode="&#xd6;" horiz-adv-x="388" 
d="M64 825q0 20 13 33t33 13q21 0 34 -13t13 -33q0 -21 -13 -33.5t-34 -12.5q-20 0 -33 12.5t-13 33.5zM231 825q0 20 12.5 33t33.5 13q20 0 33 -13t13 -33q0 -21 -13 -33.5t-33 -12.5q-21 0 -33.5 12.5t-12.5 33.5zM194 659q-40 0 -55 -19t-15 -58v-440q0 -39 15 -58
t55 -19t55 19t15 58v440q0 39 -15 58t-55 19zM194 729q86 0 120 -36t34 -111v-440q0 -75 -34 -111t-120 -36t-120 36t-34 111v440q0 75 34 111t120 36z" />
    <glyph glyph-name="multiply" unicode="&#xd7;" horiz-adv-x="402" 
d="M350 462l-99 -99l99 -99q15 -16 0 -31l-19 -19q-14 -16 -31 0l-99 99l-99 -99q-16 -15 -31 0l-19 19q-15 15 0 31l99 99l-99 99q-15 17 0 31l19 19q15 15 31 0l99 -99l99 99q17 16 31 0l19 -19q16 -14 0 -31z" />
    <glyph glyph-name="Oslash" unicode="&#xd8;" horiz-adv-x="388" 
d="M342 756l-21 -71q27 -32 27 -103v-440q0 -75 -34 -111t-120 -36q-44 0 -73 9l-15 -55q-6 -21 -27 -14l-19 5q-20 8 -14 28l20 70q-26 32 -26 104v440q0 75 34 111t120 36q42 0 72 -9l16 55q6 21 27 14l19 -5q20 -8 14 -28zM194 659q-40 0 -55 -19t-15 -58v-213l-7 -177
l6 -1l40 167l81 288q-18 13 -50 13zM194 65q40 0 55 19t15 58v213l6 177l-5 2l-40 -168l-81 -288q18 -13 50 -13z" />
    <glyph glyph-name="Ugrave" unicode="&#xd9;" horiz-adv-x="388" 
d="M238 762l-153 72q-18 8 -8 26l16 31q9 17 26 8l144 -90q16 -9 8 -25l-8 -15q-9 -14 -25 -7zM40 142v561q0 21 22 21h40q22 0 22 -21v-561q0 -39 15 -58t55 -19t55 19t15 58v561q0 21 22 21h40q22 0 22 -21v-561q0 -75 -34 -111t-120 -36t-120 36t-34 111z" />
    <glyph glyph-name="Uacute" unicode="&#xda;" horiz-adv-x="388" 
d="M303 834l-154 -72q-16 -7 -25 7l-8 15q-8 16 8 25l144 90q17 9 26 -8l17 -31q10 -18 -8 -26zM40 142v561q0 21 22 21h40q22 0 22 -21v-561q0 -39 15 -58t55 -19t55 19t15 58v561q0 21 22 21h40q22 0 22 -21v-561q0 -75 -34 -111t-120 -36t-120 36t-34 111z" />
    <glyph glyph-name="Ucircumflex" unicode="&#xdb;" horiz-adv-x="388" 
d="M40 142v561q0 21 22 21h40q22 0 22 -21v-561q0 -39 15 -58t55 -19t55 19t15 58v561q0 21 22 21h40q22 0 22 -21v-561q0 -75 -34 -111t-120 -36t-120 36t-34 111zM194 823l-108 -60q-18 -8 -27 6l-8 13q-9 14 6 26l111 86q7 6 16 6h21q8 0 15 -6l112 -86q14 -10 6 -26
l-8 -13q-10 -14 -27 -5z" />
    <glyph glyph-name="Udieresis" unicode="&#xdc;" horiz-adv-x="388" 
d="M64 825q0 20 13 33t33 13q21 0 34 -13t13 -33q0 -21 -13 -33.5t-34 -12.5q-20 0 -33 12.5t-13 33.5zM231 825q0 20 12.5 33t33.5 13q20 0 33 -13t13 -33q0 -21 -13 -33.5t-33 -12.5q-21 0 -33.5 12.5t-12.5 33.5zM40 142v561q0 21 22 21h40q22 0 22 -21v-561
q0 -39 15 -58t55 -19t55 19t15 58v561q0 21 22 21h40q22 0 22 -21v-561q0 -75 -34 -111t-120 -36t-120 36t-34 111z" />
    <glyph glyph-name="Yacute" unicode="&#xdd;" horiz-adv-x="369" 
d="M30 724h42q18 0 22 -15l51 -171l37 -148h5l37 148l50 171q4 15 22 15h43q11 0 16 -8t2 -19l-131 -415v-260q0 -22 -21 -22h-41q-21 0 -21 22v260l-131 415q-4 11 1.5 19t16.5 8zM296 834l-154 -72q-16 -7 -25 7l-8 15q-8 16 8 25l144 90q17 9 26 -8l17 -31q10 -18 -8 -26
z" />
    <glyph glyph-name="Thorn" unicode="&#xde;" horiz-adv-x="358" 
d="M124 220h47q48 0 65.5 22.5t17.5 68.5v103q0 46 -17.5 68t-65.5 22h-47v-284zM124 574h47q94 0 130.5 -39t36.5 -121v-103q0 -83 -36.5 -122t-130.5 -39h-47v-128q0 -22 -22 -22h-40q-22 0 -22 22v681q0 21 22 21h40q22 0 22 -21v-129z" />
    <glyph glyph-name="germandbls" unicode="&#xdf;" horiz-adv-x="357" 
d="M240 558v114q0 35 -13 52t-49 17q-35 0 -48 -16.5t-13 -52.5v-650q0 -22 -22 -22h-33q-22 0 -22 22v650q0 68 30 100.5t108 32.5t108.5 -32.5t30.5 -100.5v-89q0 -101 -70 -120v-7q70 -19 70 -120v-217q0 -61 -27.5 -90t-96.5 -29h-20q-21 0 -21 22v21q0 21 21 21h20
q25 0 36 12.5t11 43.5v241q0 34 -12.5 50t-45.5 16h-9q-21 0 -21 22v21q0 21 21 21h9q33 0 45.5 16t12.5 51z" />
    <glyph glyph-name="agrave" unicode="&#xe0;" 
d="M214 249h-49q-25 0 -36.5 -12.5t-11.5 -43.5v-75q0 -32 9.5 -44t34.5 -12q53 0 53 59v128zM165 312h49v129q0 31 -11.5 43.5t-37.5 12.5t-37 -12.5t-11 -43.5v-43q0 -21 -22 -21h-33q-22 0 -22 21v44q0 61 27.5 90t97.5 29t97 -29t28 -90v-421q0 -21 -21 -21h-34
q-21 0 -21 21v13q-41 -39 -92 -39q-36 0 -59 23.5t-23 68.5v106q0 61 27.5 90t97.5 29zM185 603l-114 113q-14 14 2 27l26 24q15 12 27 -2l98 -127q13 -13 -1 -26l-11 -11q-14 -11 -27 2z" />
    <glyph glyph-name="aacute" unicode="&#xe1;" 
d="M214 249h-49q-25 0 -36.5 -12.5t-11.5 -43.5v-75q0 -32 9.5 -44t34.5 -12q53 0 53 59v128zM165 312h49v129q0 31 -11.5 43.5t-37.5 12.5t-37 -12.5t-11 -43.5v-43q0 -21 -22 -21h-33q-22 0 -22 21v44q0 61 27.5 90t97.5 29t97 -29t28 -90v-421q0 -21 -21 -21h-34
q-21 0 -21 21v13q-41 -39 -92 -39q-36 0 -59 23.5t-23 68.5v106q0 61 27.5 90t97.5 29zM259 716l-113 -113q-13 -13 -27 -2l-11 11q-14 13 -1 26l98 127q12 14 27 2l26 -24q15 -13 1 -27z" />
    <glyph glyph-name="acircumflex" unicode="&#xe2;" 
d="M214 249h-49q-25 0 -36.5 -12.5t-11.5 -43.5v-75q0 -32 9.5 -44t34.5 -12q53 0 53 59v128zM165 312h49v129q0 31 -11.5 43.5t-37.5 12.5t-37 -12.5t-11 -43.5v-43q0 -21 -22 -21h-33q-22 0 -22 21v44q0 61 27.5 90t97.5 29t97 -29t28 -90v-421q0 -21 -21 -21h-34
q-21 0 -21 21v13q-41 -39 -92 -39q-36 0 -59 23.5t-23 68.5v106q0 61 27.5 90t97.5 29zM165 691l-75 -84q-12 -13 -26 -2l-11 10q-12 11 -2 25l87 123q6 10 20 10h15q13 0 20 -10l86 -123q10 -14 -2 -25l-11 -10q-14 -11 -26 2z" />
    <glyph glyph-name="atilde" unicode="&#xe3;" 
d="M214 249h-49q-25 0 -36.5 -12.5t-11.5 -43.5v-75q0 -32 9.5 -44t34.5 -12q53 0 53 59v128zM165 312h49v129q0 31 -11.5 43.5t-37.5 12.5t-37 -12.5t-11 -43.5v-43q0 -21 -22 -21h-33q-22 0 -22 21v44q0 61 27.5 90t97.5 29t97 -29t28 -90v-421q0 -21 -21 -21h-34
q-21 0 -21 21v13q-41 -39 -92 -39q-36 0 -59 23.5t-23 68.5v106q0 61 27.5 90t97.5 29zM153 645l-25 28q-12 13 -25.5 8.5t-13.5 -18.5v-22q0 -18 -18 -18h-20q-18 0 -18 18v26q0 38 26 59t61 17.5t58 -30.5l25 -29q12 -13 25.5 -8t13.5 19v22q0 18 18 18h20q18 0 18 -18
v-27q0 -38 -26 -59t-60.5 -17t-58.5 31z" />
    <glyph glyph-name="adieresis" unicode="&#xe4;" 
d="M214 249h-49q-25 0 -36.5 -12.5t-11.5 -43.5v-75q0 -32 9.5 -44t34.5 -12q53 0 53 59v128zM165 312h49v129q0 31 -11.5 43.5t-37.5 12.5t-37 -12.5t-11 -43.5v-43q0 -21 -22 -21h-33q-22 0 -22 21v44q0 61 27.5 90t97.5 29t97 -29t28 -90v-421q0 -21 -21 -21h-34
q-21 0 -21 21v13q-41 -39 -92 -39q-36 0 -59 23.5t-23 68.5v106q0 61 27.5 90t97.5 29zM194 678q0 20 12 32.5t32 12.5t32.5 -12.5t12.5 -32.5t-12.5 -32.5t-32.5 -12.5t-32 12.5t-12 32.5zM50 678q0 20 12.5 32.5t32.5 12.5t32.5 -12.5t12.5 -32.5t-12.5 -32.5t-32.5 -12.5
t-32.5 12.5t-12.5 32.5z" />
    <glyph glyph-name="aring" unicode="&#xe5;" 
d="M214 249h-49q-25 0 -36.5 -12.5t-11.5 -43.5v-75q0 -32 9.5 -44t34.5 -12q53 0 53 59v128zM165 312h49v129q0 31 -11.5 43.5t-37.5 12.5t-37 -12.5t-11 -43.5v-43q0 -21 -22 -21h-33q-22 0 -22 21v44q0 61 27.5 90t97.5 29t97 -29t28 -90v-421q0 -21 -21 -21h-34
q-21 0 -21 21v13q-41 -39 -92 -39q-36 0 -59 23.5t-23 68.5v106q0 61 27.5 90t97.5 29zM79 685q0 38 24 62t62 24t61.5 -24t23.5 -62t-23.5 -61.5t-61.5 -23.5t-62 23.5t-24 61.5zM127 685q0 -17 10.5 -28t27.5 -11q16 0 26.5 11t10.5 28t-10.5 28.5t-26.5 11.5
q-17 0 -27.5 -11.5t-10.5 -28.5z" />
    <glyph glyph-name="ae" unicode="&#xe6;" horiz-adv-x="504" 
d="M464 442v-172q0 -23 -24 -23h-150v-132q0 -31 11.5 -43.5t37.5 -12.5q25 0 36.5 12.5t11.5 43.5v36q0 21 22 21h33q22 0 22 -21v-37q0 -61 -28 -90t-97 -29q-77 0 -102 43q-42 -43 -113 -43q-36 0 -60 23.5t-24 68.5v106q0 61 27.5 90t97.5 29h49v129q0 31 -11.5 43.5
t-37.5 12.5t-37 -12.5t-11 -43.5v-43q0 -21 -22 -21h-33q-22 0 -22 21v44q0 61 27.5 90t95.5 29q59 0 89 -32q30 32 89 32q68 0 95.5 -29t27.5 -90zM290 441v-131h97v131q0 31 -11 43.5t-37 12.5t-37.5 -12.5t-11.5 -43.5zM214 249h-49q-25 0 -36.5 -12.5t-11.5 -43.5v-75
q0 -32 9.5 -44t34.5 -12q53 0 53 59v128z" />
    <glyph glyph-name="ccedilla" unicode="&#xe7;" 
d="M290 442v-79q0 -21 -21 -21h-34q-21 0 -21 21v78q0 31 -11.5 43.5t-37.5 12.5t-37 -12.5t-11 -43.5v-326q0 -31 11.5 -43.5t36.5 -12.5q26 0 37.5 12.5t11.5 43.5v78q0 22 21 22h34q21 0 21 -22v-79q0 -54 -21.5 -83t-74.5 -34l-17 -45q75 -5 75 -76q0 -42 -21.5 -59
t-63.5 -17h-41q-19 0 -19 19v14q0 19 19 19h36q31 0 31 24t-31 24h-26q-19 0 -19 19v18q0 7 3 14l18 45q-54 5 -76 34t-22 84v328q0 61 27.5 90t97.5 29t97.5 -29t27.5 -90z" />
    <glyph glyph-name="egrave" unicode="&#xe8;" 
d="M290 442v-172q0 -23 -23 -23h-150v-132q0 -31 11.5 -43.5t36.5 -12.5q26 0 37.5 12.5t11.5 43.5v36q0 21 21 21h34q21 0 21 -21v-37q0 -61 -27.5 -90t-97.5 -29t-97.5 29t-27.5 90v328q0 61 27.5 90t97.5 29t97.5 -29t27.5 -90zM117 441v-131h97v131q0 31 -11.5 43.5
t-37.5 12.5t-37 -12.5t-11 -43.5zM193 603l-114 113q-14 14 2 27l26 24q15 12 27 -2l98 -127q13 -13 -1 -26l-11 -11q-14 -11 -27 2z" />
    <glyph glyph-name="eacute" unicode="&#xe9;" 
d="M252 716l-113 -113q-13 -13 -27 -2l-11 11q-14 13 -1 26l98 127q12 14 27 2l26 -24q15 -13 1 -27zM290 442v-172q0 -23 -23 -23h-150v-132q0 -31 11.5 -43.5t36.5 -12.5q26 0 37.5 12.5t11.5 43.5v36q0 21 21 21h34q21 0 21 -21v-37q0 -61 -27.5 -90t-97.5 -29t-97.5 29
t-27.5 90v328q0 61 27.5 90t97.5 29t97.5 -29t27.5 -90zM117 441v-131h97v131q0 31 -11.5 43.5t-37.5 12.5t-37 -12.5t-11 -43.5z" />
    <glyph glyph-name="ecircumflex" unicode="&#xea;" 
d="M165 691l-75 -84q-12 -13 -26 -2l-11 10q-12 11 -2 25l87 123q6 10 20 10h15q13 0 20 -10l86 -123q10 -14 -2 -25l-11 -10q-14 -11 -26 2zM290 442v-172q0 -23 -23 -23h-150v-132q0 -31 11.5 -43.5t36.5 -12.5q26 0 37.5 12.5t11.5 43.5v36q0 21 21 21h34q21 0 21 -21
v-37q0 -61 -27.5 -90t-97.5 -29t-97.5 29t-27.5 90v328q0 61 27.5 90t97.5 29t97.5 -29t27.5 -90zM117 441v-131h97v131q0 31 -11.5 43.5t-37.5 12.5t-37 -12.5t-11 -43.5z" />
    <glyph glyph-name="edieresis" unicode="&#xeb;" 
d="M193 678q0 20 12 32.5t32 12.5t32.5 -12.5t12.5 -32.5t-12.5 -32.5t-32.5 -12.5t-32 12.5t-12 32.5zM49 678q0 20 12.5 32.5t32.5 12.5t32.5 -12.5t12.5 -32.5t-12.5 -32.5t-32.5 -12.5t-32.5 12.5t-12.5 32.5zM290 442v-172q0 -23 -23 -23h-150v-132q0 -31 11.5 -43.5
t36.5 -12.5q26 0 37.5 12.5t11.5 43.5v36q0 21 21 21h34q21 0 21 -21v-37q0 -61 -27.5 -90t-97.5 -29t-97.5 29t-27.5 90v328q0 61 27.5 90t97.5 29t97.5 -29t27.5 -90zM117 441v-131h97v131q0 31 -11.5 43.5t-37.5 12.5t-37 -12.5t-11 -43.5z" />
    <glyph glyph-name="igrave" unicode="&#xec;" horiz-adv-x="157" 
d="M117 535v-513q0 -22 -22 -22h-33q-22 0 -22 22v513q0 21 22 21h33q22 0 22 -21zM90 603l-114 113q-14 14 2 27l26 24q15 12 27 -2l98 -127q13 -13 -1 -26l-11 -11q-14 -11 -27 2z" />
    <glyph glyph-name="iacute" unicode="&#xed;" horiz-adv-x="157" 
d="M182 716l-113 -113q-13 -13 -27 -2l-11 11q-14 13 -1 26l98 127q12 14 27 2l26 -24q15 -13 1 -27zM117 535v-513q0 -22 -22 -22h-33q-22 0 -22 22v513q0 21 22 21h33q22 0 22 -21z" />
    <glyph glyph-name="icircumflex" unicode="&#xee;" horiz-adv-x="157" 
d="M79 691l-75 -84q-12 -13 -26 -2l-11 10q-12 11 -2 25l87 123q6 10 20 10h15q13 0 20 -10l86 -123q10 -14 -2 -25l-11 -10q-14 -11 -26 2zM117 535v-513q0 -22 -22 -22h-33q-22 0 -22 22v513q0 21 22 21h33q22 0 22 -21z" />
    <glyph glyph-name="idieresis" unicode="&#xef;" horiz-adv-x="157" 
d="M106 678q0 20 12 32.5t32 12.5t32.5 -12.5t12.5 -32.5t-12.5 -32.5t-32.5 -12.5t-32 12.5t-12 32.5zM-38 678q0 20 12.5 32.5t32.5 12.5t32.5 -12.5t12.5 -32.5t-12.5 -32.5t-32.5 -12.5t-32.5 12.5t-12.5 32.5zM117 535v-513q0 -22 -22 -22h-33q-22 0 -22 22v513
q0 21 22 21h33q22 0 22 -21z" />
    <glyph glyph-name="eth" unicode="&#xf0;" 
d="M207 529q-7 55 -30 118l-67 -29q-16 -9 -24 10l-9 18q-6 19 10 25l66 29q-19 38 -42 72q-6 10 -2.5 19t14.5 9h39q19 0 27 -14q22 -34 33 -57l65 29q16 7 25 -10l8 -18q6 -18 -10 -25l-64 -28q44 -112 44 -254v-309q0 -61 -27.5 -90t-97.5 -29t-97.5 29t-27.5 90v355
q0 46 23.5 69t58.5 23q45 0 85 -32zM214 115v320q0 60 -53 60q-25 0 -34.5 -12t-9.5 -44v-324q0 -31 11.5 -43.5t36.5 -12.5q26 0 37.5 12.5t11.5 43.5z" />
    <glyph glyph-name="ntilde" unicode="&#xf1;" 
d="M290 469v-448q0 -21 -21 -21h-34q-21 0 -21 21v418q0 31 -10 43.5t-35 12.5q-52 0 -52 -60v-414q0 -21 -22 -21h-33q-22 0 -22 21v514q0 21 22 21h33q22 0 22 -21v-13q39 39 91 39q36 0 59 -23.5t23 -68.5zM153 645l-25 28q-12 13 -25.5 8.5t-13.5 -18.5v-22
q0 -18 -18 -18h-20q-18 0 -18 18v26q0 38 26 59t61 17.5t58 -30.5l25 -29q12 -13 25.5 -8t13.5 19v22q0 18 18 18h20q18 0 18 -18v-27q0 -38 -26 -59t-60.5 -17t-58.5 31z" />
    <glyph glyph-name="ograve" unicode="&#xf2;" 
d="M165 497q-26 0 -37 -12.5t-11 -43.5v-326q0 -31 11.5 -43.5t36.5 -12.5q26 0 37.5 12.5t11.5 43.5v326q0 31 -11.5 43.5t-37.5 12.5zM165 561q70 0 97.5 -29t27.5 -90v-328q0 -61 -27.5 -90t-97.5 -29t-97.5 29t-27.5 90v328q0 61 27.5 90t97.5 29zM192 603l-114 113
q-14 14 2 27l26 24q15 12 27 -2l98 -127q13 -13 -1 -26l-11 -11q-14 -11 -27 2z" />
    <glyph glyph-name="oacute" unicode="&#xf3;" 
d="M251 716l-113 -113q-13 -13 -27 -2l-11 11q-14 13 -1 26l98 127q12 14 27 2l26 -24q15 -13 1 -27zM165 497q-26 0 -37 -12.5t-11 -43.5v-326q0 -31 11.5 -43.5t36.5 -12.5q26 0 37.5 12.5t11.5 43.5v326q0 31 -11.5 43.5t-37.5 12.5zM165 561q70 0 97.5 -29t27.5 -90
v-328q0 -61 -27.5 -90t-97.5 -29t-97.5 29t-27.5 90v328q0 61 27.5 90t97.5 29z" />
    <glyph glyph-name="ocircumflex" unicode="&#xf4;" 
d="M165 691l-75 -84q-12 -13 -26 -2l-11 10q-12 11 -2 25l87 123q6 10 20 10h15q13 0 20 -10l86 -123q10 -14 -2 -25l-11 -10q-14 -11 -26 2zM165 497q-26 0 -37 -12.5t-11 -43.5v-326q0 -31 11.5 -43.5t36.5 -12.5q26 0 37.5 12.5t11.5 43.5v326q0 31 -11.5 43.5
t-37.5 12.5zM165 561q70 0 97.5 -29t27.5 -90v-328q0 -61 -27.5 -90t-97.5 -29t-97.5 29t-27.5 90v328q0 61 27.5 90t97.5 29z" />
    <glyph glyph-name="otilde" unicode="&#xf5;" 
d="M165 497q-26 0 -37 -12.5t-11 -43.5v-326q0 -31 11.5 -43.5t36.5 -12.5q26 0 37.5 12.5t11.5 43.5v326q0 31 -11.5 43.5t-37.5 12.5zM165 561q70 0 97.5 -29t27.5 -90v-328q0 -61 -27.5 -90t-97.5 -29t-97.5 29t-27.5 90v328q0 61 27.5 90t97.5 29zM153 645l-25 28
q-12 13 -25.5 8.5t-13.5 -18.5v-22q0 -18 -18 -18h-20q-18 0 -18 18v26q0 38 26 59t61 17.5t58 -30.5l25 -29q12 -13 25.5 -8t13.5 19v22q0 18 18 18h20q18 0 18 -18v-27q0 -38 -26 -59t-60.5 -17t-58.5 31z" />
    <glyph glyph-name="odieresis" unicode="&#xf6;" 
d="M193 678q0 20 12 32.5t32 12.5t32.5 -12.5t12.5 -32.5t-12.5 -32.5t-32.5 -12.5t-32 12.5t-12 32.5zM49 678q0 20 12.5 32.5t32.5 12.5t32.5 -12.5t12.5 -32.5t-12.5 -32.5t-32.5 -12.5t-32.5 12.5t-12.5 32.5zM165 497q-26 0 -37 -12.5t-11 -43.5v-326q0 -31 11.5 -43.5
t36.5 -12.5q26 0 37.5 12.5t11.5 43.5v326q0 31 -11.5 43.5t-37.5 12.5zM165 561q70 0 97.5 -29t27.5 -90v-328q0 -61 -27.5 -90t-97.5 -29t-97.5 29t-27.5 90v328q0 61 27.5 90t97.5 29z" />
    <glyph glyph-name="divide" unicode="&#xf7;" horiz-adv-x="420" 
d="M62 398h297q21 0 21 -21v-27q0 -22 -21 -22h-297q-22 0 -22 22v27q0 21 22 21zM157 184q0 24 15 39t38 15q24 0 39 -15t15 -39q0 -23 -15 -38t-39 -15q-23 0 -38 15t-15 38zM157 542q0 24 15 39t38 15q24 0 39 -15t15 -39q0 -23 -15 -38t-39 -15q-23 0 -38 15t-15 38z
" />
    <glyph glyph-name="oslash" unicode="&#xf8;" 
d="M287 591l-19 -65q22 -26 22 -84v-328q0 -61 -27.5 -90t-97.5 -29q-31 0 -53 6l-15 -53q-8 -20 -27 -13l-14 3q-20 6 -14 27l19 66q-21 25 -21 83v328q0 61 27.5 90t97.5 29q31 0 53 -6l15 53q6 20 27 13l13 -3q21 -6 14 -27zM165 497q-26 0 -37 -12.5t-11 -43.5v-134
l-7 -125l6 -2l28 119l53 190q-9 8 -32 8zM165 59q26 0 37.5 12.5t11.5 43.5v134l6 126l-6 1l-28 -119l-53 -189q12 -9 32 -9z" />
    <glyph glyph-name="ugrave" unicode="&#xf9;" 
d="M40 87v448q0 21 22 21h33q22 0 22 -21v-417q0 -32 9.5 -44t34.5 -12q53 0 53 59v414q0 21 21 21h34q21 0 21 -21v-514q0 -21 -21 -21h-34q-21 0 -21 21v13q-41 -39 -92 -39q-36 0 -59 23.5t-23 68.5zM183 603l-114 113q-14 14 2 27l26 24q15 12 27 -2l98 -127
q13 -13 -1 -26l-11 -11q-14 -11 -27 2z" />
    <glyph glyph-name="uacute" unicode="&#xfa;" 
d="M261 716l-113 -113q-13 -13 -27 -2l-11 11q-14 13 -1 26l98 127q12 14 27 2l26 -24q15 -13 1 -27zM40 87v448q0 21 22 21h33q22 0 22 -21v-417q0 -32 9.5 -44t34.5 -12q53 0 53 59v414q0 21 21 21h34q21 0 21 -21v-514q0 -21 -21 -21h-34q-21 0 -21 21v13
q-41 -39 -92 -39q-36 0 -59 23.5t-23 68.5z" />
    <glyph glyph-name="ucircumflex" unicode="&#xfb;" 
d="M165 691l-75 -84q-12 -13 -26 -2l-11 10q-12 11 -2 25l87 123q6 10 20 10h15q13 0 20 -10l86 -123q10 -14 -2 -25l-11 -10q-14 -11 -26 2zM40 87v448q0 21 22 21h33q22 0 22 -21v-417q0 -32 9.5 -44t34.5 -12q53 0 53 59v414q0 21 21 21h34q21 0 21 -21v-514
q0 -21 -21 -21h-34q-21 0 -21 21v13q-41 -39 -92 -39q-36 0 -59 23.5t-23 68.5z" />
    <glyph glyph-name="udieresis" unicode="&#xfc;" 
d="M193 678q0 20 12 32.5t32 12.5t32.5 -12.5t12.5 -32.5t-12.5 -32.5t-32.5 -12.5t-32 12.5t-12 32.5zM49 678q0 20 12.5 32.5t32.5 12.5t32.5 -12.5t12.5 -32.5t-12.5 -32.5t-32.5 -12.5t-32.5 12.5t-12.5 32.5zM40 87v448q0 21 22 21h33q22 0 22 -21v-417q0 -32 9.5 -44
t34.5 -12q53 0 53 59v414q0 21 21 21h34q21 0 21 -21v-514q0 -21 -21 -21h-34q-21 0 -21 21v13q-41 -39 -92 -39q-36 0 -59 23.5t-23 68.5z" />
    <glyph glyph-name="yacute" unicode="&#xfd;" horiz-adv-x="287" 
d="M58 556q21 0 24 -21l40 -281l19 -175h5l19 175l39 281q3 21 25 21h32q24 0 20 -26l-108 -709q-3 -21 -24 -21h-32q-24 0 -20 26l29 174h-17q-21 0 -25 21l-78 509q-4 26 20 26h32zM245 716l-113 -113q-13 -13 -27 -2l-11 11q-14 13 -1 26l98 127q12 14 27 2l26 -24
q15 -13 1 -27z" />
    <glyph glyph-name="thorn" unicode="&#xfe;" 
d="M214 118v321q0 31 -10 43.5t-35 12.5q-52 0 -52 -60v-314q0 -59 52 -59q25 0 35 12t10 44zM40 -179v958q0 21 22 21h33q22 0 22 -21v-257q39 39 91 39q36 0 59 -23.5t23 -68.5v-382q0 -45 -23 -68.5t-59 -23.5q-52 0 -91 39v-213q0 -21 -22 -21h-33q-22 0 -22 21z" />
    <glyph glyph-name="ydieresis" unicode="&#xff;" horiz-adv-x="287" 
d="M58 556q21 0 24 -21l40 -281l19 -175h5l19 175l39 281q3 21 25 21h32q24 0 20 -26l-108 -709q-3 -21 -24 -21h-32q-24 0 -20 26l29 174h-17q-21 0 -25 21l-78 509q-4 26 20 26h32zM175 678q0 20 12 32.5t32 12.5t32.5 -12.5t12.5 -32.5t-12.5 -32.5t-32.5 -12.5t-32 12.5
t-12 32.5zM31 678q0 20 12.5 32.5t32.5 12.5t32.5 -12.5t12.5 -32.5t-12.5 -32.5t-32.5 -12.5t-32.5 12.5t-12.5 32.5z" />
    <glyph glyph-name="Amacron" unicode="&#x100;" horiz-adv-x="367" 
d="M295 0q-19 0 -21 20l-21 137h-139l-20 -137q-3 -20 -22 -20h-42q-10 0 -15.5 7t-3.5 18l104 677q3 22 24 22h90q20 0 23 -22l104 -677q3 -25 -19 -25h-42zM158 460l-35 -233h120l-34 233l-23 194h-5zM83 854h201q19 0 19 -19v-27q0 -19 -19 -19h-201q-19 0 -19 19v27
q0 19 19 19z" />
    <glyph glyph-name="amacron" unicode="&#x101;" 
d="M214 249h-49q-25 0 -36.5 -12.5t-11.5 -43.5v-75q0 -32 9.5 -44t34.5 -12q53 0 53 59v128zM165 312h49v129q0 31 -11.5 43.5t-37.5 12.5t-37 -12.5t-11 -43.5v-43q0 -21 -22 -21h-33q-22 0 -22 21v44q0 61 27.5 90t97.5 29t97 -29t28 -90v-421q0 -21 -21 -21h-34
q-21 0 -21 21v13q-41 -39 -92 -39q-36 0 -59 23.5t-23 68.5v106q0 61 27.5 90t97.5 29zM77 700h178q19 0 19 -19v-26q0 -19 -19 -19h-178q-19 0 -19 19v26q0 19 19 19z" />
    <glyph glyph-name="Abreve" unicode="&#x102;" horiz-adv-x="367" 
d="M295 0q-19 0 -21 20l-21 137h-139l-20 -137q-3 -20 -22 -20h-42q-10 0 -15.5 7t-3.5 18l104 677q3 22 24 22h90q20 0 23 -22l104 -677q3 -25 -19 -25h-42zM158 460l-35 -233h120l-34 233l-23 194h-5zM303 876q0 -54 -27 -81.5t-93 -27.5t-93 27.5t-27 81.5q0 19 19 19h17
q19 0 19 -19q0 -26 14.5 -37.5t50.5 -11.5t50.5 11.5t14.5 37.5q0 19 19 19h17q19 0 19 -19z" />
    <glyph glyph-name="abreve" unicode="&#x103;" 
d="M214 249h-49q-25 0 -36.5 -12.5t-11.5 -43.5v-75q0 -32 9.5 -44t34.5 -12q53 0 53 59v128zM165 312h49v129q0 31 -11.5 43.5t-37.5 12.5t-37 -12.5t-11 -43.5v-43q0 -21 -22 -21h-33q-22 0 -22 21v44q0 61 27.5 90t97.5 29t97 -29t28 -90v-421q0 -21 -21 -21h-34
q-21 0 -21 21v13q-41 -39 -92 -39q-36 0 -59 23.5t-23 68.5v106q0 61 27.5 90t97.5 29zM280 728q0 -61 -25 -89.5t-89 -28.5t-89 28.5t-25 89.5q0 19 19 19h16q19 0 19 -19q0 -32 13 -45.5t47 -13.5t47 13.5t13 45.5q0 19 19 19h16q19 0 19 -19z" />
    <glyph glyph-name="Aogonek" unicode="&#x104;" horiz-adv-x="367" 
d="M251 -48l32 51q-9 5 -9 17l-21 137h-139l-20 -137q-3 -20 -22 -20h-42q-10 0 -15.5 7t-3.5 18l104 677q3 22 24 22h90q20 0 23 -22l104 -677q2 -16 -7 -22l-45 -73q-18 -28 -11 -49.5t35 -21.5h28q18 0 18 -18v-23q0 -18 -18 -18h-32q-48 0 -72.5 25t-23 59.5t22.5 67.5z
M158 460l-35 -233h120l-34 233l-23 194h-5z" />
    <glyph glyph-name="aogonek" unicode="&#x105;" 
d="M185 -48l34 54q-5 5 -5 15v13q-41 -39 -92 -39q-36 0 -59 23.5t-23 68.5v106q0 61 27.5 90t97.5 29h49v129q0 31 -11.5 43.5t-37.5 12.5t-37 -12.5t-11 -43.5v-43q0 -21 -22 -21h-33q-22 0 -22 21v44q0 61 27.5 90t97.5 29t97 -29t28 -90v-421q0 -10 -5 -15l-47 -76
q-18 -28 -11 -49.5t35 -21.5h28q18 0 18 -18v-23q0 -18 -18 -18h-32q-48 0 -72.5 25t-23 59.5t22.5 67.5zM214 249h-49q-25 0 -36.5 -12.5t-11.5 -43.5v-75q0 -32 9.5 -44t34.5 -12q53 0 53 59v128z" />
    <glyph glyph-name="Cacute" unicode="&#x106;" horiz-adv-x="388" 
d="M348 582v-117q0 -22 -22 -22h-40q-22 0 -22 22v117q0 39 -15 58t-55 19t-55 -19t-15 -58v-440q0 -39 15 -58t55 -19t55 19t15 58v118q0 21 22 21h40q22 0 22 -21v-118q0 -75 -34 -111t-120 -36t-120 36t-34 111v440q0 75 34 111t120 36t120 -36t34 -111zM293 834
l-154 -72q-16 -7 -25 7l-8 15q-8 16 8 25l144 90q17 9 26 -8l17 -31q10 -18 -8 -26z" />
    <glyph glyph-name="cacute" unicode="&#x107;" 
d="M251 716l-113 -113q-13 -13 -27 -2l-11 11q-14 13 -1 26l98 127q12 14 27 2l26 -24q15 -13 1 -27zM290 442v-79q0 -21 -21 -21h-34q-21 0 -21 21v78q0 31 -11.5 43.5t-37.5 12.5t-37 -12.5t-11 -43.5v-326q0 -31 11.5 -43.5t36.5 -12.5q26 0 37.5 12.5t11.5 43.5v78
q0 22 21 22h34q21 0 21 -22v-79q0 -61 -27.5 -90t-97.5 -29t-97.5 29t-27.5 90v328q0 61 27.5 90t97.5 29t97.5 -29t27.5 -90z" />
    <glyph glyph-name="Ccircumflex" unicode="&#x108;" horiz-adv-x="388" 
d="M348 582v-117q0 -22 -22 -22h-40q-22 0 -22 22v117q0 39 -15 58t-55 19t-55 -19t-15 -58v-440q0 -39 15 -58t55 -19t55 19t15 58v118q0 21 22 21h40q22 0 22 -21v-118q0 -75 -34 -111t-120 -36t-120 36t-34 111v440q0 75 34 111t120 36t120 -36t34 -111zM194 823
l-108 -60q-18 -8 -27 6l-8 13q-9 14 6 26l111 86q7 6 16 6h21q8 0 15 -6l112 -86q14 -10 6 -26l-8 -13q-10 -14 -27 -5z" />
    <glyph glyph-name="ccircumflex" unicode="&#x109;" 
d="M165 691l-75 -84q-12 -13 -26 -2l-11 10q-12 11 -2 25l87 123q6 10 20 10h15q13 0 20 -10l86 -123q10 -14 -2 -25l-11 -10q-14 -11 -26 2zM290 442v-79q0 -21 -21 -21h-34q-21 0 -21 21v78q0 31 -11.5 43.5t-37.5 12.5t-37 -12.5t-11 -43.5v-326q0 -31 11.5 -43.5
t36.5 -12.5q26 0 37.5 12.5t11.5 43.5v78q0 22 21 22h34q21 0 21 -22v-79q0 -61 -27.5 -90t-97.5 -29t-97.5 29t-27.5 90v328q0 61 27.5 90t97.5 29t97.5 -29t27.5 -90z" />
    <glyph glyph-name="Cdotaccent" unicode="&#x10a;" horiz-adv-x="388" 
d="M144 825q0 22 14 36t36 14t36 -14t14 -36t-14 -36t-36 -14t-36 14t-14 36zM348 582v-117q0 -22 -22 -22h-40q-22 0 -22 22v117q0 39 -15 58t-55 19t-55 -19t-15 -58v-440q0 -39 15 -58t55 -19t55 19t15 58v118q0 21 22 21h40q22 0 22 -21v-118q0 -75 -34 -111t-120 -36
t-120 36t-34 111v440q0 75 34 111t120 36t120 -36t34 -111z" />
    <glyph glyph-name="cdotaccent" unicode="&#x10b;" 
d="M290 442v-79q0 -21 -21 -21h-34q-21 0 -21 21v78q0 31 -11.5 43.5t-37.5 12.5t-37 -12.5t-11 -43.5v-326q0 -31 11.5 -43.5t36.5 -12.5q26 0 37.5 12.5t11.5 43.5v78q0 22 21 22h34q21 0 21 -22v-79q0 -61 -27.5 -90t-97.5 -29t-97.5 29t-27.5 90v328q0 61 27.5 90
t97.5 29t97.5 -29t27.5 -90zM116 679q0 22 13.5 35.5t34.5 13.5q22 0 35.5 -13.5t13.5 -35.5q0 -21 -13.5 -34.5t-35.5 -13.5q-21 0 -34.5 13.5t-13.5 34.5z" />
    <glyph glyph-name="Ccaron" unicode="&#x10c;" horiz-adv-x="388" 
d="M348 582v-117q0 -22 -22 -22h-40q-22 0 -22 22v117q0 39 -15 58t-55 19t-55 -19t-15 -58v-440q0 -39 15 -58t55 -19t55 19t15 58v118q0 21 22 21h40q22 0 22 -21v-118q0 -75 -34 -111t-120 -36t-120 36t-34 111v440q0 75 34 111t120 36t120 -36t34 -111zM194 837l109 60
q17 9 27 -5l8 -13q8 -16 -6 -26l-112 -87q-8 -6 -15 -6h-21q-7 0 -16 6l-111 86q-15 12 -6 26l8 13q9 16 27 6z" />
    <glyph glyph-name="ccaron" unicode="&#x10d;" 
d="M165 681l75 83q12 15 26 3l11 -10q12 -11 2 -25l-86 -124q-8 -10 -20 -10h-15q-13 0 -20 10l-87 124q-10 14 2 25l11 10q14 12 26 -3zM290 442v-79q0 -21 -21 -21h-34q-21 0 -21 21v78q0 31 -11.5 43.5t-37.5 12.5t-37 -12.5t-11 -43.5v-326q0 -31 11.5 -43.5t36.5 -12.5
q26 0 37.5 12.5t11.5 43.5v78q0 22 21 22h34q21 0 21 -22v-79q0 -61 -27.5 -90t-97.5 -29t-97.5 29t-27.5 90v328q0 61 27.5 90t97.5 29t97.5 -29t27.5 -90z" />
    <glyph glyph-name="Dcaron" unicode="&#x10e;" horiz-adv-x="380" 
d="M175 836l109 60q17 9 27 -5l8 -13q8 -16 -6 -26l-112 -87q-7 -6 -15 -6h-21q-7 0 -16 6l-111 86q-15 12 -6 26l8 13q9 16 27 6zM174 0h-112q-22 0 -22 22v681q0 21 22 21h112q94 0 130 -39t36 -121v-403q0 -83 -36 -122t-130 -39zM124 70h50q48 0 65.5 22.5t17.5 68.5
v403q0 46 -17.5 68t-65.5 22h-50v-584z" />
    <glyph glyph-name="dcaron" unicode="&#x10f;" horiz-adv-x="397" 
d="M407 779l-33 -145q-3 -19 -20 -19h-16q-19 0 -17 19l9 147q1 19 21 19h40q22 0 16 -21zM117 439v-321q0 -32 9.5 -44t34.5 -12q53 0 53 59v314q0 60 -53 60q-25 0 -34.5 -12t-9.5 -44zM290 779v-758q0 -21 -21 -21h-34q-21 0 -21 21v13q-41 -39 -92 -39q-36 0 -59 23.5
t-23 68.5v382q0 45 23 68.5t59 23.5q51 0 92 -39v257q0 21 21 21h34q21 0 21 -21z" />
    <glyph glyph-name="Dcroat" unicode="&#x110;" horiz-adv-x="380" 
d="M174 0h-112q-22 0 -22 22v307h-38q-20 0 -20 19v28q0 19 20 19h38v308q0 21 22 21h112q94 0 130 -39t36 -121v-403q0 -83 -36 -122t-130 -39zM124 70h50q48 0 65.5 22.5t17.5 68.5v403q0 46 -17.5 68t-65.5 22h-50v-259h55q19 0 19 -19v-28q0 -19 -19 -19h-55v-259z" />
    <glyph glyph-name="dcroat" unicode="&#x111;" 
d="M290 779v-89h38q19 0 19 -19v-26q0 -19 -19 -19h-38v-605q0 -21 -21 -21h-34q-21 0 -21 21v13q-41 -39 -92 -39q-36 0 -59 23.5t-23 68.5v382q0 45 23 68.5t59 23.5q51 0 92 -39v104h-64q-19 0 -19 19v26q0 19 19 19h64v89q0 21 21 21h34q21 0 21 -21zM117 439v-321
q0 -32 9.5 -44t34.5 -12q53 0 53 59v314q0 60 -53 60q-25 0 -34.5 -12t-9.5 -44z" />
    <glyph glyph-name="Emacron" unicode="&#x112;" horiz-adv-x="320" 
d="M74 854h201q19 0 19 -19v-27q0 -19 -19 -19h-201q-19 0 -19 19v27q0 19 19 19zM62 724h226q22 0 22 -21v-27q0 -22 -22 -22h-164v-257h126q22 0 22 -21v-27q0 -22 -22 -22h-126v-257h164q22 0 22 -21v-27q0 -22 -22 -22h-226q-22 0 -22 22v681q0 21 22 21z" />
    <glyph glyph-name="emacron" unicode="&#x113;" 
d="M290 442v-172q0 -23 -23 -23h-150v-132q0 -31 11.5 -43.5t36.5 -12.5q26 0 37.5 12.5t11.5 43.5v36q0 21 21 21h34q21 0 21 -21v-37q0 -61 -27.5 -90t-97.5 -29t-97.5 29t-27.5 90v328q0 61 27.5 90t97.5 29t97.5 -29t27.5 -90zM117 441v-131h97v131q0 31 -11.5 43.5
t-37.5 12.5t-37 -12.5t-11 -43.5zM77 700h178q19 0 19 -19v-26q0 -19 -19 -19h-178q-19 0 -19 19v26q0 19 19 19z" />
    <glyph glyph-name="Ebreve" unicode="&#x114;" horiz-adv-x="320" 
d="M294 876q0 -54 -27 -81.5t-93 -27.5t-93 27.5t-27 81.5q0 19 19 19h17q19 0 19 -19q0 -26 14.5 -37.5t50.5 -11.5t50.5 11.5t14.5 37.5q0 19 19 19h17q19 0 19 -19zM62 724h226q22 0 22 -21v-27q0 -22 -22 -22h-164v-257h126q22 0 22 -21v-27q0 -22 -22 -22h-126v-257
h164q22 0 22 -21v-27q0 -22 -22 -22h-226q-22 0 -22 22v681q0 21 22 21z" />
    <glyph glyph-name="ebreve" unicode="&#x115;" 
d="M290 442v-172q0 -23 -23 -23h-150v-132q0 -31 11.5 -43.5t36.5 -12.5q26 0 37.5 12.5t11.5 43.5v36q0 21 21 21h34q21 0 21 -21v-37q0 -61 -27.5 -90t-97.5 -29t-97.5 29t-27.5 90v328q0 61 27.5 90t97.5 29t97.5 -29t27.5 -90zM117 441v-131h97v131q0 31 -11.5 43.5
t-37.5 12.5t-37 -12.5t-11 -43.5zM280 728q0 -61 -25 -89.5t-89 -28.5t-89 28.5t-25 89.5q0 19 19 19h16q19 0 19 -19q0 -32 13 -45.5t47 -13.5t47 13.5t13 45.5q0 19 19 19h16q19 0 19 -19z" />
    <glyph glyph-name="Edotaccent" unicode="&#x116;" horiz-adv-x="320" 
d="M123 825q0 22 14 36t36 14t36 -14t14 -36t-14 -36t-36 -14t-36 14t-14 36zM62 724h226q22 0 22 -21v-27q0 -22 -22 -22h-164v-257h126q22 0 22 -21v-27q0 -22 -22 -22h-126v-257h164q22 0 22 -21v-27q0 -22 -22 -22h-226q-22 0 -22 22v681q0 21 22 21z" />
    <glyph glyph-name="edotaccent" unicode="&#x117;" 
d="M290 442v-172q0 -23 -23 -23h-150v-132q0 -31 11.5 -43.5t36.5 -12.5q26 0 37.5 12.5t11.5 43.5v36q0 21 21 21h34q21 0 21 -21v-37q0 -61 -27.5 -90t-97.5 -29t-97.5 29t-27.5 90v328q0 61 27.5 90t97.5 29t97.5 -29t27.5 -90zM117 441v-131h97v131q0 31 -11.5 43.5
t-37.5 12.5t-37 -12.5t-11 -43.5zM116 679q0 22 13.5 35.5t34.5 13.5q22 0 35.5 -13.5t13.5 -35.5q0 -21 -13.5 -34.5t-35.5 -13.5q-21 0 -34.5 13.5t-13.5 34.5z" />
    <glyph glyph-name="Eogonek" unicode="&#x118;" horiz-adv-x="320" 
d="M62 724h226q22 0 22 -21v-27q0 -22 -22 -22h-164v-257h126q22 0 22 -21v-27q0 -22 -22 -22h-126v-257h164q22 0 22 -21v-27q0 -22 -22 -22h-3l-43 -70q-18 -28 -11 -49.5t35 -21.5h28q18 0 18 -18v-23q0 -18 -18 -18h-32q-48 0 -72.5 25t-23 59.5t22.5 67.5l30 48h-157
q-22 0 -22 22v681q0 21 22 21z" />
    <glyph glyph-name="eogonek" unicode="&#x119;" 
d="M290 442v-172q0 -23 -23 -23h-150v-132q0 -31 11.5 -43.5t36.5 -12.5q26 0 37.5 12.5t11.5 43.5v36q0 21 21 21h34q21 0 21 -21v-37q0 -50 -17 -77l-67 -107q-18 -28 -10.5 -49.5t34.5 -21.5h28q18 0 18 -18v-23q0 -18 -18 -18h-32q-48 0 -72.5 25.5t-23 60t23.5 66.5
l29 44q-6 -1 -18 -1q-70 0 -97.5 29t-27.5 90v328q0 61 27.5 90t97.5 29t97.5 -29t27.5 -90zM117 441v-131h97v131q0 31 -11.5 43.5t-37.5 12.5t-37 -12.5t-11 -43.5z" />
    <glyph glyph-name="Ecaron" unicode="&#x11a;" horiz-adv-x="320" 
d="M174 836l109 60q17 9 27 -5l8 -13q8 -16 -6 -26l-112 -87q-8 -6 -15 -6h-21q-7 0 -16 6l-111 86q-15 12 -6 26l8 13q9 16 27 6zM62 724h226q22 0 22 -21v-27q0 -22 -22 -22h-164v-257h126q22 0 22 -21v-27q0 -22 -22 -22h-126v-257h164q22 0 22 -21v-27q0 -22 -22 -22
h-226q-22 0 -22 22v681q0 21 22 21z" />
    <glyph glyph-name="ecaron" unicode="&#x11b;" 
d="M165 681l75 83q12 15 26 3l11 -10q12 -11 2 -25l-86 -124q-8 -10 -20 -10h-15q-13 0 -20 10l-87 124q-10 14 2 25l11 10q14 12 26 -3zM290 442v-172q0 -23 -23 -23h-150v-132q0 -31 11.5 -43.5t36.5 -12.5q26 0 37.5 12.5t11.5 43.5v36q0 21 21 21h34q21 0 21 -21v-37
q0 -61 -27.5 -90t-97.5 -29t-97.5 29t-27.5 90v328q0 61 27.5 90t97.5 29t97.5 -29t27.5 -90zM117 441v-131h97v131q0 31 -11.5 43.5t-37.5 12.5t-37 -12.5t-11 -43.5z" />
    <glyph glyph-name="Gcircumflex" unicode="&#x11c;" horiz-adv-x="388" 
d="M210 368h116q22 0 22 -22v-204q0 -75 -34 -111t-120 -36t-120 36t-34 111v440q0 75 34 111t120 36t120 -36t34 -111v-77q0 -22 -22 -22h-40q-22 0 -22 22v77q0 39 -15 58t-55 19t-55 -19t-15 -58v-440q0 -39 15 -58t55 -19t55 19t15 58v156h-54q-21 0 -21 21v27
q0 22 21 22zM194 823l-108 -60q-18 -8 -27 6l-8 13q-9 14 6 26l111 86q7 6 16 6h21q8 0 15 -6l112 -86q14 -10 6 -26l-8 -13q-10 -14 -27 -5z" />
    <glyph glyph-name="gcircumflex" unicode="&#x11d;" 
d="M165 691l-75 -84q-12 -13 -26 -2l-11 10q-12 11 -2 25l87 123q6 10 20 10h15q13 0 20 -10l86 -123q10 -14 -2 -25l-11 -10q-14 -11 -26 2zM290 535v-606q0 -66 -30 -97.5t-105 -31.5h-49q-22 0 -22 21v21q0 22 22 22h49q34 0 46.5 16t12.5 50v104q-41 -39 -92 -39
q-36 0 -59 23.5t-23 68.5v382q0 45 23 68.5t59 23.5q51 0 92 -39v13q0 21 21 21h34q21 0 21 -21zM117 439v-321q0 -32 9.5 -44t34.5 -12q53 0 53 59v314q0 60 -53 60q-25 0 -34.5 -12t-9.5 -44z" />
    <glyph glyph-name="Gbreve" unicode="&#x11e;" horiz-adv-x="388" 
d="M313 876q0 -54 -27 -81.5t-93 -27.5t-93 27.5t-27 81.5q0 19 19 19h17q19 0 19 -19q0 -26 14.5 -37.5t50.5 -11.5t50.5 11.5t14.5 37.5q0 19 19 19h17q19 0 19 -19zM210 368h116q22 0 22 -22v-204q0 -75 -34 -111t-120 -36t-120 36t-34 111v440q0 75 34 111t120 36
t120 -36t34 -111v-77q0 -22 -22 -22h-40q-22 0 -22 22v77q0 39 -15 58t-55 19t-55 -19t-15 -58v-440q0 -39 15 -58t55 -19t55 19t15 58v156h-54q-21 0 -21 21v27q0 22 21 22z" />
    <glyph glyph-name="gbreve" unicode="&#x11f;" 
d="M290 535v-606q0 -66 -30 -97.5t-105 -31.5h-49q-22 0 -22 21v21q0 22 22 22h49q34 0 46.5 16t12.5 50v104q-41 -39 -92 -39q-36 0 -59 23.5t-23 68.5v382q0 45 23 68.5t59 23.5q51 0 92 -39v13q0 21 21 21h34q21 0 21 -21zM117 439v-321q0 -32 9.5 -44t34.5 -12
q53 0 53 59v314q0 60 -53 60q-25 0 -34.5 -12t-9.5 -44zM280 728q0 -61 -25 -89.5t-89 -28.5t-89 28.5t-25 89.5q0 19 19 19h16q19 0 19 -19q0 -32 13 -45.5t47 -13.5t47 13.5t13 45.5q0 19 19 19h16q19 0 19 -19z" />
    <glyph glyph-name="Gdotaccent" unicode="&#x120;" horiz-adv-x="388" 
d="M144 825q0 22 14 36t36 14t36 -14t14 -36t-14 -36t-36 -14t-36 14t-14 36zM210 368h116q22 0 22 -22v-204q0 -75 -34 -111t-120 -36t-120 36t-34 111v440q0 75 34 111t120 36t120 -36t34 -111v-77q0 -22 -22 -22h-40q-22 0 -22 22v77q0 39 -15 58t-55 19t-55 -19t-15 -58
v-440q0 -39 15 -58t55 -19t55 19t15 58v156h-54q-21 0 -21 21v27q0 22 21 22z" />
    <glyph glyph-name="gdotaccent" unicode="&#x121;" 
d="M290 535v-606q0 -66 -30 -97.5t-105 -31.5h-49q-22 0 -22 21v21q0 22 22 22h49q34 0 46.5 16t12.5 50v104q-41 -39 -92 -39q-36 0 -59 23.5t-23 68.5v382q0 45 23 68.5t59 23.5q51 0 92 -39v13q0 21 21 21h34q21 0 21 -21zM117 439v-321q0 -32 9.5 -44t34.5 -12
q53 0 53 59v314q0 60 -53 60q-25 0 -34.5 -12t-9.5 -44zM116 679q0 22 13.5 35.5t34.5 13.5q22 0 35.5 -13.5t13.5 -35.5q0 -21 -13.5 -34.5t-35.5 -13.5q-21 0 -34.5 13.5t-13.5 34.5z" />
    <glyph glyph-name="Gcommaaccent" unicode="&#x122;" horiz-adv-x="388" 
d="M232 -84l-26 -97q-6 -19 -20 -19h-16q-18 0 -17 19l4 102q0 19 20 19h39q23 0 16 -24zM210 368h116q22 0 22 -22v-204q0 -75 -34 -111t-120 -36t-120 36t-34 111v440q0 75 34 111t120 36t120 -36t34 -111v-77q0 -22 -22 -22h-40q-22 0 -22 22v77q0 39 -15 58t-55 19
t-55 -19t-15 -58v-440q0 -39 15 -58t55 -19t55 19t15 58v156h-54q-21 0 -21 21v27q0 22 21 22z" />
    <glyph glyph-name="gcommaaccent" unicode="&#x123;" 
d="M126 649l26 97q6 19 20 19h16q18 0 17 -19l-4 -102q0 -19 -20 -19h-39q-23 0 -16 24zM290 535v-606q0 -66 -30 -97.5t-105 -31.5h-49q-22 0 -22 21v21q0 22 22 22h49q34 0 46.5 16t12.5 50v104q-41 -39 -92 -39q-36 0 -59 23.5t-23 68.5v382q0 45 23 68.5t59 23.5
q51 0 92 -39v13q0 21 21 21h34q21 0 21 -21zM117 439v-321q0 -32 9.5 -44t34.5 -12q53 0 53 59v314q0 60 -53 60q-25 0 -34.5 -12t-9.5 -44z" />
    <glyph glyph-name="Hcircumflex" unicode="&#x124;" horiz-adv-x="388" 
d="M124 703v-306h140v306q0 21 22 21h40q22 0 22 -21v-681q0 -22 -22 -22h-40q-22 0 -22 22v305h-140v-305q0 -22 -22 -22h-40q-22 0 -22 22v681q0 21 22 21h40q22 0 22 -21zM195 823l-108 -60q-18 -8 -27 6l-8 13q-9 14 6 26l111 86q7 6 16 6h21q8 0 15 -6l112 -86
q14 -10 6 -26l-8 -13q-10 -14 -27 -5z" />
    <glyph glyph-name="hcircumflex" unicode="&#x125;" 
d="M290 469v-448q0 -21 -21 -21h-34q-21 0 -21 21v418q0 31 -10 43.5t-35 12.5q-52 0 -52 -60v-414q0 -21 -22 -21h-33q-22 0 -22 21v758q0 21 22 21h33q22 0 22 -21v-257q39 39 91 39q36 0 59 -23.5t23 -68.5zM78 853l-108 -60q-18 -8 -27 6l-8 13q-9 14 6 26l111 86
q7 6 16 6h21q8 0 15 -6l112 -86q14 -10 6 -26l-8 -13q-10 -14 -27 -5z" />
    <glyph glyph-name="Hbar" unicode="&#x126;" horiz-adv-x="388" 
d="M124 703v-113h140v113q0 21 22 21h40q22 0 22 -21v-113h21q19 0 19 -19v-27q0 -19 -19 -19h-21v-503q0 -22 -22 -22h-40q-22 0 -22 22v305h-140v-305q0 -22 -22 -22h-40q-22 0 -22 22v503h-21q-19 0 -19 19v27q0 19 19 19h21v113q0 21 22 21h40q22 0 22 -21zM124 397h140
v128h-140v-128z" />
    <glyph glyph-name="hbar" unicode="&#x127;" 
d="M2 690h38v89q0 21 22 21h33q22 0 22 -21v-89h63q19 0 19 -19v-26q0 -19 -19 -19h-63v-104q39 39 91 39q36 0 59 -23.5t23 -68.5v-448q0 -21 -21 -21h-34q-21 0 -21 21v418q0 31 -10 43.5t-35 12.5q-52 0 -52 -60v-414q0 -21 -22 -21h-33q-22 0 -22 21v605h-38
q-19 0 -19 19v26q0 19 19 19z" />
    <glyph glyph-name="Itilde" unicode="&#x128;" horiz-adv-x="164" 
d="M124 703v-681q0 -22 -22 -22h-40q-22 0 -22 22v681q0 21 22 21h40q22 0 22 -21zM80 781l-42 36q-11 10 -24 5t-13 -22v-15q0 -18 -18 -18h-20q-18 0 -18 18v17q0 41 25 63.5t58 21t57 -23.5l42 -35q12 -11 24.5 -6t12.5 23v15q0 18 18 18h20q18 0 18 -18v-17
q0 -41 -25 -63.5t-57.5 -21.5t-57.5 23z" />
    <glyph glyph-name="itilde" unicode="&#x129;" horiz-adv-x="157" 
d="M117 535v-513q0 -22 -22 -22h-33q-22 0 -22 22v513q0 21 22 21h33q22 0 22 -21zM65 645l-25 28q-12 13 -25.5 8.5t-13.5 -18.5v-22q0 -18 -18 -18h-20q-18 0 -18 18v26q0 38 26 59t61 17.5t58 -30.5l25 -29q12 -13 25.5 -8t13.5 19v22q0 18 18 18h20q18 0 18 -18v-27
q0 -38 -26 -59t-60.5 -17t-58.5 31z" />
    <glyph glyph-name="Imacron" unicode="&#x12a;" horiz-adv-x="164" 
d="M124 703v-681q0 -22 -22 -22h-40q-22 0 -22 22v681q0 21 22 21h40q22 0 22 -21zM-18 854h201q19 0 19 -19v-27q0 -19 -19 -19h-201q-19 0 -19 19v27q0 19 19 19z" />
    <glyph glyph-name="imacron" unicode="&#x12b;" horiz-adv-x="157" 
d="M117 535v-513q0 -22 -22 -22h-33q-22 0 -22 22v513q0 21 22 21h33q22 0 22 -21zM-10 700h178q19 0 19 -19v-26q0 -19 -19 -19h-178q-19 0 -19 19v26q0 19 19 19z" />
    <glyph glyph-name="Ibreve" unicode="&#x12c;" horiz-adv-x="164" 
d="M124 703v-681q0 -22 -22 -22h-40q-22 0 -22 22v681q0 21 22 21h40q22 0 22 -21zM202 876q0 -54 -27 -81.5t-93 -27.5t-93 27.5t-27 81.5q0 19 19 19h17q19 0 19 -19q0 -26 14.5 -37.5t50.5 -11.5t50.5 11.5t14.5 37.5q0 19 19 19h17q19 0 19 -19z" />
    <glyph glyph-name="ibreve" unicode="&#x12d;" horiz-adv-x="157" 
d="M117 535v-513q0 -22 -22 -22h-33q-22 0 -22 22v513q0 21 22 21h33q22 0 22 -21zM193 728q0 -61 -25 -89.5t-89 -28.5t-89 28.5t-25 89.5q0 19 19 19h16q19 0 19 -19q0 -32 13 -45.5t47 -13.5t47 13.5t13 45.5q0 19 19 19h16q19 0 19 -19z" />
    <glyph glyph-name="Iogonek" unicode="&#x12e;" horiz-adv-x="164" 
d="M19 -48l32 50q-11 5 -11 20v681q0 21 22 21h40q22 0 22 -21v-681q0 -8 -3 -13l-49 -79q-18 -28 -11 -49.5t35 -21.5h28q18 0 18 -18v-23q0 -18 -18 -18h-32q-48 0 -72.5 25t-23 59.5t22.5 67.5z" />
    <glyph glyph-name="iogonek" unicode="&#x12f;" horiz-adv-x="157" 
d="M12 -48l34 53q-6 6 -6 17v513q0 21 22 21h33q22 0 22 -21v-513q0 -8 -3 -13l-49 -79q-18 -28 -11 -49.5t35 -21.5h28q18 0 18 -18v-23q0 -18 -18 -18h-32q-48 0 -72.5 25t-23 59.5t22.5 67.5zM30 679q0 22 13.5 35.5t34.5 13.5q22 0 35.5 -13.5t13.5 -35.5
q0 -21 -13.5 -34.5t-35.5 -13.5q-21 0 -34.5 13.5t-13.5 34.5z" />
    <glyph glyph-name="Idotaccent" unicode="&#x130;" horiz-adv-x="164" 
d="M124 703v-681q0 -22 -22 -22h-40q-22 0 -22 22v681q0 21 22 21h40q22 0 22 -21zM32 825q0 22 14 36t36 14t36 -14t14 -36t-14 -36t-36 -14t-36 14t-14 36z" />
    <glyph glyph-name="dotlessi" unicode="&#x131;" horiz-adv-x="157" 
d="M117 535v-513q0 -22 -22 -22h-33q-22 0 -22 22v513q0 21 22 21h33q22 0 22 -21z" />
    <glyph glyph-name="IJ" unicode="&#x132;" horiz-adv-x="531" 
d="M124 703v-681q0 -22 -22 -22h-40q-22 0 -22 22v681q0 21 22 21h40q22 0 22 -21zM491 703v-561q0 -75 -34 -111t-120 -36t-120 36t-34 111v83q0 21 22 21h40q22 0 22 -21v-83q0 -39 15 -58t55 -19t55 19t15 58v561q0 21 22 21h40q22 0 22 -21z" />
    <glyph glyph-name="ij" unicode="&#x133;" horiz-adv-x="313" 
d="M117 535v-513q0 -22 -22 -22h-33q-22 0 -22 22v513q0 21 22 21h33q22 0 22 -21zM30 679q0 22 13.5 35.5t34.5 13.5q22 0 35.5 -13.5t13.5 -35.5q0 -21 -13.5 -34.5t-35.5 -13.5q-21 0 -34.5 13.5t-13.5 34.5zM196 -70v605q0 21 22 21h33q22 0 22 -21v-606
q0 -66 -30 -97.5t-106 -31.5h-15q-21 0 -21 21v21q0 22 21 22h15q34 0 46.5 16t12.5 50zM186 679q0 22 13.5 35.5t34.5 13.5q22 0 35.5 -13.5t13.5 -35.5q0 -21 -13.5 -34.5t-35.5 -13.5q-21 0 -34.5 13.5t-13.5 34.5z" />
    <glyph glyph-name="Jcircumflex" unicode="&#x134;" horiz-adv-x="373" 
d="M333 703v-561q0 -75 -34 -111t-120 -36t-120 36t-34 111v83q0 21 22 21h40q22 0 22 -21v-83q0 -39 15 -58t55 -19t55 19t15 58v561q0 21 22 21h40q22 0 22 -21zM290 823l-108 -60q-18 -8 -27 6l-8 13q-9 14 6 26l111 86q7 6 16 6h21q8 0 15 -6l112 -86q14 -10 6 -26
l-8 -13q-10 -14 -27 -5z" />
    <glyph glyph-name="jcircumflex" unicode="&#x135;" horiz-adv-x="157" 
d="M40 -70v605q0 21 22 21h33q22 0 22 -21v-606q0 -66 -30 -97.5t-106 -31.5h-15q-21 0 -21 21v21q0 22 21 22h15q34 0 46.5 16t12.5 50zM79 691l-75 -84q-12 -13 -26 -2l-11 10q-12 11 -2 25l87 123q6 10 20 10h15q13 0 20 -10l86 -123q10 -14 -2 -25l-11 -10
q-14 -11 -26 2z" />
    <glyph glyph-name="Kcommaaccent" unicode="&#x136;" horiz-adv-x="367" 
d="M222 -84l-26 -97q-6 -19 -20 -19h-16q-18 0 -17 19l4 102q0 19 20 19h39q23 0 16 -24zM124 703v-298h5l145 305q7 14 22 14h46q12 0 16.5 -10t-0.5 -18l-160 -334l160 -334q5 -8 0.5 -18t-16.5 -10h-46q-15 0 -22 14l-145 305h-5v-297q0 -22 -22 -22h-40q-22 0 -22 22
v681q0 21 22 21h40q22 0 22 -21z" />
    <glyph glyph-name="kcommaaccent" unicode="&#x137;" horiz-adv-x="318" 
d="M204 -84l-26 -97q-6 -19 -20 -19h-16q-18 0 -17 19l4 102q0 19 20 19h39q23 0 16 -24zM117 779v-464h5l113 228q7 13 21 13h39q12 0 16.5 -10t-0.5 -19l-124 -248l124 -250q5 -9 0.5 -19t-16.5 -10h-39q-15 0 -21 14l-113 228h-5v-220q0 -22 -22 -22h-33q-22 0 -22 22
v757q0 21 22 21h33q22 0 22 -21z" />
    <glyph glyph-name="kgreenlandic" unicode="&#x138;" horiz-adv-x="318" 
d="M117 535v-220h5l113 228q7 13 21 13h39q12 0 16.5 -10t-0.5 -19l-124 -248l124 -250q5 -9 0.5 -19t-16.5 -10h-39q-15 0 -21 14l-113 228h-5v-220q0 -22 -22 -22h-33q-22 0 -22 22v513q0 21 22 21h33q22 0 22 -21z" />
    <glyph glyph-name="Lacute" unicode="&#x139;" horiz-adv-x="315" 
d="M215 834l-154 -72q-16 -7 -25 7l-8 15q-8 16 8 25l144 90q17 9 26 -8l17 -31q10 -18 -8 -26zM124 703v-633h164q22 0 22 -21v-27q0 -22 -22 -22h-226q-22 0 -22 22v681q0 21 22 21h40q22 0 22 -21z" />
    <glyph glyph-name="lacute" unicode="&#x13a;" horiz-adv-x="157" 
d="M209 900l-154 -72q-16 -7 -25 7l-8 15q-8 16 8 25l144 90q17 9 26 -8l17 -31q10 -18 -8 -26zM117 779v-757q0 -22 -22 -22h-33q-22 0 -22 22v757q0 21 22 21h33q22 0 22 -21z" />
    <glyph glyph-name="Lcommaaccent" unicode="&#x13b;" horiz-adv-x="315" 
d="M196 -84l-26 -97q-6 -19 -20 -19h-16q-18 0 -17 19l4 102q0 19 20 19h39q23 0 16 -24zM124 703v-633h164q22 0 22 -21v-27q0 -22 -22 -22h-226q-22 0 -22 22v681q0 21 22 21h40q22 0 22 -21z" />
    <glyph glyph-name="lcommaaccent" unicode="&#x13c;" horiz-adv-x="157" 
d="M117 -84l-26 -97q-6 -19 -20 -19h-16q-18 0 -17 19l4 102q0 19 20 19h39q23 0 16 -24zM117 779v-757q0 -22 -22 -22h-33q-22 0 -22 22v757q0 21 22 21h33q22 0 22 -21z" />
    <glyph glyph-name="Lcaron" unicode="&#x13d;" horiz-adv-x="315" 
d="M258 703l-33 -145q-3 -19 -20 -19h-16q-19 0 -17 19l9 147q1 19 21 19h40q22 0 16 -21zM124 703v-633h164q22 0 22 -21v-27q0 -22 -22 -22h-226q-22 0 -22 22v681q0 21 22 21h40q22 0 22 -21z" />
    <glyph glyph-name="lcaron" unicode="&#x13e;" horiz-adv-x="223" 
d="M233 779l-33 -145q-3 -19 -20 -19h-16q-19 0 -17 19l9 147q1 19 21 19h40q22 0 16 -21zM117 779v-757q0 -22 -22 -22h-33q-22 0 -22 22v757q0 21 22 21h33q22 0 22 -21z" />
    <glyph glyph-name="Ldot" unicode="&#x13f;" horiz-adv-x="315" 
d="M188 363q0 22 14 36t36 14t36 -14t14 -36t-14 -36t-36 -14t-36 14t-14 36zM124 703v-633h164q22 0 22 -21v-27q0 -22 -22 -22h-226q-22 0 -22 22v681q0 21 22 21h40q22 0 22 -21z" />
    <glyph glyph-name="ldot" unicode="&#x140;" horiz-adv-x="234" 
d="M117 779v-757q0 -22 -22 -22h-33q-22 0 -22 22v757q0 21 22 21h33q22 0 22 -21zM148 400q0 22 13.5 35.5t34.5 13.5q22 0 35.5 -13.5t13.5 -35.5q0 -21 -13.5 -34.5t-35.5 -13.5q-21 0 -34.5 13.5t-13.5 34.5z" />
    <glyph glyph-name="Lslash" unicode="&#x141;" horiz-adv-x="353" 
d="M162 703v-307l96 56q6 4 13 1.5t7 -11.5v-46q0 -14 -10 -19l-106 -62v-245h164q22 0 22 -21v-27q0 -22 -22 -22h-226q-22 0 -22 22v244l-58 -33q-6 -4 -13 -1.5t-7 11.5v46q0 13 9 19l69 40v355q0 21 22 21h40q22 0 22 -21z" />
    <glyph glyph-name="lslash" unicode="&#x142;" horiz-adv-x="237" 
d="M157 779v-316l60 35q6 4 13 1t7 -11v-47q0 -13 -10 -18l-70 -41v-360q0 -22 -22 -22h-33q-22 0 -22 22v315l-60 -35q-6 -4 -13 -1.5t-7 11.5v46q0 14 9 19l71 41v361q0 21 22 21h33q22 0 22 -21z" />
    <glyph glyph-name="Nacute" unicode="&#x143;" horiz-adv-x="390" 
d="M290 834l-154 -72q-16 -7 -25 7l-8 15q-8 16 8 25l144 90q17 9 26 -8l17 -31q10 -18 -8 -26zM269 335v368q0 21 22 21h38q21 0 21 -21v-681q0 -22 -21 -22h-53q-17 0 -23 19l-100 375l-35 147l-5 -1l8 -151v-367q0 -22 -21 -22h-38q-22 0 -22 22v681q0 21 22 21h52
q19 0 23 -19l100 -375l35 -147l5 1z" />
    <glyph glyph-name="nacute" unicode="&#x144;" 
d="M252 716l-113 -113q-13 -13 -27 -2l-11 11q-14 13 -1 26l98 127q12 14 27 2l26 -24q15 -13 1 -27zM290 469v-448q0 -21 -21 -21h-34q-21 0 -21 21v418q0 31 -10 43.5t-35 12.5q-52 0 -52 -60v-414q0 -21 -22 -21h-33q-22 0 -22 21v514q0 21 22 21h33q22 0 22 -21v-13
q39 39 91 39q36 0 59 -23.5t23 -68.5z" />
    <glyph glyph-name="Ncommaaccent" unicode="&#x145;" horiz-adv-x="390" 
d="M234 -84l-26 -97q-6 -19 -20 -19h-16q-18 0 -17 19l4 102q0 19 20 19h39q23 0 16 -24zM269 335v368q0 21 22 21h38q21 0 21 -21v-681q0 -22 -21 -22h-53q-17 0 -23 19l-100 375l-35 147l-5 -1l8 -151v-367q0 -22 -21 -22h-38q-22 0 -22 22v681q0 21 22 21h52q19 0 23 -19
l100 -375l35 -147l5 1z" />
    <glyph glyph-name="ncommaaccent" unicode="&#x146;" 
d="M203 -84l-26 -97q-6 -19 -20 -19h-16q-18 0 -17 19l4 102q0 19 20 19h39q23 0 16 -24zM290 469v-448q0 -21 -21 -21h-34q-21 0 -21 21v418q0 31 -10 43.5t-35 12.5q-52 0 -52 -60v-414q0 -21 -22 -21h-33q-22 0 -22 21v514q0 21 22 21h33q22 0 22 -21v-13q39 39 91 39
q36 0 59 -23.5t23 -68.5z" />
    <glyph glyph-name="Ncaron" unicode="&#x147;" horiz-adv-x="390" 
d="M195 836l109 60q17 9 27 -5l8 -13q8 -16 -6 -26l-112 -87q-7 -6 -15 -6h-21q-7 0 -16 6l-111 86q-15 12 -6 26l8 13q9 16 27 6zM269 335v368q0 21 22 21h38q21 0 21 -21v-681q0 -22 -21 -22h-53q-17 0 -23 19l-100 375l-35 147l-5 -1l8 -151v-367q0 -22 -21 -22h-38
q-22 0 -22 22v681q0 21 22 21h52q19 0 23 -19l100 -375l35 -147l5 1z" />
    <glyph glyph-name="ncaron" unicode="&#x148;" 
d="M166 681l75 83q12 15 26 3l11 -10q12 -11 2 -25l-86 -124q-8 -10 -20 -10h-15q-13 0 -20 10l-87 124q-10 14 2 25l11 10q14 12 26 -3zM290 469v-448q0 -21 -21 -21h-34q-21 0 -21 21v418q0 31 -10 43.5t-35 12.5q-52 0 -52 -60v-414q0 -21 -22 -21h-33q-22 0 -22 21v514
q0 21 22 21h33q22 0 22 -21v-13q39 39 91 39q36 0 59 -23.5t23 -68.5z" />
    <glyph glyph-name="napostrophe" unicode="&#x149;" 
d="M125 779l-33 -145q-3 -19 -20 -19h-16q-19 0 -17 19l9 147q1 19 21 19h40q22 0 16 -21zM290 469v-448q0 -21 -21 -21h-34q-21 0 -21 21v418q0 31 -10 43.5t-35 12.5q-52 0 -52 -60v-414q0 -21 -22 -21h-33q-22 0 -22 21v514q0 21 22 21h33q22 0 22 -21v-13q39 39 91 39
q36 0 59 -23.5t23 -68.5z" />
    <glyph glyph-name="Eng" unicode="&#x14a;" horiz-adv-x="390" 
d="M269 -65v68q-12 1 -16 16l-100 375l-35 147l-5 -1l8 -151v-367q0 -22 -21 -22h-38q-22 0 -22 22v681q0 21 22 21h52q19 0 23 -19l100 -375l35 -147l5 1l-8 151v368q0 21 22 21h38q21 0 21 -21v-774q0 -66 -30 -97.5t-105 -31.5h-15q-21 0 -21 21v26q0 21 21 21h10
q34 0 46.5 16t12.5 51z" />
    <glyph glyph-name="eng" unicode="&#x14b;" 
d="M290 469v-540q0 -66 -30 -97.5t-105 -31.5h-15q-21 0 -21 21v21q0 22 21 22h15q34 0 46.5 16t12.5 50v509q0 31 -10 43.5t-35 12.5q-52 0 -52 -60v-414q0 -21 -22 -21h-33q-22 0 -22 21v514q0 21 22 21h33q22 0 22 -21v-13q39 39 91 39q36 0 59 -23.5t23 -68.5z" />
    <glyph glyph-name="Omacron" unicode="&#x14c;" horiz-adv-x="388" 
d="M94 854h201q19 0 19 -19v-27q0 -19 -19 -19h-201q-19 0 -19 19v27q0 19 19 19zM194 659q-40 0 -55 -19t-15 -58v-440q0 -39 15 -58t55 -19t55 19t15 58v440q0 39 -15 58t-55 19zM194 729q86 0 120 -36t34 -111v-440q0 -75 -34 -111t-120 -36t-120 36t-34 111v440
q0 75 34 111t120 36z" />
    <glyph glyph-name="omacron" unicode="&#x14d;" 
d="M77 700h178q19 0 19 -19v-26q0 -19 -19 -19h-178q-19 0 -19 19v26q0 19 19 19zM165 497q-26 0 -37 -12.5t-11 -43.5v-326q0 -31 11.5 -43.5t36.5 -12.5q26 0 37.5 12.5t11.5 43.5v326q0 31 -11.5 43.5t-37.5 12.5zM165 561q70 0 97.5 -29t27.5 -90v-328q0 -61 -27.5 -90
t-97.5 -29t-97.5 29t-27.5 90v328q0 61 27.5 90t97.5 29z" />
    <glyph glyph-name="Obreve" unicode="&#x14e;" horiz-adv-x="388" 
d="M313 876q0 -54 -27 -81.5t-93 -27.5t-93 27.5t-27 81.5q0 19 19 19h17q19 0 19 -19q0 -26 14.5 -37.5t50.5 -11.5t50.5 11.5t14.5 37.5q0 19 19 19h17q19 0 19 -19zM194 659q-40 0 -55 -19t-15 -58v-440q0 -39 15 -58t55 -19t55 19t15 58v440q0 39 -15 58t-55 19z
M194 729q86 0 120 -36t34 -111v-440q0 -75 -34 -111t-120 -36t-120 36t-34 111v440q0 75 34 111t120 36z" />
    <glyph glyph-name="obreve" unicode="&#x14f;" 
d="M165 497q-26 0 -37 -12.5t-11 -43.5v-326q0 -31 11.5 -43.5t36.5 -12.5q26 0 37.5 12.5t11.5 43.5v326q0 31 -11.5 43.5t-37.5 12.5zM165 561q70 0 97.5 -29t27.5 -90v-328q0 -61 -27.5 -90t-97.5 -29t-97.5 29t-27.5 90v328q0 61 27.5 90t97.5 29zM280 728
q0 -61 -25 -89.5t-89 -28.5t-89 28.5t-25 89.5q0 19 19 19h16q19 0 19 -19q0 -32 13 -45.5t47 -13.5t47 13.5t13 45.5q0 19 19 19h16q19 0 19 -19z" />
    <glyph glyph-name="Ohungarumlaut" unicode="&#x150;" horiz-adv-x="388" 
d="M194 659q-40 0 -55 -19t-15 -58v-440q0 -39 15 -58t55 -19t55 19t15 58v440q0 39 -15 58t-55 19zM194 729q86 0 120 -36t34 -111v-440q0 -75 -34 -111t-120 -36t-120 36t-34 111v440q0 75 34 111t120 36zM211 839l-125 -75q-16 -11 -26 4l-9 14q-10 13 4 25l114 92
q16 11 27 -5l20 -29q12 -17 -5 -26zM374 840l-125 -75q-16 -10 -26 3l-9 15q-11 12 5 25l113 92q15 12 27 -5l20 -29q12 -17 -5 -26z" />
    <glyph glyph-name="ohungarumlaut" unicode="&#x151;" 
d="M335 716l-114 -113q-13 -13 -27 -2l-11 11q-14 13 -1 26l98 127q12 14 27 2l26 -24q16 -13 2 -27zM198 716l-113 -113q-13 -13 -27 -2l-11 11q-14 13 -1 26l98 127q12 14 27 2l26 -24q15 -13 1 -27zM165 497q-26 0 -37 -12.5t-11 -43.5v-326q0 -31 11.5 -43.5t36.5 -12.5
q26 0 37.5 12.5t11.5 43.5v326q0 31 -11.5 43.5t-37.5 12.5zM165 561q70 0 97.5 -29t27.5 -90v-328q0 -61 -27.5 -90t-97.5 -29t-97.5 29t-27.5 90v328q0 61 27.5 90t97.5 29z" />
    <glyph glyph-name="OE" unicode="&#x152;" horiz-adv-x="544" 
d="M194 659q-40 0 -55 -19t-15 -58v-440q0 -39 15 -58t55 -19t55 19t15 58v440q0 39 -15 58t-55 19zM338 70h174q22 0 22 -21v-27q0 -22 -22 -22h-261q-27 -5 -57 -5q-86 0 -120 36t-34 111v440q0 75 34 111t120 36q29 0 56 -5h262q22 0 22 -21v-27q0 -22 -22 -22h-174
q10 -29 10 -72v-185h126q22 0 22 -21v-27q0 -22 -22 -22h-126v-185q0 -43 -10 -72z" />
    <glyph glyph-name="oe" unicode="&#x153;" horiz-adv-x="504" 
d="M341 -5q-58 0 -89 33q-31 -33 -89 -33q-68 0 -95.5 29t-27.5 90v328q0 61 27.5 90t95.5 29q59 0 89 -32q30 32 89 32q68 0 95.5 -29t27.5 -90v-172q0 -23 -24 -23h-150v-132q0 -31 11.5 -43.5t37.5 -12.5q25 0 36.5 12.5t11.5 43.5v36q0 21 22 21h33q22 0 22 -21v-37
q0 -61 -27.5 -90t-95.5 -29zM165 497q-26 0 -37 -12.5t-11 -43.5v-326q0 -31 11.5 -43.5t36.5 -12.5q26 0 37.5 12.5t11.5 43.5v326q0 31 -11.5 43.5t-37.5 12.5zM290 441v-131h97v131q0 31 -11 43.5t-37 12.5t-37.5 -12.5t-11.5 -43.5z" />
    <glyph glyph-name="Racute" unicode="&#x154;" horiz-adv-x="380" 
d="M340 480q0 -64 -20 -100.5t-72 -49.5l115 -302q4 -10 -0.5 -18.5t-16.5 -9.5h-45q-17 0 -22 15l-116 305h-39v-298q0 -22 -22 -22h-40q-22 0 -22 22v681q0 21 22 21h112q94 0 130 -39t36 -121v-84zM124 390h50q48 0 65.5 22t17.5 68v84q0 46 -17.5 68t-65.5 22h-50v-264z
M280 834l-154 -72q-16 -7 -25 7l-8 15q-8 16 8 25l144 90q17 9 26 -8l17 -31q10 -18 -8 -26z" />
    <glyph glyph-name="racute" unicode="&#x155;" horiz-adv-x="310" 
d="M249 716l-113 -113q-13 -13 -27 -2l-11 11q-14 13 -1 26l98 127q12 14 27 2l26 -24q15 -13 1 -27zM290 469v-143q0 -21 -21 -21h-34q-21 0 -21 21v113q0 31 -10 43.5t-35 12.5q-52 0 -52 -60v-414q0 -21 -22 -21h-33q-22 0 -22 21v514q0 21 22 21h33q22 0 22 -21v-13
q39 39 91 39q36 0 59 -23.5t23 -68.5z" />
    <glyph glyph-name="Rcommaaccent" unicode="&#x156;" horiz-adv-x="380" 
d="M229 -84l-26 -97q-6 -19 -20 -19h-16q-18 0 -17 19l4 102q0 19 20 19h39q23 0 16 -24zM340 480q0 -64 -20 -100.5t-72 -49.5l115 -302q4 -10 -0.5 -18.5t-16.5 -9.5h-45q-17 0 -22 15l-116 305h-39v-298q0 -22 -22 -22h-40q-22 0 -22 22v681q0 21 22 21h112q94 0 130 -39
t36 -121v-84zM124 390h50q48 0 65.5 22t17.5 68v84q0 46 -17.5 68t-65.5 22h-50v-264z" />
    <glyph glyph-name="rcommaaccent" unicode="&#x157;" horiz-adv-x="310" 
d="M117 -84l-26 -97q-6 -19 -20 -19h-16q-18 0 -17 19l4 102q0 19 20 19h39q23 0 16 -24zM290 469v-143q0 -21 -21 -21h-34q-21 0 -21 21v113q0 31 -10 43.5t-35 12.5q-52 0 -52 -60v-414q0 -21 -22 -21h-33q-22 0 -22 21v514q0 21 22 21h33q22 0 22 -21v-13q39 39 91 39
q36 0 59 -23.5t23 -68.5z" />
    <glyph glyph-name="Rcaron" unicode="&#x158;" horiz-adv-x="380" 
d="M170 836l109 60q17 9 27 -5l8 -13q8 -16 -6 -26l-112 -87q-8 -6 -15 -6h-21q-7 0 -16 6l-111 86q-15 12 -6 26l8 13q9 16 27 6zM340 480q0 -64 -20 -100.5t-72 -49.5l115 -302q4 -10 -0.5 -18.5t-16.5 -9.5h-45q-17 0 -22 15l-116 305h-39v-298q0 -22 -22 -22h-40
q-22 0 -22 22v681q0 21 22 21h112q94 0 130 -39t36 -121v-84zM124 390h50q48 0 65.5 22t17.5 68v84q0 46 -17.5 68t-65.5 22h-50v-264z" />
    <glyph glyph-name="rcaron" unicode="&#x159;" horiz-adv-x="310" 
d="M164 681l75 83q12 15 26 3l11 -10q12 -11 2 -25l-86 -124q-8 -10 -20 -10h-15q-13 0 -20 10l-87 124q-10 14 2 25l11 10q14 12 26 -3zM290 469v-143q0 -21 -21 -21h-34q-21 0 -21 21v113q0 31 -10 43.5t-35 12.5q-52 0 -52 -60v-414q0 -21 -22 -21h-33q-22 0 -22 21v514
q0 21 22 21h33q22 0 22 -21v-13q39 39 91 39q36 0 59 -23.5t23 -68.5z" />
    <glyph glyph-name="Sacute" unicode="&#x15a;" horiz-adv-x="383" 
d="M121 582q0 -50 10 -77.5t44 -62.5l104 -109q36 -36 51 -76t15 -115t-34 -111t-120 -36t-119.5 36t-33.5 111v95q0 22 21 22h41q21 0 21 -22v-95q0 -39 15 -58t55 -19t55.5 19t15.5 58q0 49 -10 76.5t-44 63.5l-104 109q-36 35 -51 75.5t-15 115.5t33.5 111t119.5 36
t120 -36t34 -111v-95q0 -21 -21 -21h-41q-21 0 -21 21v95q0 39 -15.5 58t-55.5 19t-55 -19t-15 -58zM298 834l-154 -72q-16 -7 -25 7l-8 15q-8 16 8 25l144 90q17 9 26 -8l17 -31q10 -18 -8 -26z" />
    <glyph glyph-name="sacute" unicode="&#x15b;" horiz-adv-x="325" 
d="M249 716l-113 -113q-13 -13 -27 -2l-11 11q-14 13 -1 26l98 127q12 14 27 2l26 -24q15 -13 1 -27zM288 114q0 -61 -28 -90t-97 -29q-70 0 -97.5 29t-27.5 90v64q0 22 21 22h34q21 0 21 -22v-63q0 -31 11.5 -43.5t37.5 -12.5q25 0 36.5 12.5t11.5 43.5q0 44 -7 58.5
t-37 44.5l-76 74q-29 28 -41 59t-12 91q0 61 27.5 90t97.5 29q69 0 97 -29t28 -90v-64q0 -21 -22 -21h-33q-22 0 -22 21v63q0 31 -11 43.5t-37 12.5t-37.5 -12.5t-11.5 -43.5t4.5 -47.5t10.5 -24.5t29 -31l76 -74q29 -29 41.5 -59.5t12.5 -90.5z" />
    <glyph glyph-name="Scircumflex" unicode="&#x15c;" horiz-adv-x="383" 
d="M121 582q0 -50 10 -77.5t44 -62.5l104 -109q36 -36 51 -76t15 -115t-34 -111t-120 -36t-119.5 36t-33.5 111v95q0 22 21 22h41q21 0 21 -22v-95q0 -39 15 -58t55 -19t55.5 19t15.5 58q0 49 -10 76.5t-44 63.5l-104 109q-36 35 -51 75.5t-15 115.5t33.5 111t119.5 36
t120 -36t34 -111v-95q0 -21 -21 -21h-41q-21 0 -21 21v95q0 39 -15.5 58t-55.5 19t-55 -19t-15 -58zM191 823l-108 -60q-18 -8 -27 6l-8 13q-9 14 6 26l111 86q7 6 16 6h21q8 0 15 -6l112 -86q14 -10 6 -26l-8 -13q-10 -14 -27 -5z" />
    <glyph glyph-name="scircumflex" unicode="&#x15d;" horiz-adv-x="325" 
d="M163 691l-75 -84q-12 -13 -26 -2l-11 10q-12 11 -2 25l87 123q6 10 20 10h15q13 0 20 -10l86 -123q10 -14 -2 -25l-11 -10q-14 -11 -26 2zM288 114q0 -61 -28 -90t-97 -29q-70 0 -97.5 29t-27.5 90v64q0 22 21 22h34q21 0 21 -22v-63q0 -31 11.5 -43.5t37.5 -12.5
q25 0 36.5 12.5t11.5 43.5q0 44 -7 58.5t-37 44.5l-76 74q-29 28 -41 59t-12 91q0 61 27.5 90t97.5 29q69 0 97 -29t28 -90v-64q0 -21 -22 -21h-33q-22 0 -22 21v63q0 31 -11 43.5t-37 12.5t-37.5 -12.5t-11.5 -43.5t4.5 -47.5t10.5 -24.5t29 -31l76 -74q29 -29 41.5 -59.5
t12.5 -90.5z" />
    <glyph glyph-name="Scedilla" unicode="&#x15e;" horiz-adv-x="383" 
d="M121 582q0 -50 10 -77.5t44 -62.5l104 -109q36 -36 51 -76t15 -115q0 -67 -27 -103t-93 -42l-17 -45q75 -5 75 -76q0 -42 -21.5 -59t-63.5 -17h-41q-19 0 -19 19v14q0 19 19 19h36q31 0 31 24t-31 24h-26q-19 0 -19 19v18q0 7 3 14l18 45q-73 4 -102 39.5t-29 106.5v95
q0 22 21 22h41q21 0 21 -22v-95q0 -39 15 -58t55 -19t55.5 19t15.5 58q0 49 -10 76.5t-44 63.5l-104 109q-36 35 -51 75.5t-15 115.5t33.5 111t119.5 36t120 -36t34 -111v-95q0 -21 -21 -21h-41q-21 0 -21 21v95q0 39 -15.5 58t-55.5 19t-55 -19t-15 -58z" />
    <glyph glyph-name="scedilla" unicode="&#x15f;" horiz-adv-x="325" 
d="M288 114q0 -54 -21.5 -83t-74.5 -34l-17 -45q75 -5 75 -76q0 -42 -21.5 -59t-63.5 -17h-41q-19 0 -19 19v14q0 19 19 19h36q31 0 31 24t-31 24h-26q-19 0 -19 19v18q0 7 3 14l18 45q-54 5 -76 34t-22 84v64q0 22 21 22h34q21 0 21 -22v-63q0 -31 11.5 -43.5t37.5 -12.5
q25 0 36.5 12.5t11.5 43.5q0 44 -7 58.5t-37 44.5l-76 74q-29 28 -41 59t-12 91q0 61 27.5 90t97.5 29q69 0 97 -29t28 -90v-64q0 -21 -22 -21h-33q-22 0 -22 21v63q0 31 -11 43.5t-37 12.5t-37.5 -12.5t-11.5 -43.5t4.5 -47.5t10.5 -24.5t29 -31l76 -74q29 -29 41.5 -59.5
t12.5 -90.5z" />
    <glyph glyph-name="Scaron" unicode="&#x160;" horiz-adv-x="383" 
d="M121 582q0 -50 10 -77.5t44 -62.5l104 -109q36 -36 51 -76t15 -115t-34 -111t-120 -36t-119.5 36t-33.5 111v95q0 22 21 22h41q21 0 21 -22v-95q0 -39 15 -58t55 -19t55.5 19t15.5 58q0 49 -10 76.5t-44 63.5l-104 109q-36 35 -51 75.5t-15 115.5t33.5 111t119.5 36
t120 -36t34 -111v-95q0 -21 -21 -21h-41q-21 0 -21 21v95q0 39 -15.5 58t-55.5 19t-55 -19t-15 -58zM191 836l109 60q17 9 27 -5l8 -13q8 -16 -6 -26l-112 -87q-7 -6 -15 -6h-21q-7 0 -16 6l-111 86q-15 12 -6 26l8 13q9 16 27 6z" />
    <glyph glyph-name="scaron" unicode="&#x161;" horiz-adv-x="325" 
d="M163 681l75 83q12 15 26 3l11 -10q12 -11 2 -25l-86 -124q-8 -10 -20 -10h-15q-13 0 -20 10l-87 124q-10 14 2 25l11 10q14 12 26 -3zM288 114q0 -61 -28 -90t-97 -29q-70 0 -97.5 29t-27.5 90v64q0 22 21 22h34q21 0 21 -22v-63q0 -31 11.5 -43.5t37.5 -12.5
q25 0 36.5 12.5t11.5 43.5q0 44 -7 58.5t-37 44.5l-76 74q-29 28 -41 59t-12 91q0 61 27.5 90t97.5 29q69 0 97 -29t28 -90v-64q0 -21 -22 -21h-33q-22 0 -22 21v63q0 31 -11 43.5t-37 12.5t-37.5 -12.5t-11.5 -43.5t4.5 -47.5t10.5 -24.5t29 -31l76 -74q29 -29 41.5 -59.5
t12.5 -90.5z" />
    <glyph glyph-name="uni0162" unicode="&#x162;" horiz-adv-x="356" 
d="M334 654h-114v-632q0 -19 -16 -22l-19 -48q75 -5 75 -76q0 -42 -21.5 -59t-63.5 -17h-41q-19 0 -19 19v14q0 19 19 19h36q31 0 31 24t-31 24h-26q-19 0 -19 19v18q0 7 3 14l20 50q-12 5 -12 21v632h-114q-22 0 -22 22v27q0 21 22 21h312q22 0 22 -21v-27q0 -22 -22 -22z
" />
    <glyph glyph-name="uni0163" unicode="&#x163;" horiz-adv-x="257" 
d="M27 556h43v147q0 21 22 21h33q22 0 22 -21v-147h63q22 0 22 -21v-21q0 -22 -22 -22h-63v-361q0 -35 12.5 -51t46.5 -16h24q22 0 22 -21v-21q0 -22 -22 -22h-24q-29 0 -41 2l-20 -50q75 -5 75 -76q0 -42 -21.5 -59t-63.5 -17h-41q-19 0 -19 19v14q0 19 19 19h36
q31 0 31 24t-31 24h-26q-19 0 -19 19v18q0 7 3 14l27 68q-45 28 -45 111v362h-43q-22 0 -22 22v21q0 21 22 21z" />
    <glyph glyph-name="Tcaron" unicode="&#x164;" horiz-adv-x="356" 
d="M178 836l109 60q17 9 27 -5l8 -13q8 -16 -6 -26l-112 -87q-8 -6 -15 -6h-21q-7 0 -16 6l-111 86q-15 12 -6 26l8 13q9 16 27 6zM334 654h-114v-632q0 -22 -22 -22h-40q-22 0 -22 22v632h-114q-22 0 -22 22v27q0 21 22 21h312q22 0 22 -21v-27q0 -22 -22 -22z" />
    <glyph glyph-name="tcaron" unicode="&#x165;" horiz-adv-x="259" 
d="M263 779l-33 -145q-3 -19 -20 -19h-16q-19 0 -17 19l9 147q1 19 21 19h40q22 0 16 -21zM27 556h43v147q0 21 22 21h33q22 0 22 -21v-147h63q22 0 22 -21v-21q0 -22 -22 -22h-63v-361q0 -35 12.5 -51t46.5 -16h24q22 0 22 -21v-21q0 -22 -22 -22h-24q-76 0 -106 31.5
t-30 98.5v362h-43q-22 0 -22 22v21q0 21 22 21z" />
    <glyph glyph-name="Tbar" unicode="&#x166;" horiz-adv-x="356" 
d="M334 654h-114v-294h59q19 0 19 -19v-27q0 -19 -19 -19h-59v-273q0 -22 -22 -22h-40q-22 0 -22 22v273h-58q-19 0 -19 19v27q0 19 19 19h58v294h-114q-22 0 -22 22v27q0 21 22 21h312q22 0 22 -21v-27q0 -22 -22 -22z" />
    <glyph glyph-name="tbar" unicode="&#x167;" horiz-adv-x="257" 
d="M27 556h43v147q0 21 22 21h33q22 0 22 -21v-147h63q22 0 22 -21v-21q0 -22 -22 -22h-63v-143h51q19 0 19 -19v-26q0 -19 -19 -19h-51v-154q0 -35 12.5 -51t46.5 -16h24q22 0 22 -21v-21q0 -22 -22 -22h-24q-76 0 -106 31.5t-30 98.5v155h-50q-19 0 -19 19v26q0 19 19 19
h50v143h-43q-22 0 -22 22v21q0 21 22 21z" />
    <glyph glyph-name="Utilde" unicode="&#x168;" horiz-adv-x="388" 
d="M192 781l-42 36q-11 10 -24 5t-13 -22v-15q0 -18 -18 -18h-20q-18 0 -18 18v17q0 41 25 63.5t58 21t57 -23.5l42 -35q12 -11 24.5 -6t12.5 23v15q0 18 18 18h20q18 0 18 -18v-17q0 -41 -25 -63.5t-57.5 -21.5t-57.5 23zM40 142v561q0 21 22 21h40q22 0 22 -21v-561
q0 -39 15 -58t55 -19t55 19t15 58v561q0 21 22 21h40q22 0 22 -21v-561q0 -75 -34 -111t-120 -36t-120 36t-34 111z" />
    <glyph glyph-name="utilde" unicode="&#x169;" 
d="M40 87v448q0 21 22 21h33q22 0 22 -21v-417q0 -32 9.5 -44t34.5 -12q53 0 53 59v414q0 21 21 21h34q21 0 21 -21v-514q0 -21 -21 -21h-34q-21 0 -21 21v13q-41 -39 -92 -39q-36 0 -59 23.5t-23 68.5zM153 645l-25 28q-12 13 -25.5 8.5t-13.5 -18.5v-22q0 -18 -18 -18h-20
q-18 0 -18 18v26q0 38 26 59t61 17.5t58 -30.5l25 -29q12 -13 25.5 -8t13.5 19v22q0 18 18 18h20q18 0 18 -18v-27q0 -38 -26 -59t-60.5 -17t-58.5 31z" />
    <glyph glyph-name="Umacron" unicode="&#x16a;" horiz-adv-x="388" 
d="M94 854h201q19 0 19 -19v-27q0 -19 -19 -19h-201q-19 0 -19 19v27q0 19 19 19zM40 142v561q0 21 22 21h40q22 0 22 -21v-561q0 -39 15 -58t55 -19t55 19t15 58v561q0 21 22 21h40q22 0 22 -21v-561q0 -75 -34 -111t-120 -36t-120 36t-34 111z" />
    <glyph glyph-name="umacron" unicode="&#x16b;" 
d="M40 87v448q0 21 22 21h33q22 0 22 -21v-417q0 -32 9.5 -44t34.5 -12q53 0 53 59v414q0 21 21 21h34q21 0 21 -21v-514q0 -21 -21 -21h-34q-21 0 -21 21v13q-41 -39 -92 -39q-36 0 -59 23.5t-23 68.5zM77 700h178q19 0 19 -19v-26q0 -19 -19 -19h-178q-19 0 -19 19v26
q0 19 19 19z" />
    <glyph glyph-name="Ubreve" unicode="&#x16c;" horiz-adv-x="388" 
d="M313 876q0 -54 -27 -81.5t-93 -27.5t-93 27.5t-27 81.5q0 19 19 19h17q19 0 19 -19q0 -26 14.5 -37.5t50.5 -11.5t50.5 11.5t14.5 37.5q0 19 19 19h17q19 0 19 -19zM40 142v561q0 21 22 21h40q22 0 22 -21v-561q0 -39 15 -58t55 -19t55 19t15 58v561q0 21 22 21h40
q22 0 22 -21v-561q0 -75 -34 -111t-120 -36t-120 36t-34 111z" />
    <glyph glyph-name="ubreve" unicode="&#x16d;" 
d="M40 87v448q0 21 22 21h33q22 0 22 -21v-417q0 -32 9.5 -44t34.5 -12q53 0 53 59v414q0 21 21 21h34q21 0 21 -21v-514q0 -21 -21 -21h-34q-21 0 -21 21v13q-41 -39 -92 -39q-36 0 -59 23.5t-23 68.5zM280 728q0 -61 -25 -89.5t-89 -28.5t-89 28.5t-25 89.5q0 19 19 19h16
q19 0 19 -19q0 -32 13 -45.5t47 -13.5t47 13.5t13 45.5q0 19 19 19h16q19 0 19 -19z" />
    <glyph glyph-name="Uring" unicode="&#x16e;" horiz-adv-x="388" 
d="M40 142v561q0 21 22 21h40q22 0 22 -21v-561q0 -39 15 -58t55 -19t55 19t15 58v561q0 21 22 21h40q22 0 22 -21v-561q0 -75 -34 -111t-120 -36t-120 36t-34 111zM108 824q0 38 24 61.5t62 23.5t61.5 -23.5t23.5 -61.5t-23.5 -62t-61.5 -24t-62 24t-24 62zM156 824
q0 -17 10.5 -28.5t27.5 -11.5q16 0 26.5 11.5t10.5 28.5t-10.5 28t-26.5 11q-17 0 -27.5 -11t-10.5 -28z" />
    <glyph glyph-name="uring" unicode="&#x16f;" 
d="M79 685q0 38 24 62t62 24t61.5 -24t23.5 -62t-23.5 -61.5t-61.5 -23.5t-62 23.5t-24 61.5zM127 685q0 -17 10.5 -28t27.5 -11q16 0 26.5 11t10.5 28t-10.5 28.5t-26.5 11.5q-17 0 -27.5 -11.5t-10.5 -28.5zM40 87v448q0 21 22 21h33q22 0 22 -21v-417q0 -32 9.5 -44
t34.5 -12q53 0 53 59v414q0 21 21 21h34q21 0 21 -21v-514q0 -21 -21 -21h-34q-21 0 -21 21v13q-41 -39 -92 -39q-36 0 -59 23.5t-23 68.5z" />
    <glyph glyph-name="Uhungarumlaut" unicode="&#x170;" horiz-adv-x="388" 
d="M40 142v561q0 21 22 21h40q22 0 22 -21v-561q0 -39 15 -58t55 -19t55 19t15 58v561q0 21 22 21h40q22 0 22 -21v-561q0 -75 -34 -111t-120 -36t-120 36t-34 111zM218 839l-125 -75q-16 -11 -26 4l-9 14q-10 13 4 25l114 92q16 11 27 -5l20 -29q12 -17 -5 -26zM381 840
l-125 -75q-16 -10 -26 3l-9 15q-11 12 5 25l113 92q15 12 27 -5l20 -29q12 -17 -5 -26z" />
    <glyph glyph-name="uhungarumlaut" unicode="&#x171;" 
d="M40 87v448q0 21 22 21h33q22 0 22 -21v-417q0 -32 9.5 -44t34.5 -12q53 0 53 59v414q0 21 21 21h34q21 0 21 -21v-514q0 -21 -21 -21h-34q-21 0 -21 21v13q-41 -39 -92 -39q-36 0 -59 23.5t-23 68.5zM330 716l-114 -113q-13 -13 -27 -2l-11 11q-14 13 -1 26l98 127
q12 14 27 2l26 -24q16 -13 2 -27zM193 716l-113 -113q-13 -13 -27 -2l-11 11q-14 13 -1 26l98 127q12 14 27 2l26 -24q15 -13 1 -27z" />
    <glyph glyph-name="Uogonek" unicode="&#x172;" horiz-adv-x="388" 
d="M40 142v561q0 21 22 21h40q22 0 22 -21v-561q0 -39 15 -58t55 -19t55 19t15 58v561q0 21 22 21h40q22 0 22 -21v-561q0 -58 -19.5 -92.5t-66.5 -47.5l-45 -72q-18 -28 -11 -49.5t35 -21.5h28q18 0 18 -18v-23q0 -18 -18 -18h-32q-48 0 -72.5 25t-23 59.5t22.5 67.5l27 43
q-85 1 -118 36.5t-33 110.5z" />
    <glyph glyph-name="uogonek" unicode="&#x173;" 
d="M40 87v448q0 21 22 21h33q22 0 22 -21v-417q0 -32 9.5 -44t34.5 -12q53 0 53 59v414q0 21 21 21h34q21 0 21 -21v-514q0 -10 -5 -15l-47 -76q-18 -28 -11 -49.5t35 -21.5h28q18 0 18 -18v-23q0 -18 -18 -18h-32q-48 0 -72.5 25t-23 59.5t22.5 67.5l34 54q-5 5 -5 15v13
q-41 -39 -92 -39q-36 0 -59 23.5t-23 68.5z" />
    <glyph glyph-name="Wcircumflex" unicode="&#x174;" horiz-adv-x="517" 
d="M70 724q20 0 21 -20l43 -444l12 -182h5l11 182l39 444q2 20 22 20h71q19 0 22 -20l39 -444l10 -182h6l11 182l44 444q2 20 21 20h40q21 0 19 -25l-72 -677q-3 -22 -23 -22h-83q-22 0 -23 22l-34 420l-10 174h-5l-10 -174l-34 -420q-1 -22 -23 -22h-83q-22 0 -23 22
l-72 677q-2 25 19 25h40zM258 823l-108 -60q-18 -8 -27 6l-8 13q-9 14 6 26l111 86q7 6 16 6h21q8 0 15 -6l112 -86q14 -10 6 -26l-8 -13q-10 -14 -27 -5z" />
    <glyph glyph-name="wcircumflex" unicode="&#x175;" horiz-adv-x="469" 
d="M229 691l-75 -84q-12 -13 -26 -2l-11 10q-12 11 -2 25l87 123q6 10 20 10h15q13 0 20 -10l86 -123q10 -14 -2 -25l-11 -10q-14 -11 -26 2zM260 556q22 0 25 -21l32 -286l16 -170h6l14 170l34 286q3 21 24 21h32q24 0 20 -26l-68 -509q-3 -21 -25 -21h-61q-21 0 -24 21
l-34 271l-14 170h-5l-14 -170l-34 -271q-3 -21 -24 -21h-61q-21 0 -25 21l-68 509q-4 26 20 26h32q21 0 24 -21l34 -286l15 -170h5l16 170l32 286q3 21 25 21h51z" />
    <glyph glyph-name="Ycircumflex" unicode="&#x176;" horiz-adv-x="369" 
d="M30 724h42q18 0 22 -15l51 -171l37 -148h5l37 148l50 171q4 15 22 15h43q11 0 16 -8t2 -19l-131 -415v-260q0 -22 -21 -22h-41q-21 0 -21 22v260l-131 415q-4 11 1.5 19t16.5 8zM184 823l-108 -60q-18 -8 -27 6l-8 13q-9 14 6 26l111 86q7 6 16 6h21q8 0 15 -6l112 -86
q14 -10 6 -26l-8 -13q-10 -14 -27 -5z" />
    <glyph glyph-name="ycircumflex" unicode="&#x177;" horiz-adv-x="287" 
d="M58 556q21 0 24 -21l40 -281l19 -175h5l19 175l39 281q3 21 25 21h32q24 0 20 -26l-108 -709q-3 -21 -24 -21h-32q-24 0 -20 26l29 174h-17q-21 0 -25 21l-78 509q-4 26 20 26h32zM147 691l-75 -84q-12 -13 -26 -2l-11 10q-12 11 -2 25l87 123q6 10 20 10h15q13 0 20 -10
l86 -123q10 -14 -2 -25l-11 -10q-14 -11 -26 2z" />
    <glyph glyph-name="Ydieresis" unicode="&#x178;" horiz-adv-x="369" 
d="M30 724h42q18 0 22 -15l51 -171l37 -148h5l37 148l50 171q4 15 22 15h43q11 0 16 -8t2 -19l-131 -415v-260q0 -22 -21 -22h-41q-21 0 -21 22v260l-131 415q-4 11 1.5 19t16.5 8zM55 825q0 20 13 33t33 13q21 0 34 -13t13 -33q0 -21 -13 -33.5t-34 -12.5q-20 0 -33 12.5
t-13 33.5zM222 825q0 20 12.5 33t33.5 13q20 0 33 -13t13 -33q0 -21 -13 -33.5t-33 -12.5q-21 0 -33.5 12.5t-12.5 33.5z" />
    <glyph glyph-name="Zacute" unicode="&#x179;" horiz-adv-x="308" 
d="M113 70h154q21 0 21 -21v-27q0 -22 -21 -22h-225q-22 0 -22 22v25q0 10 3 19l172 588h-153q-22 0 -22 22v27q0 21 22 21h225q21 0 21 -21v-26q0 -9 -3 -18zM261 834l-154 -72q-16 -7 -25 7l-8 15q-8 16 8 25l144 90q17 9 26 -8l17 -31q10 -18 -8 -26z" />
    <glyph glyph-name="zacute" unicode="&#x17a;" horiz-adv-x="256" 
d="M219 716l-113 -113q-13 -13 -27 -2l-11 11q-14 13 -1 26l98 127q12 14 27 2l26 -24q15 -13 1 -27zM242 495l-146 -431h129q21 0 21 -21v-21q0 -22 -21 -22h-192q-21 0 -21 22v21q0 10 3 19l145 430h-128q-22 0 -22 22v21q0 21 22 21h191q22 0 22 -21v-21q0 -12 -3 -19z
" />
    <glyph glyph-name="Zdotaccent" unicode="&#x17b;" horiz-adv-x="308" 
d="M104 825q0 22 14 36t36 14t36 -14t14 -36t-14 -36t-36 -14t-36 14t-14 36zM113 70h154q21 0 21 -21v-27q0 -22 -21 -22h-225q-22 0 -22 22v25q0 10 3 19l172 588h-153q-22 0 -22 22v27q0 21 22 21h225q21 0 21 -21v-26q0 -9 -3 -18z" />
    <glyph glyph-name="zdotaccent" unicode="&#x17c;" horiz-adv-x="256" 
d="M242 495l-146 -431h129q21 0 21 -21v-21q0 -22 -21 -22h-192q-21 0 -21 22v21q0 10 3 19l145 430h-128q-22 0 -22 22v21q0 21 22 21h191q22 0 22 -21v-21q0 -12 -3 -19zM83 679q0 22 13.5 35.5t34.5 13.5q22 0 35.5 -13.5t13.5 -35.5q0 -21 -13.5 -34.5t-35.5 -13.5
q-21 0 -34.5 13.5t-13.5 34.5z" />
    <glyph glyph-name="Zcaron" unicode="&#x17d;" horiz-adv-x="308" 
d="M154 836l109 60q17 9 27 -5l8 -13q8 -16 -6 -26l-112 -87q-8 -6 -15 -6h-21q-7 0 -16 6l-111 86q-15 12 -6 26l8 13q9 16 27 6zM113 70h154q21 0 21 -21v-27q0 -22 -21 -22h-225q-22 0 -22 22v25q0 10 3 19l172 588h-153q-22 0 -22 22v27q0 21 22 21h225q21 0 21 -21v-26
q0 -9 -3 -18z" />
    <glyph glyph-name="zcaron" unicode="&#x17e;" horiz-adv-x="256" 
d="M129 681l75 83q12 15 26 3l11 -10q12 -11 2 -25l-86 -124q-8 -10 -20 -10h-15q-13 0 -20 10l-87 124q-10 14 2 25l11 10q14 12 26 -3zM242 495l-146 -431h129q21 0 21 -21v-21q0 -22 -21 -22h-192q-21 0 -21 22v21q0 10 3 19l145 430h-128q-22 0 -22 22v21q0 21 22 21
h191q22 0 22 -21v-21q0 -12 -3 -19z" />
    <glyph glyph-name="longs" unicode="&#x17f;" horiz-adv-x="217" 
d="M40 22v649q0 66 30 97.5t106 31.5h24q22 0 22 -21v-23q0 -21 -22 -21h-24q-34 0 -46.5 -16t-12.5 -51v-646q0 -22 -22 -22h-33q-22 0 -22 22z" />
    <glyph glyph-name="florin" unicode="&#x192;" horiz-adv-x="313" 
d="M33 446h83v207q0 77 35.5 112t115.5 35h12q21 0 21 -21v-27q0 -22 -21 -22h-11q-37 0 -53 -17.5t-16 -59.5v-207h83q21 0 21 -21v-27q0 -22 -21 -22h-83v-429q0 -77 -35.5 -112t-116.5 -35h-11q-21 0 -21 21v27q0 22 21 22h10q38 0 54 17.5t16 59.5v429h-83q-21 0 -21 22
v27q0 21 21 21z" />
    <glyph glyph-name="uni0218" unicode="&#x218;" horiz-adv-x="383" 
d="M230 -84l-26 -97q-6 -19 -20 -19h-16q-18 0 -17 19l4 102q0 19 20 19h39q23 0 16 -24zM121 582q0 -50 10 -77.5t44 -62.5l104 -109q36 -36 51 -76t15 -115t-34 -111t-120 -36t-119.5 36t-33.5 111v95q0 22 21 22h41q21 0 21 -22v-95q0 -39 15 -58t55 -19t55.5 19t15.5 58
q0 49 -10 76.5t-44 63.5l-104 109q-36 35 -51 75.5t-15 115.5t33.5 111t119.5 36t120 -36t34 -111v-95q0 -21 -21 -21h-41q-21 0 -21 21v95q0 39 -15.5 58t-55.5 19t-55 -19t-15 -58z" />
    <glyph glyph-name="uni0219" unicode="&#x219;" horiz-adv-x="325" 
d="M201 -84l-26 -97q-6 -19 -20 -19h-16q-18 0 -17 19l4 102q0 19 20 19h39q23 0 16 -24zM288 114q0 -61 -28 -90t-97 -29q-70 0 -97.5 29t-27.5 90v64q0 22 21 22h34q21 0 21 -22v-63q0 -31 11.5 -43.5t37.5 -12.5q25 0 36.5 12.5t11.5 43.5q0 44 -7 58.5t-37 44.5l-76 74
q-29 28 -41 59t-12 91q0 61 27.5 90t97.5 29q69 0 97 -29t28 -90v-64q0 -21 -22 -21h-33q-22 0 -22 21v63q0 31 -11 43.5t-37 12.5t-37.5 -12.5t-11.5 -43.5t4.5 -47.5t10.5 -24.5t29 -31l76 -74q29 -29 41.5 -59.5t12.5 -90.5z" />
    <glyph glyph-name="uni021A" unicode="&#x21a;" horiz-adv-x="356" 
d="M217 -84l-26 -97q-6 -19 -20 -19h-16q-18 0 -17 19l4 102q0 19 20 19h39q23 0 16 -24zM334 654h-114v-632q0 -22 -22 -22h-40q-22 0 -22 22v632h-114q-22 0 -22 22v27q0 21 22 21h312q22 0 22 -21v-27q0 -22 -22 -22z" />
    <glyph glyph-name="uni021B" unicode="&#x21b;" horiz-adv-x="257" 
d="M188 -84l-26 -97q-6 -19 -20 -19h-16q-18 0 -17 19l4 102q0 19 20 19h39q23 0 16 -24zM27 556h43v147q0 21 22 21h33q22 0 22 -21v-147h63q22 0 22 -21v-21q0 -22 -22 -22h-63v-361q0 -35 12.5 -51t46.5 -16h24q22 0 22 -21v-21q0 -22 -22 -22h-24q-76 0 -106 31.5
t-30 98.5v362h-43q-22 0 -22 22v21q0 21 22 21z" />
    <glyph glyph-name="circumflex" unicode="&#x2c6;" horiz-adv-x="360" 
d="M180 691l-75 -84q-12 -13 -26 -2l-11 10q-12 11 -2 25l87 123q6 10 20 10h15q13 0 20 -10l86 -123q10 -14 -2 -25l-11 -10q-14 -11 -26 2z" />
    <glyph glyph-name="caron" unicode="&#x2c7;" horiz-adv-x="360" 
d="M180 681l75 83q12 15 26 3l11 -10q12 -11 2 -25l-86 -124q-8 -10 -20 -10h-15q-13 0 -20 10l-87 124q-10 14 2 25l11 10q14 12 26 -3z" />
    <glyph glyph-name="breve" unicode="&#x2d8;" horiz-adv-x="348" 
d="M288 728q0 -61 -25 -89.5t-89 -28.5t-89 28.5t-25 89.5q0 19 19 19h16q19 0 19 -19q0 -32 13 -45.5t47 -13.5t47 13.5t13 45.5q0 19 19 19h16q19 0 19 -19z" />
    <glyph glyph-name="dotaccent" unicode="&#x2d9;" horiz-adv-x="217" 
d="M60 679q0 22 13.5 35.5t34.5 13.5q22 0 35.5 -13.5t13.5 -35.5q0 -21 -13.5 -34.5t-35.5 -13.5q-21 0 -34.5 13.5t-13.5 34.5z" />
    <glyph glyph-name="ring" unicode="&#x2da;" horiz-adv-x="281" 
d="M55 685q0 38 24 62t62 24t61.5 -24t23.5 -62t-23.5 -61.5t-61.5 -23.5t-62 23.5t-24 61.5zM103 685q0 -17 10.5 -28t27.5 -11q16 0 26.5 11t10.5 28t-10.5 28.5t-26.5 11.5q-17 0 -27.5 -11.5t-10.5 -28.5z" />
    <glyph glyph-name="ogonek" unicode="&#x2db;" horiz-adv-x="266" 
d="M83 -48l50 79l52 -22l-49 -79q-18 -28 -11 -49.5t35 -21.5h28q18 0 18 -18v-23q0 -18 -18 -18h-32q-48 0 -72.5 25t-23 59.5t22.5 67.5z" />
    <glyph glyph-name="tilde" unicode="&#x2dc;" horiz-adv-x="385" 
d="M180 645l-25 28q-12 13 -25.5 8.5t-13.5 -18.5v-22q0 -18 -18 -18h-20q-18 0 -18 18v26q0 38 26 59t61 17.5t58 -30.5l25 -29q12 -13 25.5 -8t13.5 19v22q0 18 18 18h20q18 0 18 -18v-27q0 -38 -26 -59t-60.5 -17t-58.5 31z" />
    <glyph glyph-name="hungarumlaut" unicode="&#x2dd;" horiz-adv-x="422" 
d="M356 716l-114 -113q-13 -13 -27 -2l-11 11q-14 13 -1 26l98 127q12 14 27 2l26 -24q16 -13 2 -27zM219 716l-113 -113q-13 -13 -27 -2l-11 11q-14 13 -1 26l98 127q12 14 27 2l26 -24q15 -13 1 -27z" />
    <glyph glyph-name="pi" unicode="&#x3c0;" horiz-adv-x="405" 
d="M251 492h-97v-470q0 -22 -21 -22h-34q-21 0 -21 22v470h-46q-22 0 -22 22v21q0 21 22 21h342q21 0 21 -21v-21q0 -22 -21 -22h-46v-470q0 -22 -22 -22h-33q-22 0 -22 22v470z" />
    <glyph glyph-name="Wgrave" unicode="&#x1e80;" horiz-adv-x="517" 
d="M315 762l-153 72q-18 8 -8 26l16 31q9 17 26 8l144 -90q16 -9 8 -25l-8 -15q-9 -14 -25 -7zM70 724q20 0 21 -20l43 -444l12 -182h5l11 182l39 444q2 20 22 20h71q19 0 22 -20l39 -444l10 -182h6l11 182l44 444q2 20 21 20h40q21 0 19 -25l-72 -677q-3 -22 -23 -22h-83
q-22 0 -23 22l-34 420l-10 174h-5l-10 -174l-34 -420q-1 -22 -23 -22h-83q-22 0 -23 22l-72 677q-2 25 19 25h40z" />
    <glyph glyph-name="wgrave" unicode="&#x1e81;" horiz-adv-x="469" 
d="M260 556q22 0 25 -21l32 -286l16 -170h6l14 170l34 286q3 21 24 21h32q24 0 20 -26l-68 -509q-3 -21 -25 -21h-61q-21 0 -24 21l-34 271l-14 170h-5l-14 -170l-34 -271q-3 -21 -24 -21h-61q-21 0 -25 21l-68 509q-4 26 20 26h32q21 0 24 -21l34 -286l15 -170h5l16 170
l32 286q3 21 25 21h51zM270 603l-114 113q-14 14 2 27l26 24q15 12 27 -2l98 -127q13 -13 -1 -26l-11 -11q-14 -11 -27 2z" />
    <glyph glyph-name="Wacute" unicode="&#x1e82;" horiz-adv-x="517" 
d="M355 834l-154 -72q-16 -7 -25 7l-8 15q-8 16 8 25l144 90q17 9 26 -8l17 -31q10 -18 -8 -26zM70 724q20 0 21 -20l43 -444l12 -182h5l11 182l39 444q2 20 22 20h71q19 0 22 -20l39 -444l10 -182h6l11 182l44 444q2 20 21 20h40q21 0 19 -25l-72 -677q-3 -22 -23 -22h-83
q-22 0 -23 22l-34 420l-10 174h-5l-10 -174l-34 -420q-1 -22 -23 -22h-83q-22 0 -23 22l-72 677q-2 25 19 25h40z" />
    <glyph glyph-name="wacute" unicode="&#x1e83;" horiz-adv-x="469" 
d="M313 716l-113 -113q-13 -13 -27 -2l-11 11q-14 13 -1 26l98 127q12 14 27 2l26 -24q15 -13 1 -27zM260 556q22 0 25 -21l32 -286l16 -170h6l14 170l34 286q3 21 24 21h32q24 0 20 -26l-68 -509q-3 -21 -25 -21h-61q-21 0 -24 21l-34 271l-14 170h-5l-14 -170l-34 -271
q-3 -21 -24 -21h-61q-21 0 -25 21l-68 509q-4 26 20 26h32q21 0 24 -21l34 -286l15 -170h5l16 170l32 286q3 21 25 21h51z" />
    <glyph glyph-name="Wdieresis" unicode="&#x1e84;" horiz-adv-x="517" 
d="M128 825q0 20 13 33t33 13q21 0 34 -13t13 -33q0 -21 -13 -33.5t-34 -12.5q-20 0 -33 12.5t-13 33.5zM295 825q0 20 12.5 33t33.5 13q20 0 33 -13t13 -33q0 -21 -13 -33.5t-33 -12.5q-21 0 -33.5 12.5t-12.5 33.5zM70 724q20 0 21 -20l43 -444l12 -182h5l11 182l39 444
q2 20 22 20h71q19 0 22 -20l39 -444l10 -182h6l11 182l44 444q2 20 21 20h40q21 0 19 -25l-72 -677q-3 -22 -23 -22h-83q-22 0 -23 22l-34 420l-10 174h-5l-10 -174l-34 -420q-1 -22 -23 -22h-83q-22 0 -23 22l-72 677q-2 25 19 25h40z" />
    <glyph glyph-name="wdieresis" unicode="&#x1e85;" horiz-adv-x="469" 
d="M262 678q0 20 12 32.5t32 12.5t32.5 -12.5t12.5 -32.5t-12.5 -32.5t-32.5 -12.5t-32 12.5t-12 32.5zM118 678q0 20 12.5 32.5t32.5 12.5t32.5 -12.5t12.5 -32.5t-12.5 -32.5t-32.5 -12.5t-32.5 12.5t-12.5 32.5zM260 556q22 0 25 -21l32 -286l16 -170h6l14 170l34 286
q3 21 24 21h32q24 0 20 -26l-68 -509q-3 -21 -25 -21h-61q-21 0 -24 21l-34 271l-14 170h-5l-14 -170l-34 -271q-3 -21 -24 -21h-61q-21 0 -25 21l-68 509q-4 26 20 26h32q21 0 24 -21l34 -286l15 -170h5l16 170l32 286q3 21 25 21h51z" />
    <glyph glyph-name="Ygrave" unicode="&#x1ef2;" horiz-adv-x="369" 
d="M30 724h42q18 0 22 -15l51 -171l37 -148h5l37 148l50 171q4 15 22 15h43q11 0 16 -8t2 -19l-131 -415v-260q0 -22 -21 -22h-41q-21 0 -21 22v260l-131 415q-4 11 1.5 19t16.5 8zM226 762l-153 72q-18 8 -8 26l16 31q9 17 26 8l144 -90q16 -9 8 -25l-8 -15q-9 -14 -25 -7z
" />
    <glyph glyph-name="ygrave" unicode="&#x1ef3;" horiz-adv-x="287" 
d="M58 556q21 0 24 -21l40 -281l19 -175h5l19 175l39 281q3 21 25 21h32q24 0 20 -26l-108 -709q-3 -21 -24 -21h-32q-24 0 -20 26l29 174h-17q-21 0 -25 21l-78 509q-4 26 20 26h32zM159 603l-114 113q-14 14 2 27l26 24q15 12 27 -2l98 -127q13 -13 -1 -26l-11 -11
q-14 -11 -27 2z" />
    <glyph glyph-name="endash" unicode="&#x2013;" horiz-adv-x="554" 
d="M42 314h471q21 0 21 -21v-27q0 -22 -21 -22h-471q-22 0 -22 22v27q0 21 22 21z" />
    <glyph glyph-name="emdash" unicode="&#x2014;" horiz-adv-x="1051" 
d="M42 314h968q21 0 21 -21v-27q0 -22 -21 -22h-968q-22 0 -22 22v27q0 21 22 21z" />
    <glyph glyph-name="quoteleft" unicode="&#x2018;" horiz-adv-x="192" 
d="M44 606l49 193q4 20 22 20h14q23 0 21 -23l-12 -194q-2 -21 -23 -21h-51q-25 0 -20 25z" />
    <glyph glyph-name="quoteright" unicode="&#x2019;" horiz-adv-x="192" 
d="M150 794l-49 -193q-4 -20 -22 -20h-14q-23 0 -20 23l11 195q3 20 23 20h52q11 0 16.5 -7t2.5 -18z" />
    <glyph glyph-name="quotesinglbase" unicode="&#x201a;" horiz-adv-x="192" 
d="M150 88l-49 -193q-4 -20 -22 -20h-14q-23 0 -20 23l11 195q3 20 23 20h52q11 0 16.5 -7t2.5 -18z" />
    <glyph glyph-name="quotedblleft" unicode="&#x201c;" horiz-adv-x="322" 
d="M176 606l48 193q6 20 22 20h15q22 0 20 -23l-12 -194q-1 -21 -23 -21h-51q-26 0 -19 25zM46 606l49 193q4 20 22 20h14q23 0 20 -23l-11 -194q-3 -21 -23 -21h-52q-11 0 -16.5 7t-2.5 18z" />
    <glyph glyph-name="quotedblright" unicode="&#x201d;" horiz-adv-x="322" 
d="M150 794l-49 -193q-4 -20 -22 -20h-14q-23 0 -20 23l11 195q3 20 23 20h52q11 0 16.5 -7t2.5 -18zM280 794l-49 -193q-4 -20 -22 -20h-14q-23 0 -21 23l12 195q1 20 23 20h51q25 0 20 -25z" />
    <glyph glyph-name="quotedblbase" unicode="&#x201e;" horiz-adv-x="322" 
d="M150 88l-49 -193q-4 -20 -22 -20h-14q-23 0 -20 23l11 195q3 20 23 20h52q11 0 16.5 -7t2.5 -18zM280 88l-49 -193q-4 -20 -22 -20h-14q-23 0 -21 23l12 195q1 20 23 20h51q25 0 20 -25z" />
    <glyph glyph-name="dagger" unicode="&#x2020;" horiz-adv-x="368" 
d="M220 703v-229h121q22 0 22 -21v-26q0 -21 -22 -21h-121v-585q0 -21 -22 -21h-28q-22 0 -22 21v585h-121q-22 0 -22 21v26q0 21 22 21h121v229q0 21 22 21h28q22 0 22 -21z" />
    <glyph glyph-name="daggerdbl" unicode="&#x2021;" horiz-adv-x="368" 
d="M148 119v287h-121q-22 0 -22 21v26q0 21 22 21h121v229q0 21 22 21h28q22 0 22 -21v-229h121q22 0 22 -21v-26q0 -21 -22 -21h-121v-287h121q22 0 22 -22v-25q0 -22 -22 -22h-121v-229q0 -21 -22 -21h-28q-22 0 -22 21v229h-121q-22 0 -22 22v25q0 22 22 22h121z" />
    <glyph glyph-name="bullet" unicode="&#x2022;" horiz-adv-x="314" 
d="M40 362q0 52 32.5 84.5t84.5 32.5t84.5 -32.5t32.5 -84.5t-32.5 -84.5t-84.5 -32.5t-84.5 32.5t-32.5 84.5z" />
    <glyph glyph-name="ellipsis" unicode="&#x2026;" horiz-adv-x="696" 
d="M40 51q0 25 15.5 40.5t40.5 15.5t40.5 -15.5t15.5 -40.5t-15.5 -40.5t-40.5 -15.5t-40.5 15.5t-15.5 40.5zM292 51q0 25 15.5 40.5t40.5 15.5t40.5 -15.5t15.5 -40.5t-15.5 -40.5t-40.5 -15.5t-40.5 15.5t-15.5 40.5zM544 51q0 25 15.5 40.5t40.5 15.5t40.5 -15.5
t15.5 -40.5t-15.5 -40.5t-40.5 -15.5t-40.5 15.5t-15.5 40.5z" />
    <glyph glyph-name="perthousand" unicode="&#x2030;" horiz-adv-x="745" 
d="M412 316q-28 0 -28 -30v-210q0 -30 28 -30t28 30v210q0 30 -28 30zM412 365q47 0 69 -19t22 -60v-210q0 -79 -91 -79t-91 79v210q0 41 22 60t69 19zM634 316q-28 0 -28 -30v-210q0 -30 28 -30t28 30v210q0 30 -28 30zM634 365q47 0 69 -19t22 -60v-210q0 -79 -91 -79
t-91 79v210q0 41 22 60t69 19zM429 699l-270 -687q-6 -12 -19 -12h-33q-10 1 -14 9t0 16l270 687q6 12 19 12h33q10 -1 14 -8.5t0 -16.5zM111 678q-28 0 -28 -30v-210q0 -30 28 -30t28 30v210q0 30 -28 30zM111 727q47 0 69 -19t22 -60v-210q0 -79 -91 -79t-91 79v210
q0 41 22 60t69 19z" />
    <glyph glyph-name="guilsinglleft" unicode="&#x2039;" horiz-adv-x="241" 
d="M125 279l74 -184q4 -10 -0.5 -19.5t-17.5 -9.5h-39q-17 0 -22 14l-80 199l80 198q5 15 22 15h39q13 0 17.5 -10t0.5 -20z" />
    <glyph glyph-name="guilsinglright" unicode="&#x203a;" horiz-adv-x="241" 
d="M116 279l-74 183q-4 10 0.5 20t17.5 10h39q17 0 22 -15l80 -198l-80 -199q-5 -14 -22 -14h-39q-13 0 -17.5 9.5t-0.5 19.5z" />
    <glyph glyph-name="fraction" unicode="&#x2044;" horiz-adv-x="80" 
d="M208 699l-270 -687q-6 -12 -19 -12h-33q-10 1 -14 9t0 16l270 687q6 12 19 12h33q10 -1 14 -8.5t0 -16.5z" />
    <glyph glyph-name="zero.sups" unicode="&#x2070;" horiz-adv-x="222" 
d="M111 803q-28 0 -28 -30v-210q0 -30 28 -30t28 30v210q0 30 -28 30zM111 852q47 0 69 -19t22 -60v-210q0 -79 -91 -79t-91 79v210q0 41 22 60t69 19z" />
    <glyph glyph-name="four.sups" unicode="&#x2074;" horiz-adv-x="217" 
d="M176 676v-64h23q18 0 18 -19v-20q0 -18 -18 -18h-23v-49q0 -19 -18 -19h-26q-18 0 -18 19v49h-85q-19 0 -19 18v23q0 10 4 19l65 222q5 12 18 12h28q22 0 17 -26l-67 -211h39v64q0 18 18 18h26q18 0 18 -18z" />
    <glyph glyph-name="five.sups" unicode="&#x2075;" horiz-adv-x="222" 
d="M20 652v179q0 18 19 18h140q18 0 18 -18v-21q0 -18 -18 -18h-100v-91q29 23 58 23q30 0 47.5 -17.5t17.5 -50.5v-93q0 -79 -91 -79t-91 79v15q0 18 19 18h26q18 0 18 -18v-15q0 -30 28 -30t28 30v83q0 29 -26 29q-25 0 -29 -24l-1 -3q-2 -14 -18 -14h-26q-19 0 -19 18z
" />
    <glyph glyph-name="six.sups" unicode="&#x2076;" horiz-adv-x="222" 
d="M137 698q30 0 47.5 -17t17.5 -51v-67q0 -79 -91 -79t-91 79v210q0 41 22 60t69 19t69 -19t22 -60v-17q0 -19 -18 -19h-27q-18 0 -18 19v17q0 30 -28 30t-28 -30v-94q25 19 54 19zM83 563q0 -30 28 -30t28 30v57q0 29 -27 29t-29 -28v-58z" />
    <glyph glyph-name="seven.sups" unicode="&#x2077;" horiz-adv-x="197" 
d="M188 789l-86 -289q-5 -13 -18 -13h-28q-11 0 -15 9t-1 17l88 279h-99q-19 0 -19 18v21q0 18 19 18h145q18 0 18 -18v-23q0 -10 -4 -19z" />
    <glyph glyph-name="eight.sups" unicode="&#x2078;" horiz-adv-x="222" 
d="M111 484q-91 0 -91 79v31q0 57 46 73v4q-46 16 -46 73v29q0 41 22 60t69 19t69 -19t22 -60v-29q0 -57 -46 -73v-4q46 -16 46 -73v-31q0 -79 -91 -79zM111 533q28 0 28 30v52q0 30 -28 30t-28 -30v-52q0 -30 28 -30zM83 737q0 -14 6 -27t17 -13q23 -4 28 22q5 0 5 41
q0 39 -24 39q-24 4 -27 -21q-5 0 -5 -41z" />
    <glyph glyph-name="nine.sups" unicode="&#x2079;" horiz-adv-x="222" 
d="M85 633q-65 0 -65 67v73q0 79 91 79t91 -79v-210q0 -79 -91 -79t-91 79v15q0 18 19 18h26q18 0 18 -18v-15q0 -30 28 -30t28 30v89q-25 -19 -54 -19zM139 773q0 30 -28 30t-28 -30v-62q0 -30 26 -30q28 0 30 29v63z" />
    <glyph glyph-name="plus.sups" unicode="&#x207a;" horiz-adv-x="222" 
d="M137 741v-47h47q18 0 18 -18v-14q0 -19 -18 -19h-47v-46q0 -19 -18 -19h-15q-19 0 -19 19v46h-46q-19 0 -19 19v14q0 18 19 18h46v47q0 18 19 18h15q18 0 18 -18z" />
    <glyph glyph-name="minus.sups" unicode="&#x207b;" horiz-adv-x="222" 
d="M39 694h145q18 0 18 -18v-14q0 -19 -18 -19h-145q-19 0 -19 19v14q0 18 19 18z" />
    <glyph glyph-name="equal.sups" unicode="&#x207c;" horiz-adv-x="222" 
d="M39 641h145q18 0 18 -19v-14q0 -18 -18 -18h-145q-19 0 -19 18v14q0 19 19 19zM39 748h145q18 0 18 -18v-15q0 -18 -18 -18h-145q-19 0 -19 18v15q0 18 19 18z" />
    <glyph glyph-name="parenleft.sups" unicode="&#x207d;" horiz-adv-x="150" 
d="M30 668q0 122 50 228q5 11 18 11h29q13 0 16.5 -10.5t-1.5 -17.5q-45 -90 -45 -211q0 -119 45 -211q5 -7 1.5 -17.5t-16.5 -10.5h-29q-13 0 -18 11q-50 108 -50 228z" />
    <glyph glyph-name="parenright.sups" unicode="&#x207e;" horiz-adv-x="150" 
d="M120 668q0 -123 -50 -228q-5 -11 -18 -11h-29q-12 0 -16 10.5t1 17.5q45 92 45 211q0 121 -45 211q-5 7 -1 17.5t16 10.5h29q13 0 18 -11q50 -103 50 -228z" />
    <glyph glyph-name="n.sups" unicode="&#x207f;" horiz-adv-x="198" 
d="M178 720v-215q0 -18 -18 -18h-24q-18 0 -18 18v198q0 21 -18 21q-20 0 -20 -22v-197q0 -18 -18 -18h-23q-19 0 -19 18v248q0 18 19 18h23q18 0 18 -17v-3q21 23 52 23q20 0 33 -13.5t13 -40.5z" />
    <glyph glyph-name="zero.sinf" unicode="&#x2080;" horiz-adv-x="222" 
d="M111 186q-28 0 -28 -30v-210q0 -30 28 -30t28 30v210q0 30 -28 30zM111 235q47 0 69 -19t22 -60v-210q0 -79 -91 -79t-91 79v210q0 41 22 60t69 19z" />
    <glyph glyph-name="one.sinf" unicode="&#x2081;" horiz-adv-x="150" 
d="M67 201v13q0 18 19 18h26q18 0 18 -18v-325q0 -19 -18 -19h-26q-19 0 -19 19v243h-43q-19 0 -19 18v12q0 18 19 18h23q20 0 20 21z" />
    <glyph glyph-name="two.sinf" unicode="&#x2082;" horiz-adv-x="222" 
d="M139 128v28q0 30 -28 30t-28 -30v-41q0 -19 -18 -19h-26q-19 0 -19 19v41q0 41 22 60t69 19t69 -19t22 -60v-22q0 -41 -20 -70l-90 -137h92q18 0 18 -18v-20q0 -19 -18 -19h-145q-19 0 -19 19v22q0 10 5 19l102 159q12 18 12 39z" />
    <glyph glyph-name="three.sinf" unicode="&#x2083;" horiz-adv-x="222" 
d="M110 29h-13q-18 0 -18 18v10q0 18 18 18h13q29 0 29 30v51q0 30 -28 30t-28 -30v-31q0 -19 -18 -19h-26q-19 0 -19 19v31q0 41 22 60t69 19t69 -19t22 -60v-29q0 -57 -46 -73v-4q46 -16 46 -73v-31q0 -79 -91 -79t-91 79v32q0 18 19 18h26q18 0 18 -18v-32q0 -30 28 -30
t28 30v53q0 30 -29 30z" />
    <glyph glyph-name="four.sinf" unicode="&#x2084;" horiz-adv-x="217" 
d="M176 59v-64h23q18 0 18 -19v-20q0 -18 -18 -18h-23v-49q0 -19 -18 -19h-26q-18 0 -18 19v49h-85q-19 0 -19 18v23q0 10 4 19l65 222q5 12 18 12h28q22 0 17 -26l-67 -211h39v64q0 18 18 18h26q18 0 18 -18z" />
    <glyph glyph-name="five.sinf" unicode="&#x2085;" horiz-adv-x="222" 
d="M20 35v179q0 18 19 18h140q18 0 18 -18v-21q0 -18 -18 -18h-100v-91q29 23 58 23q30 0 47.5 -17.5t17.5 -50.5v-93q0 -79 -91 -79t-91 79v15q0 18 19 18h26q18 0 18 -18v-15q0 -30 28 -30t28 30v83q0 29 -26 29q-25 0 -29 -24l-1 -3q-2 -14 -18 -14h-26q-19 0 -19 18z
" />
    <glyph glyph-name="six.sinf" unicode="&#x2086;" horiz-adv-x="222" 
d="M137 81q30 0 47.5 -17t17.5 -51v-67q0 -79 -91 -79t-91 79v210q0 41 22 60t69 19t69 -19t22 -60v-17q0 -19 -18 -19h-27q-18 0 -18 19v17q0 30 -28 30t-28 -30v-94q25 19 54 19zM83 -54q0 -30 28 -30t28 30v57q0 29 -27 29t-29 -28v-58z" />
    <glyph glyph-name="seven.sinf" unicode="&#x2087;" horiz-adv-x="197" 
d="M188 172l-86 -290q-5 -12 -18 -12h-28q-12 0 -15.5 8.5t-0.5 17.5l88 279h-99q-19 0 -19 18v21q0 18 19 18h145q18 0 18 -18v-23q0 -10 -4 -19z" />
    <glyph glyph-name="eight.sinf" unicode="&#x2088;" horiz-adv-x="222" 
d="M111 -133q-91 0 -91 79v31q0 57 46 73v4q-46 16 -46 73v29q0 41 22 60t69 19t69 -19t22 -60v-29q0 -57 -46 -73v-4q46 -16 46 -73v-31q0 -79 -91 -79zM111 -84q28 0 28 30v51q0 31 -28 31t-28 -31v-51q0 -30 28 -30zM83 120q0 -14 6 -27t17 -13q23 -4 28 22q5 0 5 41
q0 39 -24 39q-24 4 -27 -21q-5 0 -5 -41z" />
    <glyph glyph-name="nine.sinf" unicode="&#x2089;" horiz-adv-x="222" 
d="M85 16q-65 0 -65 67v73q0 79 91 79t91 -79v-210q0 -41 -22 -60t-69 -19q-48 0 -69.5 19t-21.5 60v14q0 18 19 18h26q18 0 18 -18v-14q0 -30 28 -30t28 30v89q-25 -19 -54 -19zM139 156q0 30 -28 30t-28 -30v-62q0 -30 26 -30q28 0 30 29v63z" />
    <glyph glyph-name="parenleft.sinf" unicode="&#x208d;" horiz-adv-x="150" 
d="M30 51q0 122 50 228q5 11 18 11h29q13 0 16.5 -10t-1.5 -18q-45 -90 -45 -211q0 -119 45 -211q5 -8 1.5 -18t-16.5 -10h-29q-13 0 -18 11q-50 108 -50 228z" />
    <glyph glyph-name="parenright.sinf" unicode="&#x208e;" horiz-adv-x="150" 
d="M120 51q0 -123 -50 -228q-5 -11 -18 -11h-29q-12 0 -16 10t1 18q45 92 45 211q0 121 -45 211q-5 8 -1 18t16 10h29q13 0 18 -11q50 -103 50 -228z" />
    <glyph glyph-name="Euro" unicode="&#x20ac;" horiz-adv-x="423" 
d="M42 458h34v124q0 75 33.5 111t119.5 36t120 -36t34 -111v-57q0 -22 -21 -22h-41q-21 0 -21 22v57q0 39 -15.5 58t-55.5 19t-55 -19t-15 -58v-124h109q21 0 21 -21v-27q0 -22 -21 -22h-109v-52h109q21 0 21 -21v-27q0 -22 -21 -22h-109v-124q0 -39 15 -58t55 -19t55.5 19
t15.5 58v58q0 21 21 21h41q21 0 21 -21v-58q0 -75 -34 -111t-120 -36t-119.5 36t-33.5 111v124h-34q-22 0 -22 22v27q0 21 22 21h34v52h-34q-22 0 -22 22v27q0 21 22 21z" />
    <glyph glyph-name="uni2113" unicode="&#x2113;" horiz-adv-x="212" 
d="M117 779v-648q0 -35 12.5 -51t46.5 -16h14q22 0 22 -21v-21q0 -22 -22 -22h-14q-76 0 -106 31.5t-30 98.5v649q0 21 22 21h33q22 0 22 -21z" />
    <glyph glyph-name="uni2117" unicode="&#x2117;" horiz-adv-x="754" 
d="M79 362q0 -133 84 -219t214 -86t214 86t84 219t-84 219t-214 86t-214 -86t-84 -219zM10 362q0 160 103.5 263.5t263.5 103.5t263.5 -103.5t103.5 -263.5t-103.5 -263.5t-263.5 -103.5t-263.5 103.5t-103.5 263.5zM380 313h-35v-159q0 -19 -19 -19h-31q-19 0 -19 19v423
q0 19 19 19h85q71 0 98 -29.5t27 -91.5v-41q0 -62 -27 -91.5t-98 -29.5zM345 538v-167h35q33 0 45 15.5t12 48.5v39q0 33 -12 48.5t-45 15.5h-35z" />
    <glyph glyph-name="trademark" unicode="&#x2122;" horiz-adv-x="487" 
d="M185 673h-50v-292q0 -19 -18 -19h-30q-19 0 -19 19v292h-49q-19 0 -19 19v14q0 18 19 18h166q18 0 18 -18v-14q0 -19 -18 -19zM363 430h-35q-14 0 -18 14l-29 175h-4l4 -71v-167q0 -19 -18 -19h-21q-19 0 -19 19v325q0 18 19 18h50q16 0 19 -17l20 -102l12 -85h4l12 85
l20 102q3 17 19 17h51q18 0 18 -18v-325q0 -19 -18 -19h-21q-19 0 -19 19v167l5 71h-4l-30 -175q-2 -14 -17 -14z" />
    <glyph glyph-name="uni2126" unicode="&#x2126;" horiz-adv-x="385" 
d="M193 659q-40 0 -55.5 -19t-15.5 -58v-259q0 -15 1.5 -28.5t7.5 -32t8.5 -26t13 -33.5t13.5 -33q5 -12 5 -21v-127q0 -22 -22 -22h-117q-22 0 -22 22v32q0 21 22 21h70v71q-35 63 -49 104.5t-14 98.5v233q0 75 34 111t120 36t119.5 -36t33.5 -111v-233q0 -57 -14 -98.5
t-49 -104.5v-71h71q21 0 21 -21v-32q0 -22 -21 -22h-118q-21 0 -21 22v127q0 12 4 21q3 7 13.5 33t13 33.5t8.5 26t7.5 32t1.5 28.5v259q0 39 -15 58t-55 19z" />
    <glyph glyph-name="estimated" unicode="&#x212e;" horiz-adv-x="388" 
d="M348 582v-233q0 -22 -22 -22h-202v-185q0 -39 15 -58t55 -19t55 19t15 58v65q0 22 22 22h40q22 0 22 -22v-65q0 -75 -34 -111t-120 -36t-120 36t-34 111v440q0 75 34 111t120 36t120 -36t34 -111zM124 582v-185h140v185q0 39 -15 58t-55 19t-55 -19t-15 -58z" />
    <glyph glyph-name="onethird" unicode="&#x2153;" horiz-adv-x="482" 
d="M67 693v13q0 18 19 18h26q18 0 18 -18v-325q0 -19 -18 -19h-26q-19 0 -19 19v243h-43q-19 0 -19 18v12q0 18 19 18h23q20 0 20 21zM388 699l-270 -687q-6 -12 -19 -12h-33q-10 1 -14 9t0 16l270 687q6 12 19 12h33q10 -1 14 -8.5t0 -16.5zM370 159h-13q-18 0 -18 18v10
q0 18 18 18h13q29 0 29 30v51q0 30 -28 30t-28 -30v-31q0 -19 -18 -19h-26q-19 0 -19 19v31q0 41 22 60t69 19t69 -19t22 -60v-29q0 -57 -46 -73v-4q46 -16 46 -73v-31q0 -79 -91 -79t-91 79v32q0 18 19 18h26q18 0 18 -18v-32q0 -30 28 -30t28 30v53q0 30 -29 30z" />
    <glyph glyph-name="twothirds" unicode="&#x2154;" horiz-adv-x="523" 
d="M429 699l-270 -687q-6 -12 -19 -12h-33q-10 1 -14 9t0 16l270 687q6 12 19 12h33q10 -1 14 -8.5t0 -16.5zM411 159h-13q-18 0 -18 18v10q0 18 18 18h13q29 0 29 30v51q0 30 -28 30t-28 -30v-31q0 -19 -18 -19h-26q-19 0 -19 19v31q0 41 22 60t69 19t69 -19t22 -60v-29
q0 -57 -46 -73v-4q46 -16 46 -73v-31q0 -79 -91 -79t-91 79v32q0 18 19 18h26q18 0 18 -18v-32q0 -30 28 -30t28 30v53q0 30 -29 30zM139 620v28q0 30 -28 30t-28 -30v-41q0 -19 -18 -19h-26q-19 0 -19 19v41q0 41 22 60t69 19t69 -19t22 -60v-22q0 -41 -20 -70l-90 -137h92
q18 0 18 -18v-20q0 -19 -18 -19h-145q-19 0 -19 19v23q0 9 5 18l102 159q12 18 12 39z" />
    <glyph glyph-name="oneeighth" unicode="&#x215b;" horiz-adv-x="482" 
d="M371 -3q-91 0 -91 79v31q0 57 46 73v4q-46 16 -46 73v29q0 41 22 60t69 19t69 -19t22 -60v-29q0 -57 -46 -73v-4q46 -16 46 -73v-31q0 -79 -91 -79zM371 46q28 0 28 30v52q0 30 -28 30t-28 -30v-52q0 -30 28 -30zM343 250q0 -14 6 -27t17 -13q23 -4 28 22q5 0 5 41
q0 39 -24 39q-24 4 -27 -21q-5 0 -5 -41zM67 693v13q0 18 19 18h26q18 0 18 -18v-325q0 -19 -18 -19h-26q-19 0 -19 19v243h-43q-19 0 -19 18v12q0 18 19 18h23q20 0 20 21zM388 699l-270 -687q-6 -12 -19 -12h-33q-10 1 -14 9t0 16l270 687q6 12 19 12h33q10 -1 14 -8.5
t0 -16.5z" />
    <glyph glyph-name="threeeighths" unicode="&#x215c;" horiz-adv-x="523" 
d="M412 -3q-91 0 -91 79v31q0 57 46 73v4q-46 16 -46 73v29q0 41 22 60t69 19t69 -19t22 -60v-29q0 -57 -46 -73v-4q46 -16 46 -73v-31q0 -79 -91 -79zM412 46q28 0 28 30v52q0 30 -28 30t-28 -30v-52q0 -30 28 -30zM384 250q0 -14 6 -27t17 -13q23 -4 28 22q5 0 5 41
q0 39 -24 39q-24 4 -27 -21q-5 0 -5 -41zM110 521h-13q-18 0 -18 18v10q0 18 18 18h13q29 0 29 30v51q0 30 -28 30t-28 -30v-31q0 -19 -18 -19h-26q-19 0 -19 19v31q0 41 22 60t69 19t69 -19t22 -60v-29q0 -57 -46 -73v-4q46 -16 46 -73v-31q0 -79 -91 -79t-91 79v32
q0 18 19 18h26q18 0 18 -18v-32q0 -30 28 -30t28 30v53q0 30 -29 30zM429 699l-270 -687q-6 -12 -19 -12h-33q-10 1 -14 9t0 16l270 687q6 12 19 12h33q10 -1 14 -8.5t0 -16.5z" />
    <glyph glyph-name="fiveeighths" unicode="&#x215d;" horiz-adv-x="523" 
d="M20 527v179q0 18 19 18h140q18 0 18 -18v-21q0 -18 -18 -18h-100v-91q29 23 58 23q30 0 47.5 -17.5t17.5 -50.5v-93q0 -79 -91 -79t-91 79v15q0 18 19 18h26q18 0 18 -18v-15q0 -30 28 -30t28 30v83q0 29 -26 29q-25 0 -29 -24l-1 -3q-2 -14 -18 -14h-26q-19 0 -19 18z
M429 699l-270 -687q-6 -12 -19 -12h-33q-10 1 -14 9t0 16l270 687q6 12 19 12h33q10 -1 14 -8.5t0 -16.5zM412 -3q-91 0 -91 79v31q0 57 46 73v4q-46 16 -46 73v29q0 41 22 60t69 19t69 -19t22 -60v-29q0 -57 -46 -73v-4q46 -16 46 -73v-31q0 -79 -91 -79zM412 46
q28 0 28 30v52q0 30 -28 30t-28 -30v-52q0 -30 28 -30zM384 250q0 -14 6 -27t17 -13q23 -4 28 22q5 0 5 41q0 39 -24 39q-24 4 -27 -21q-5 0 -5 -41z" />
    <glyph glyph-name="seveneighths" unicode="&#x215e;" horiz-adv-x="468" 
d="M357 -3q-91 0 -91 79v31q0 57 46 73v4q-46 16 -46 73v29q0 41 22 60t69 19t69 -19t22 -60v-29q0 -57 -46 -73v-4q46 -16 46 -73v-31q0 -79 -91 -79zM357 46q28 0 28 30v52q0 30 -28 30t-28 -30v-52q0 -30 28 -30zM329 250q0 -14 6 -27t17 -13q23 -4 28 22q5 0 5 41
q0 39 -24 39q-24 4 -27 -21q-5 0 -5 -41zM374 699l-270 -687q-6 -12 -19 -12h-33q-10 1 -14 9t0 16l270 687q6 12 19 12h33q10 -1 14 -8.5t0 -16.5zM188 664l-86 -289q-5 -13 -18 -13h-28q-11 0 -15 9t-1 17l88 279h-99q-19 0 -19 18v21q0 18 19 18h145q18 0 18 -18v-23
q0 -10 -4 -19z" />
    <glyph glyph-name="partialdiff" unicode="&#x2202;" 
d="M207 529q-15 123 -96 243q-6 10 -2.5 19t14.5 9h39q19 0 27 -14q101 -154 101 -363v-309q0 -61 -27.5 -90t-97.5 -29t-97.5 29t-27.5 90v355q0 46 23.5 69t58.5 23q45 0 85 -32zM214 115v320q0 60 -53 60q-25 0 -34.5 -12t-9.5 -44v-324q0 -31 11.5 -43.5t36.5 -12.5
q26 0 37.5 12.5t11.5 43.5z" />
    <glyph glyph-name="uni2206" unicode="&#x2206;" horiz-adv-x="367" 
d="M337 0h-307q-10 0 -15.5 7t-3.5 18l104 677q3 22 24 22h90q20 0 23 -22l104 -677q3 -25 -19 -25zM158 460l-57 -385h164l-56 385l-23 194h-5z" />
    <glyph glyph-name="product" unicode="&#x220f;" horiz-adv-x="388" 
d="M62 724h264q22 0 22 -21v-681q0 -22 -22 -22h-40q-22 0 -22 22v632h-140v-632q0 -22 -22 -22h-40q-22 0 -22 22v681q0 21 22 21z" />
    <glyph glyph-name="summation" unicode="&#x2211;" horiz-adv-x="350" 
d="M133 654l113 -292l-113 -292h155q22 0 22 -21v-27q0 -22 -22 -22h-226q-22 0 -22 22v25q0 10 3 19l114 296l-114 297q-3 9 -3 18v26q0 21 22 21h226q22 0 22 -21v-27q0 -22 -22 -22h-155z" />
    <glyph glyph-name="minus" unicode="&#x2212;" horiz-adv-x="420" 
d="M62 398h297q21 0 21 -21v-27q0 -22 -21 -22h-297q-22 0 -22 22v27q0 21 22 21z" />
    <glyph glyph-name="radical" unicode="&#x221a;" horiz-adv-x="510" 
d="M262 143l150 640q5 17 21 17h37q13 0 17.5 -8t1.5 -19l-187 -760q-3 -13 -17 -13h-52q-14 0 -17 13l-104 423h-90q-22 0 -22 22v27q0 21 22 21h133q17 0 22 -18l79 -345h6z" />
    <glyph glyph-name="infinity" unicode="&#x221e;" horiz-adv-x="566" 
d="M283 324q-51 -57 -108 -73.5t-96 13.5t-39 96v7q0 66 39 95.5t96 13t108 -73.5q51 57 108 73.5t96 -13t39 -95.5v-7q0 -66 -39 -96t-96 -13.5t-108 73.5zM101 367v-8q0 -34 17.5 -47t49 0t68.5 51q-37 39 -68.5 52t-49 -0.5t-17.5 -47.5zM465 359v8q0 34 -17.5 47.5
t-49 0.5t-68.5 -52q37 -38 68.5 -51t49 0t17.5 47z" />
    <glyph glyph-name="integral" unicode="&#x222b;" horiz-adv-x="267" 
d="M90 -70v741q0 66 30 97.5t106 31.5h24q22 0 22 -21v-23q0 -21 -22 -21h-24q-34 0 -46.5 -16t-12.5 -51v-739q0 -66 -30 -97.5t-106 -31.5h-14q-22 0 -22 21v21q0 22 22 22h14q34 0 46.5 16t12.5 50z" />
    <glyph glyph-name="approxequal" unicode="&#x2248;" horiz-adv-x="451" 
d="M231 219l-66 58q-19 17 -38.5 8.5t-19.5 -33.5v-23q0 -20 -21 -20h-26q-20 0 -20 20v23q0 54 31.5 84.5t74 28.5t74.5 -32l66 -59q19 -17 39 -8.5t20 33.5v24q0 20 21 20h25q20 0 20 -20v-23q0 -55 -31.5 -85t-74 -28t-74.5 32zM231 394l-66 59q-19 17 -38.5 8.5
t-19.5 -33.5v-24q0 -20 -21 -20h-26q-20 0 -20 20v24q0 54 31.5 84t74 28t74.5 -31l66 -59q19 -17 39 -8.5t20 33.5v23q0 21 21 21h25q20 0 20 -21v-23q0 -54 -31.5 -84t-74 -28t-74.5 31z" />
    <glyph glyph-name="notequal" unicode="&#x2260;" horiz-adv-x="420" 
d="M81 154l37 83h-56q-22 0 -22 22v27q0 21 22 21h86l50 112h-136q-22 0 -22 22v27q0 21 22 21h165l50 109q8 20 28 11l22 -10q19 -7 12 -28l-38 -82h58q21 0 21 -21v-27q0 -22 -21 -22h-88l-50 -112h138q21 0 21 -21v-27q0 -22 -21 -22h-167l-49 -110q-8 -20 -28 -11
l-22 10q-19 7 -12 28z" />
    <glyph glyph-name="lessequal" unicode="&#x2264;" horiz-adv-x="420" 
d="M351 198l-296 123q-15 6 -15 23v38q0 17 15 23l296 123q10 4 19.5 -0.5t9.5 -16.5v-33q0 -18 -18 -24l-233 -88v-6l233 -88q18 -7 18 -24v-32q0 -13 -9 -17.5t-20 -0.5zM62 70h297q21 0 21 -21v-27q0 -22 -21 -22h-297q-22 0 -22 22v27q0 21 22 21z" />
    <glyph glyph-name="greaterequal" unicode="&#x2265;" horiz-adv-x="420" 
d="M69 528l297 -123q14 -6 14 -23v-38q0 -17 -14 -23l-297 -123q-10 -4 -19.5 0.5t-9.5 17.5v32q0 18 18 24l233 88v6l-233 88q-18 7 -18 24v33q0 12 9.5 16.5t19.5 0.5zM62 70h297q21 0 21 -21v-27q0 -22 -21 -22h-297q-22 0 -22 22v27q0 21 22 21z" />
    <glyph glyph-name="lozenge" unicode="&#x25ca;" horiz-adv-x="420" 
d="M380 362l-119 -345q-5 -17 -18 -17h-66q-13 0 -18 17l-119 345l119 346q5 16 18 16h66q15 0 18 -16zM294 362l-81 260h-6l-81 -260l81 -260h6z" />
    <glyph glyph-name="CR" horiz-adv-x="0" 
 />
    <glyph glyph-name="A.salt" horiz-adv-x="388" 
d="M348 582v-560q0 -22 -22 -22h-40q-22 0 -22 22v191h-140v-191q0 -22 -22 -22h-40q-22 0 -22 22v560q0 76 34 111.5t120 35.5t120 -35.5t34 -111.5zM124 582v-299h140v299q0 39 -15 58t-55 19t-55 -19t-15 -58z" />
    <glyph glyph-name="E.salt" horiz-adv-x="388" 
d="M222 332h-15q-49 0 -66 -22t-17 -69v-99q0 -39 15 -58t55 -19t55 19t15 58v78q0 21 22 21h40q22 0 22 -21v-78q0 -75 -34 -111t-120 -36t-120 36t-34 111v71q0 62 19.5 99t68.5 52v5q-49 14 -68.5 51t-19.5 100v62q0 75 34 111t120 36t120 -36t34 -111v-77q0 -22 -22 -22
h-40q-22 0 -22 22v77q0 39 -15 58t-55 19t-55 -19t-15 -58v-90q0 -47 17 -68.5t66 -21.5h15q21 0 21 -22v-27q0 -21 -21 -21z" />
    <glyph glyph-name="K.salt" horiz-adv-x="380" 
d="M340 213v-191q0 -22 -21 -22h-41q-21 0 -21 22v219q0 46 -17.5 68.5t-65.5 22.5h-50v-310q0 -22 -22 -22h-40q-22 0 -22 22v681q0 21 22 21h40q22 0 22 -21v-301h50q48 0 65.5 22t17.5 68v211q0 21 21 21h41q21 0 21 -21v-183q0 -63 -19 -100t-68 -51v-5q49 -15 68 -52
t19 -99z" />
    <glyph glyph-name="M.salt" horiz-adv-x="612" 
d="M572 582v-560q0 -22 -22 -22h-40q-22 0 -22 22v560q0 39 -15 58t-55 19t-55 -19t-15 -58v-560q0 -22 -22 -22h-40q-22 0 -22 22v560q0 39 -15 58t-55 19t-55 -19t-15 -58v-560q0 -22 -22 -22h-40q-22 0 -22 22v560q0 76 33 111.5t116 35.5q84 0 117 -43q33 43 117 43
q83 0 116 -35.5t33 -111.5z" />
    <glyph glyph-name="N.salt" horiz-adv-x="388" 
d="M348 582v-560q0 -22 -22 -22h-40q-22 0 -22 22v560q0 39 -15 58t-55 19t-55 -19t-15 -58v-560q0 -22 -22 -22h-40q-22 0 -22 22v560q0 76 34 111.5t120 35.5t120 -35.5t34 -111.5z" />
    <glyph glyph-name="R.salt" horiz-adv-x="380" 
d="M257 470v94q0 46 -17.5 68t-65.5 22h-50v-275h50q48 0 65.5 22.5t17.5 68.5zM340 564v-66q0 -63 -19 -100t-68 -51v-5q49 -15 68 -52t19 -99v-169q0 -22 -21 -22h-41q-21 0 -21 22v197q0 46 -17.5 68t-65.5 22h-50v-287q0 -22 -22 -22h-40q-22 0 -22 22v681q0 21 22 21
h112q94 0 130 -39t36 -121z" />
    <glyph glyph-name="V.salt" horiz-adv-x="388" 
d="M124 70h70q40 0 55 19t15 58v556q0 21 22 21h40q22 0 22 -21v-556q0 -75 -34 -111t-120 -36h-132q-22 0 -22 22v681q0 21 22 21h40q22 0 22 -21v-633z" />
    <glyph glyph-name="W.salt" horiz-adv-x="612" 
d="M40 142v561q0 21 22 21h40q22 0 22 -21v-561q0 -39 15 -58t55 -19t55 19t15 58v561q0 21 22 21h40q22 0 22 -21v-561q0 -39 15 -58t55 -19t55 19t15 58v561q0 21 22 21h40q22 0 22 -21v-561q0 -75 -33 -111t-116 -36q-84 0 -117 43q-33 -43 -117 -43q-83 0 -116 36
t-33 111z" />
    <glyph glyph-name="X.salt" horiz-adv-x="368" 
d="M245 241q0 85 -61 85q-34 0 -47 -22t-13 -63v-219q0 -22 -22 -22h-40q-22 0 -22 22v191q0 62 19.5 99t68.5 52v5q-49 14 -68.5 51t-19.5 100v183q0 21 22 21h40q22 0 22 -21v-211q0 -42 13 -64t47 -22t47.5 22.5t13.5 63.5v211q0 21 21 21h41q21 0 21 -21v-183
q0 -63 -19 -100t-68 -51v-5q49 -15 68 -52t19 -99v-191q0 -22 -21 -22h-41q-21 0 -21 22v219z" />
    <glyph glyph-name="Y.salt" horiz-adv-x="388" 
d="M40 456v247q0 21 22 21h40q22 0 22 -21v-247q0 -39 15 -58t55 -19t55 19t15 58v247q0 21 22 21h40q22 0 22 -21v-247q0 -66 -25 -101t-87 -43v-290q0 -22 -22 -22h-40q-22 0 -22 22v290q-63 8 -87.5 43t-24.5 101z" />
    <glyph glyph-name="AE.salt" horiz-adv-x="612" 
d="M189 729q84 0 117 -43q33 43 117 43q83 0 116 -35.5t33 -111.5v-77q0 -22 -22 -22h-40q-22 0 -22 22v77q0 39 -15 58t-55 19t-55 -19t-15 -58v-180h98q21 0 21 -22v-27q0 -21 -21 -21h-98v-190q0 -39 15 -58t55 -19t55 19t15 58v78q0 21 22 21h40q22 0 22 -21v-78
q0 -75 -34 -111t-120 -36t-120 36t-34 111v190h-140v-310q0 -22 -22 -22h-40q-22 0 -22 22v560q0 76 33 111.5t116 35.5zM124 582v-180h140v180q0 39 -15 58t-55 19t-55 -19t-15 -58z" />
    <glyph glyph-name="OE.salt" horiz-adv-x="612" 
d="M423 -5q-84 0 -117 43q-33 -43 -117 -43q-83 0 -116 36t-33 111v440q0 76 33 111.5t116 35.5q84 0 117 -43q33 43 117 43q83 0 116 -35.5t33 -111.5v-77q0 -22 -22 -22h-40q-22 0 -22 22v77q0 39 -15 58t-55 19t-55 -19t-15 -58v-180h98q21 0 21 -22v-27q0 -21 -21 -21
h-98v-190q0 -39 15 -58t55 -19t55 19t15 58v78q0 21 22 21h40q22 0 22 -21v-78q0 -75 -33 -111t-116 -36zM124 582v-440q0 -39 15 -58t55 -19t55 19t15 58v440q0 39 -15 58t-55 19t-55 -19t-15 -58z" />
    <glyph glyph-name="Aacute.salt" horiz-adv-x="388" 
d="M348 582v-560q0 -22 -22 -22h-40q-22 0 -22 22v191h-140v-191q0 -22 -22 -22h-40q-22 0 -22 22v560q0 76 34 111.5t120 35.5t120 -35.5t34 -111.5zM124 582v-299h140v299q0 39 -15 58t-55 19t-55 -19t-15 -58zM293 834l-154 -72q-16 -7 -25 7l-8 15q-8 16 8 25l144 90
q17 9 26 -8l17 -31q10 -18 -8 -26z" />
    <glyph glyph-name="Abreve.salt" horiz-adv-x="388" 
d="M313 876q0 -54 -27 -81.5t-93 -27.5t-93 27.5t-27 81.5q0 19 19 19h17q19 0 19 -19q0 -26 14.5 -37.5t50.5 -11.5t50.5 11.5t14.5 37.5q0 19 19 19h17q19 0 19 -19zM348 582v-560q0 -22 -22 -22h-40q-22 0 -22 22v191h-140v-191q0 -22 -22 -22h-40q-22 0 -22 22v560
q0 76 34 111.5t120 35.5t120 -35.5t34 -111.5zM124 582v-299h140v299q0 39 -15 58t-55 19t-55 -19t-15 -58z" />
    <glyph glyph-name="Acircumflex.salt" horiz-adv-x="388" 
d="M348 582v-560q0 -22 -22 -22h-40q-22 0 -22 22v191h-140v-191q0 -22 -22 -22h-40q-22 0 -22 22v560q0 76 34 111.5t120 35.5t120 -35.5t34 -111.5zM124 582v-299h140v299q0 39 -15 58t-55 19t-55 -19t-15 -58zM194 823l-108 -60q-18 -8 -27 6l-8 13q-9 14 6 26l111 86
q7 6 16 6h21q8 0 15 -6l112 -86q14 -10 6 -26l-8 -13q-10 -14 -27 -5z" />
    <glyph glyph-name="Adieresis.salt" horiz-adv-x="388" 
d="M64 825q0 20 13 33t33 13q21 0 34 -13t13 -33q0 -21 -13 -33.5t-34 -12.5q-20 0 -33 12.5t-13 33.5zM231 825q0 20 12.5 33t33.5 13q20 0 33 -13t13 -33q0 -21 -13 -33.5t-33 -12.5q-21 0 -33.5 12.5t-12.5 33.5zM348 582v-560q0 -22 -22 -22h-40q-22 0 -22 22v191h-140
v-191q0 -22 -22 -22h-40q-22 0 -22 22v560q0 76 34 111.5t120 35.5t120 -35.5t34 -111.5zM124 582v-299h140v299q0 39 -15 58t-55 19t-55 -19t-15 -58z" />
    <glyph glyph-name="Agrave.salt" horiz-adv-x="388" 
d="M248 762l-153 72q-18 8 -8 26l16 31q9 17 26 8l144 -90q16 -9 8 -25l-8 -15q-9 -14 -25 -7zM348 582v-560q0 -22 -22 -22h-40q-22 0 -22 22v191h-140v-191q0 -22 -22 -22h-40q-22 0 -22 22v560q0 76 34 111.5t120 35.5t120 -35.5t34 -111.5zM124 582v-299h140v299
q0 39 -15 58t-55 19t-55 -19t-15 -58z" />
    <glyph glyph-name="Amacron.salt" horiz-adv-x="388" 
d="M94 854h201q19 0 19 -19v-27q0 -19 -19 -19h-201q-19 0 -19 19v27q0 19 19 19zM348 582v-560q0 -22 -22 -22h-40q-22 0 -22 22v191h-140v-191q0 -22 -22 -22h-40q-22 0 -22 22v560q0 76 34 111.5t120 35.5t120 -35.5t34 -111.5zM124 582v-299h140v299q0 39 -15 58t-55 19
t-55 -19t-15 -58z" />
    <glyph glyph-name="Aogonek.salt" horiz-adv-x="388" 
d="M243 -48l32 50q-11 5 -11 20v191h-140v-191q0 -22 -22 -22h-40q-22 0 -22 22v560q0 76 34 111.5t120 35.5t120 -35.5t34 -111.5v-560q0 -8 -3 -13l-49 -79q-18 -28 -11 -49.5t35 -21.5h28q18 0 18 -18v-23q0 -18 -18 -18h-32q-48 0 -72.5 25t-23 59.5t22.5 67.5zM124 582
v-299h140v299q0 39 -15 58t-55 19t-55 -19t-15 -58z" />
    <glyph glyph-name="Aring.salt" horiz-adv-x="388" 
d="M348 582v-560q0 -22 -22 -22h-40q-22 0 -22 22v191h-140v-191q0 -22 -22 -22h-40q-22 0 -22 22v560q0 76 34 111.5t120 35.5t120 -35.5t34 -111.5zM124 582v-299h140v299q0 39 -15 58t-55 19t-55 -19t-15 -58zM108 824q0 38 24 61.5t62 23.5t61.5 -23.5t23.5 -61.5
t-23.5 -62t-61.5 -24t-62 24t-24 62zM156 824q0 -17 10.5 -28.5t27.5 -11.5q16 0 26.5 11.5t10.5 28.5t-10.5 28t-26.5 11q-17 0 -27.5 -11t-10.5 -28z" />
    <glyph glyph-name="Atilde.salt" horiz-adv-x="388" 
d="M192 781l-42 36q-11 10 -24 5t-13 -22v-15q0 -18 -18 -18h-20q-18 0 -18 18v17q0 41 25 63.5t58 21t57 -23.5l42 -35q12 -11 24.5 -6t12.5 23v15q0 18 18 18h20q18 0 18 -18v-17q0 -41 -25 -63.5t-57.5 -21.5t-57.5 23zM348 582v-560q0 -22 -22 -22h-40q-22 0 -22 22v191
h-140v-191q0 -22 -22 -22h-40q-22 0 -22 22v560q0 76 34 111.5t120 35.5t120 -35.5t34 -111.5zM124 582v-299h140v299q0 39 -15 58t-55 19t-55 -19t-15 -58z" />
    <glyph glyph-name="Eacute.salt" horiz-adv-x="388" 
d="M293 834l-154 -72q-16 -7 -25 7l-8 15q-8 16 8 25l144 90q17 9 26 -8l17 -31q10 -18 -8 -26zM222 332h-15q-49 0 -66 -22t-17 -69v-99q0 -39 15 -58t55 -19t55 19t15 58v78q0 21 22 21h40q22 0 22 -21v-78q0 -75 -34 -111t-120 -36t-120 36t-34 111v71q0 62 19.5 99
t68.5 52v5q-49 14 -68.5 51t-19.5 100v62q0 75 34 111t120 36t120 -36t34 -111v-77q0 -22 -22 -22h-40q-22 0 -22 22v77q0 39 -15 58t-55 19t-55 -19t-15 -58v-90q0 -47 17 -68.5t66 -21.5h15q21 0 21 -22v-27q0 -21 -21 -21z" />
    <glyph glyph-name="Ebreve.salt" horiz-adv-x="388" 
d="M313 876q0 -54 -27 -81.5t-93 -27.5t-93 27.5t-27 81.5q0 19 19 19h17q19 0 19 -19q0 -26 14.5 -37.5t50.5 -11.5t50.5 11.5t14.5 37.5q0 19 19 19h17q19 0 19 -19zM222 332h-15q-49 0 -66 -22t-17 -69v-99q0 -39 15 -58t55 -19t55 19t15 58v78q0 21 22 21h40
q22 0 22 -21v-78q0 -75 -34 -111t-120 -36t-120 36t-34 111v71q0 62 19.5 99t68.5 52v5q-49 14 -68.5 51t-19.5 100v62q0 75 34 111t120 36t120 -36t34 -111v-77q0 -22 -22 -22h-40q-22 0 -22 22v77q0 39 -15 58t-55 19t-55 -19t-15 -58v-90q0 -47 17 -68.5t66 -21.5h15
q21 0 21 -22v-27q0 -21 -21 -21z" />
    <glyph glyph-name="Ecaron.salt" horiz-adv-x="388" 
d="M194 836l109 60q17 9 27 -5l8 -13q8 -16 -6 -26l-112 -87q-8 -6 -15 -6h-21q-7 0 -16 6l-111 86q-15 12 -6 26l8 13q9 16 27 6zM222 332h-15q-49 0 -66 -22t-17 -69v-99q0 -39 15 -58t55 -19t55 19t15 58v78q0 21 22 21h40q22 0 22 -21v-78q0 -75 -34 -111t-120 -36
t-120 36t-34 111v71q0 62 19.5 99t68.5 52v5q-49 14 -68.5 51t-19.5 100v62q0 75 34 111t120 36t120 -36t34 -111v-77q0 -22 -22 -22h-40q-22 0 -22 22v77q0 39 -15 58t-55 19t-55 -19t-15 -58v-90q0 -47 17 -68.5t66 -21.5h15q21 0 21 -22v-27q0 -21 -21 -21z" />
    <glyph glyph-name="Ecircumflex.salt" horiz-adv-x="388" 
d="M194 823l-108 -60q-18 -8 -27 6l-8 13q-9 14 6 26l111 86q7 6 16 6h21q8 0 15 -6l112 -86q14 -10 6 -26l-8 -13q-10 -14 -27 -5zM222 332h-15q-49 0 -66 -22t-17 -69v-99q0 -39 15 -58t55 -19t55 19t15 58v78q0 21 22 21h40q22 0 22 -21v-78q0 -75 -34 -111t-120 -36
t-120 36t-34 111v71q0 62 19.5 99t68.5 52v5q-49 14 -68.5 51t-19.5 100v62q0 75 34 111t120 36t120 -36t34 -111v-77q0 -22 -22 -22h-40q-22 0 -22 22v77q0 39 -15 58t-55 19t-55 -19t-15 -58v-90q0 -47 17 -68.5t66 -21.5h15q21 0 21 -22v-27q0 -21 -21 -21z" />
    <glyph glyph-name="Edieresis.salt" horiz-adv-x="388" 
d="M64 825q0 20 13 33t33 13q21 0 34 -13t13 -33q0 -21 -13 -33.5t-34 -12.5q-20 0 -33 12.5t-13 33.5zM231 825q0 20 12.5 33t33.5 13q20 0 33 -13t13 -33q0 -21 -13 -33.5t-33 -12.5q-21 0 -33.5 12.5t-12.5 33.5zM222 332h-15q-49 0 -66 -22t-17 -69v-99q0 -39 15 -58
t55 -19t55 19t15 58v78q0 21 22 21h40q22 0 22 -21v-78q0 -75 -34 -111t-120 -36t-120 36t-34 111v71q0 62 19.5 99t68.5 52v5q-49 14 -68.5 51t-19.5 100v62q0 75 34 111t120 36t120 -36t34 -111v-77q0 -22 -22 -22h-40q-22 0 -22 22v77q0 39 -15 58t-55 19t-55 -19
t-15 -58v-90q0 -47 17 -68.5t66 -21.5h15q21 0 21 -22v-27q0 -21 -21 -21z" />
    <glyph glyph-name="Edotaccent.salt" horiz-adv-x="388" 
d="M144 825q0 22 14 36t36 14t36 -14t14 -36t-14 -36t-36 -14t-36 14t-14 36zM222 332h-15q-49 0 -66 -22t-17 -69v-99q0 -39 15 -58t55 -19t55 19t15 58v78q0 21 22 21h40q22 0 22 -21v-78q0 -75 -34 -111t-120 -36t-120 36t-34 111v71q0 62 19.5 99t68.5 52v5
q-49 14 -68.5 51t-19.5 100v62q0 75 34 111t120 36t120 -36t34 -111v-77q0 -22 -22 -22h-40q-22 0 -22 22v77q0 39 -15 58t-55 19t-55 -19t-15 -58v-90q0 -47 17 -68.5t66 -21.5h15q21 0 21 -22v-27q0 -21 -21 -21z" />
    <glyph glyph-name="Egrave.salt" horiz-adv-x="388" 
d="M248 762l-153 72q-18 8 -8 26l16 31q9 17 26 8l144 -90q16 -9 8 -25l-8 -15q-9 -14 -25 -7zM222 332h-15q-49 0 -66 -22t-17 -69v-99q0 -39 15 -58t55 -19t55 19t15 58v78q0 21 22 21h40q22 0 22 -21v-78q0 -75 -34 -111t-120 -36t-120 36t-34 111v71q0 62 19.5 99
t68.5 52v5q-49 14 -68.5 51t-19.5 100v62q0 75 34 111t120 36t120 -36t34 -111v-77q0 -22 -22 -22h-40q-22 0 -22 22v77q0 39 -15 58t-55 19t-55 -19t-15 -58v-90q0 -47 17 -68.5t66 -21.5h15q21 0 21 -22v-27q0 -21 -21 -21z" />
    <glyph glyph-name="Emacron.salt" horiz-adv-x="388" 
d="M94 854h201q19 0 19 -19v-27q0 -19 -19 -19h-201q-19 0 -19 19v27q0 19 19 19zM222 332h-15q-49 0 -66 -22t-17 -69v-99q0 -39 15 -58t55 -19t55 19t15 58v78q0 21 22 21h40q22 0 22 -21v-78q0 -75 -34 -111t-120 -36t-120 36t-34 111v71q0 62 19.5 99t68.5 52v5
q-49 14 -68.5 51t-19.5 100v62q0 75 34 111t120 36t120 -36t34 -111v-77q0 -22 -22 -22h-40q-22 0 -22 22v77q0 39 -15 58t-55 19t-55 -19t-15 -58v-90q0 -47 17 -68.5t66 -21.5h15q21 0 21 -22v-27q0 -21 -21 -21z" />
    <glyph glyph-name="Eogonek.salt" horiz-adv-x="388" 
d="M222 332h-15q-49 0 -66 -22t-17 -69v-99q0 -39 15 -58t55 -19t55 19t15 58v78q0 21 22 21h40q22 0 22 -21v-78q0 -73 -31 -108l-64 -104q-18 -28 -11 -49.5t35 -21.5h28q18 0 18 -18v-23q0 -18 -18 -18h-32q-48 0 -72.5 25.5t-23 60t23.5 66.5l29 45q-22 -2 -36 -2
q-86 0 -120 36t-34 111v71q0 62 19.5 99t68.5 52v5q-49 14 -68.5 51t-19.5 100v62q0 75 34 111t120 36t120 -36t34 -111v-77q0 -22 -22 -22h-40q-22 0 -22 22v77q0 39 -15 58t-55 19t-55 -19t-15 -58v-90q0 -47 17 -68.5t66 -21.5h15q21 0 21 -22v-27q0 -21 -21 -21z" />
    <glyph glyph-name="Kcommaaccent.salt" horiz-adv-x="380" 
d="M230 -84l-26 -97q-6 -19 -20 -19h-16q-18 0 -17 19l4 102q0 19 20 19h39q23 0 16 -24zM340 213v-191q0 -22 -21 -22h-41q-21 0 -21 22v219q0 46 -17.5 68.5t-65.5 22.5h-50v-310q0 -22 -22 -22h-40q-22 0 -22 22v681q0 21 22 21h40q22 0 22 -21v-301h50q48 0 65.5 22
t17.5 68v211q0 21 21 21h41q21 0 21 -21v-183q0 -63 -19 -100t-68 -51v-5q49 -15 68 -52t19 -99z" />
    <glyph glyph-name="Nacute.salt" horiz-adv-x="388" 
d="M348 582v-560q0 -22 -22 -22h-40q-22 0 -22 22v560q0 39 -15 58t-55 19t-55 -19t-15 -58v-560q0 -22 -22 -22h-40q-22 0 -22 22v560q0 76 34 111.5t120 35.5t120 -35.5t34 -111.5zM293 834l-154 -72q-16 -7 -25 7l-8 15q-8 16 8 25l144 90q17 9 26 -8l17 -31
q10 -18 -8 -26z" />
    <glyph glyph-name="Ncaron.salt" horiz-adv-x="388" 
d="M348 582v-560q0 -22 -22 -22h-40q-22 0 -22 22v560q0 39 -15 58t-55 19t-55 -19t-15 -58v-560q0 -22 -22 -22h-40q-22 0 -22 22v560q0 76 34 111.5t120 35.5t120 -35.5t34 -111.5zM194 836l109 60q17 9 27 -5l8 -13q8 -16 -6 -26l-112 -87q-8 -6 -15 -6h-21q-7 0 -16 6
l-111 86q-15 12 -6 26l8 13q9 16 27 6z" />
    <glyph glyph-name="Ncommaaccent.salt" horiz-adv-x="388" 
d="M348 582v-560q0 -22 -22 -22h-40q-22 0 -22 22v560q0 39 -15 58t-55 19t-55 -19t-15 -58v-560q0 -22 -22 -22h-40q-22 0 -22 22v560q0 76 34 111.5t120 35.5t120 -35.5t34 -111.5zM232 -84l-26 -97q-6 -19 -20 -19h-16q-18 0 -17 19l4 102q0 19 20 19h39q23 0 16 -24z
" />
    <glyph glyph-name="Ntilde.salt" horiz-adv-x="388" 
d="M348 582v-560q0 -22 -22 -22h-40q-22 0 -22 22v560q0 39 -15 58t-55 19t-55 -19t-15 -58v-560q0 -22 -22 -22h-40q-22 0 -22 22v560q0 76 34 111.5t120 35.5t120 -35.5t34 -111.5zM192 781l-42 36q-11 10 -24 5t-13 -22v-15q0 -18 -18 -18h-20q-18 0 -18 18v17
q0 41 25 63.5t58 21t57 -23.5l42 -35q12 -11 24.5 -6t12.5 23v15q0 18 18 18h20q18 0 18 -18v-17q0 -41 -25 -63.5t-57.5 -21.5t-57.5 23z" />
    <glyph glyph-name="Racute.salt" horiz-adv-x="380" 
d="M277 834l-154 -72q-16 -7 -25 7l-8 15q-8 16 8 25l144 90q17 9 26 -8l17 -31q10 -18 -8 -26zM257 470v94q0 46 -17.5 68t-65.5 22h-50v-275h50q48 0 65.5 22.5t17.5 68.5zM340 564v-66q0 -63 -19 -100t-68 -51v-5q49 -15 68 -52t19 -99v-169q0 -22 -21 -22h-41
q-21 0 -21 22v197q0 46 -17.5 68t-65.5 22h-50v-287q0 -22 -22 -22h-40q-22 0 -22 22v681q0 21 22 21h112q94 0 130 -39t36 -121z" />
    <glyph glyph-name="Rcaron.salt" horiz-adv-x="380" 
d="M170 836l109 60q17 9 27 -5l8 -13q8 -16 -6 -26l-112 -87q-8 -6 -15 -6h-21q-7 0 -16 6l-111 86q-15 12 -6 26l8 13q9 16 27 6zM257 470v94q0 46 -17.5 68t-65.5 22h-50v-275h50q48 0 65.5 22.5t17.5 68.5zM340 564v-66q0 -63 -19 -100t-68 -51v-5q49 -15 68 -52t19 -99
v-169q0 -22 -21 -22h-41q-21 0 -21 22v197q0 46 -17.5 68t-65.5 22h-50v-287q0 -22 -22 -22h-40q-22 0 -22 22v681q0 21 22 21h112q94 0 130 -39t36 -121z" />
    <glyph glyph-name="Rcommaaccent.salt" horiz-adv-x="380" 
d="M229 -84l-26 -97q-6 -19 -20 -19h-16q-18 0 -17 19l4 102q0 19 20 19h39q23 0 16 -24zM257 470v94q0 46 -17.5 68t-65.5 22h-50v-275h50q48 0 65.5 22.5t17.5 68.5zM340 564v-66q0 -63 -19 -100t-68 -51v-5q49 -15 68 -52t19 -99v-169q0 -22 -21 -22h-41q-21 0 -21 22
v197q0 46 -17.5 68t-65.5 22h-50v-287q0 -22 -22 -22h-40q-22 0 -22 22v681q0 21 22 21h112q94 0 130 -39t36 -121z" />
    <glyph glyph-name="Wacute.salt" horiz-adv-x="612" 
d="M402 834l-154 -72q-16 -7 -25 7l-8 15q-8 16 8 25l144 90q17 9 26 -8l17 -31q10 -18 -8 -26zM40 142v561q0 21 22 21h40q22 0 22 -21v-561q0 -39 15 -58t55 -19t55 19t15 58v561q0 21 22 21h40q22 0 22 -21v-561q0 -39 15 -58t55 -19t55 19t15 58v561q0 21 22 21h40
q22 0 22 -21v-561q0 -75 -33 -111t-116 -36q-84 0 -117 43q-33 -43 -117 -43q-83 0 -116 36t-33 111z" />
    <glyph glyph-name="Wcircumflex.salt" horiz-adv-x="612" 
d="M40 142v561q0 21 22 21h40q22 0 22 -21v-561q0 -39 15 -58t55 -19t55 19t15 58v561q0 21 22 21h40q22 0 22 -21v-561q0 -39 15 -58t55 -19t55 19t15 58v561q0 21 22 21h40q22 0 22 -21v-561q0 -75 -33 -111t-116 -36q-84 0 -117 43q-33 -43 -117 -43q-83 0 -116 36
t-33 111zM305 823l-108 -60q-18 -8 -27 6l-8 13q-9 14 6 26l111 86q7 6 16 6h21q8 0 15 -6l112 -86q14 -10 6 -26l-8 -13q-10 -14 -27 -5z" />
    <glyph glyph-name="Wdieresis.salt" horiz-adv-x="612" 
d="M176 825q0 20 13 33t33 13q21 0 34 -13t13 -33q0 -21 -13 -33.5t-34 -12.5q-20 0 -33 12.5t-13 33.5zM343 825q0 20 12.5 33t33.5 13q20 0 33 -13t13 -33q0 -21 -13 -33.5t-33 -12.5q-21 0 -33.5 12.5t-12.5 33.5zM40 142v561q0 21 22 21h40q22 0 22 -21v-561
q0 -39 15 -58t55 -19t55 19t15 58v561q0 21 22 21h40q22 0 22 -21v-561q0 -39 15 -58t55 -19t55 19t15 58v561q0 21 22 21h40q22 0 22 -21v-561q0 -75 -33 -111t-116 -36q-84 0 -117 43q-33 -43 -117 -43q-83 0 -116 36t-33 111z" />
    <glyph glyph-name="Wgrave.salt" horiz-adv-x="612" 
d="M362 762l-153 72q-18 8 -8 26l16 31q9 17 26 8l144 -90q16 -9 8 -25l-8 -15q-9 -14 -25 -7zM40 142v561q0 21 22 21h40q22 0 22 -21v-561q0 -39 15 -58t55 -19t55 19t15 58v561q0 21 22 21h40q22 0 22 -21v-561q0 -39 15 -58t55 -19t55 19t15 58v561q0 21 22 21h40
q22 0 22 -21v-561q0 -75 -33 -111t-116 -36q-84 0 -117 43q-33 -43 -117 -43q-83 0 -116 36t-33 111z" />
    <glyph glyph-name="Yacute.salt" horiz-adv-x="388" 
d="M40 456v247q0 21 22 21h40q22 0 22 -21v-247q0 -39 15 -58t55 -19t55 19t15 58v247q0 21 22 21h40q22 0 22 -21v-247q0 -66 -25 -101t-87 -43v-290q0 -22 -22 -22h-40q-22 0 -22 22v290q-63 8 -87.5 43t-24.5 101zM311 834l-154 -72q-16 -7 -25 7l-8 15q-8 16 8 25
l144 90q17 9 26 -8l17 -31q10 -18 -8 -26z" />
    <glyph glyph-name="Ycircumflex.salt" horiz-adv-x="388" 
d="M40 456v247q0 21 22 21h40q22 0 22 -21v-247q0 -39 15 -58t55 -19t55 19t15 58v247q0 21 22 21h40q22 0 22 -21v-247q0 -66 -25 -101t-87 -43v-290q0 -22 -22 -22h-40q-22 0 -22 22v290q-63 8 -87.5 43t-24.5 101zM194 823l-108 -60q-18 -8 -27 6l-8 13q-9 14 6 26
l111 86q7 6 16 6h21q8 0 15 -6l112 -86q14 -10 6 -26l-8 -13q-10 -14 -27 -5z" />
    <glyph glyph-name="Ydieresis.salt" horiz-adv-x="388" 
d="M64 825q0 20 13 33t33 13q21 0 34 -13t13 -33q0 -21 -13 -33.5t-34 -12.5q-20 0 -33 12.5t-13 33.5zM231 825q0 20 12.5 33t33.5 13q20 0 33 -13t13 -33q0 -21 -13 -33.5t-33 -12.5q-21 0 -33.5 12.5t-12.5 33.5zM40 456v247q0 21 22 21h40q22 0 22 -21v-247
q0 -39 15 -58t55 -19t55 19t15 58v247q0 21 22 21h40q22 0 22 -21v-247q0 -66 -25 -101t-87 -43v-290q0 -22 -22 -22h-40q-22 0 -22 22v290q-63 8 -87.5 43t-24.5 101z" />
    <glyph glyph-name="Ygrave.salt" horiz-adv-x="388" 
d="M231 762l-153 72q-18 8 -8 26l16 31q9 17 26 8l144 -90q16 -9 8 -25l-8 -15q-9 -14 -25 -7zM40 456v247q0 21 22 21h40q22 0 22 -21v-247q0 -39 15 -58t55 -19t55 19t15 58v247q0 21 22 21h40q22 0 22 -21v-247q0 -66 -25 -101t-87 -43v-290q0 -22 -22 -22h-40
q-22 0 -22 22v290q-63 8 -87.5 43t-24.5 101z" />
    <glyph glyph-name="m.salt" horiz-adv-x="504" 
d="M341 561q68 0 95.5 -29t27.5 -90v-420q0 -22 -22 -22h-33q-22 0 -22 22v419q0 31 -11 43.5t-37 12.5t-37.5 -12.5t-11.5 -43.5v-419q0 -22 -21 -22h-34q-21 0 -21 22v419q0 31 -11.5 43.5t-37.5 12.5t-37 -12.5t-11 -43.5v-419q0 -22 -22 -22h-33q-22 0 -22 22v420
q0 61 27.5 90t95.5 29q59 0 89 -32q30 32 89 32z" />
    <glyph glyph-name="n.salt" 
d="M290 442v-420q0 -22 -21 -22h-34q-21 0 -21 22v419q0 31 -11.5 43.5t-37.5 12.5t-37 -12.5t-11 -43.5v-419q0 -22 -22 -22h-33q-22 0 -22 22v420q0 61 27.5 90t97.5 29t97.5 -29t27.5 -90z" />
    <glyph glyph-name="v.salt" 
d="M165 0h-103q-22 0 -22 22v513q0 21 22 21h33q22 0 22 -21v-471h48q26 0 37.5 12.5t11.5 43.5v415q0 21 21 21h34q21 0 21 -21v-416q0 -61 -27.5 -90t-97.5 -29z" />
    <glyph glyph-name="w.salt" horiz-adv-x="504" 
d="M341 -5q-58 0 -89 33q-31 -33 -89 -33q-68 0 -95.5 29t-27.5 90v421q0 21 22 21h33q22 0 22 -21v-420q0 -31 11.5 -43.5t36.5 -12.5q26 0 37.5 12.5t11.5 43.5v420q0 21 21 21h34q21 0 21 -21v-420q0 -31 11.5 -43.5t37.5 -12.5q25 0 36.5 12.5t11.5 43.5v420q0 21 22 21
h33q22 0 22 -21v-421q0 -61 -27.5 -90t-95.5 -29z" />
    <glyph glyph-name="x.salt" 
d="M214 180q0 32 -10.5 47.5t-38.5 15.5t-38 -15.5t-10 -47.5v-158q0 -22 -22 -22h-33q-22 0 -22 22v133q0 50 15.5 80t54.5 41v6q-39 11 -54.5 41t-15.5 80v132q0 21 22 21h33q22 0 22 -21v-158q0 -32 10 -47.5t38 -15.5t38.5 15.5t10.5 47.5v158q0 21 21 21h34
q21 0 21 -21v-132q0 -51 -15.5 -80.5t-54.5 -40.5v-6q39 -11 54.5 -40.5t15.5 -80.5v-133q0 -22 -21 -22h-34q-21 0 -21 22v158z" />
    <glyph glyph-name="i.TRK" horiz-adv-x="157" 
d="M117 535v-513q0 -22 -22 -22h-33q-22 0 -22 22v513q0 21 22 21h33q22 0 22 -21zM30 679q0 22 13.5 35.5t34.5 13.5q22 0 35.5 -13.5t13.5 -35.5q0 -21 -13.5 -34.5t-35.5 -13.5q-21 0 -34.5 13.5t-13.5 34.5z" />
    <glyph glyph-name="nacute.salt" 
d="M290 442v-420q0 -22 -21 -22h-34q-21 0 -21 22v419q0 31 -11.5 43.5t-37.5 12.5t-37 -12.5t-11 -43.5v-419q0 -22 -22 -22h-33q-22 0 -22 22v420q0 61 27.5 90t97.5 29t97.5 -29t27.5 -90zM249 716l-113 -113q-13 -13 -27 -2l-11 11q-14 13 -1 26l98 127q12 14 27 2
l26 -24q15 -13 1 -27z" />
    <glyph glyph-name="napostrophe.salt" 
d="M290 442v-420q0 -22 -21 -22h-34q-21 0 -21 22v419q0 31 -11.5 43.5t-37.5 12.5t-37 -12.5t-11 -43.5v-419q0 -22 -22 -22h-33q-22 0 -22 22v420q0 61 27.5 90t97.5 29t97.5 -29t27.5 -90zM125 779l-33 -145q-3 -19 -20 -19h-16q-19 0 -17 19l9 147q1 19 21 19h40
q22 0 16 -21z" />
    <glyph glyph-name="ncaron.salt" 
d="M290 442v-420q0 -22 -21 -22h-34q-21 0 -21 22v419q0 31 -11.5 43.5t-37.5 12.5t-37 -12.5t-11 -43.5v-419q0 -22 -22 -22h-33q-22 0 -22 22v420q0 61 27.5 90t97.5 29t97.5 -29t27.5 -90zM165 681l75 83q12 15 26 3l11 -10q12 -11 2 -25l-86 -124q-8 -10 -20 -10h-15
q-13 0 -20 10l-87 124q-10 14 2 25l11 10q14 12 26 -3z" />
    <glyph glyph-name="ncommaaccent.salt" 
d="M290 442v-420q0 -22 -21 -22h-34q-21 0 -21 22v419q0 31 -11.5 43.5t-37.5 12.5t-37 -12.5t-11 -43.5v-419q0 -22 -22 -22h-33q-22 0 -22 22v420q0 61 27.5 90t97.5 29t97.5 -29t27.5 -90zM204 -84l-26 -97q-6 -19 -20 -19h-16q-18 0 -17 19l4 102q0 19 20 19h39
q23 0 16 -24z" />
    <glyph glyph-name="ntilde.salt" 
d="M290 442v-420q0 -22 -21 -22h-34q-21 0 -21 22v419q0 31 -11.5 43.5t-37.5 12.5t-37 -12.5t-11 -43.5v-419q0 -22 -22 -22h-33q-22 0 -22 22v420q0 61 27.5 90t97.5 29t97.5 -29t27.5 -90zM153 645l-25 28q-12 13 -25.5 8.5t-13.5 -18.5v-22q0 -18 -18 -18h-20
q-18 0 -18 18v26q0 38 26 59t61 17.5t58 -30.5l25 -29q12 -13 25.5 -8t13.5 19v22q0 18 18 18h20q18 0 18 -18v-27q0 -38 -26 -59t-60.5 -17t-58.5 31z" />
    <glyph glyph-name="wacute.salt" horiz-adv-x="504" 
d="M328 716l-113 -113q-13 -13 -27 -2l-11 11q-14 13 -1 26l98 127q12 14 27 2l26 -24q15 -13 1 -27zM341 -5q-58 0 -89 33q-31 -33 -89 -33q-68 0 -95.5 29t-27.5 90v421q0 21 22 21h33q22 0 22 -21v-420q0 -31 11.5 -43.5t36.5 -12.5q26 0 37.5 12.5t11.5 43.5v420
q0 21 21 21h34q21 0 21 -21v-420q0 -31 11.5 -43.5t37.5 -12.5q25 0 36.5 12.5t11.5 43.5v420q0 21 22 21h33q22 0 22 -21v-421q0 -61 -27.5 -90t-95.5 -29z" />
    <glyph glyph-name="wcircumflex.salt" horiz-adv-x="504" 
d="M251 691l-75 -84q-12 -13 -26 -2l-11 10q-12 11 -2 25l87 123q6 10 20 10h15q13 0 20 -10l86 -123q10 -14 -2 -25l-11 -10q-14 -11 -26 2zM341 -5q-58 0 -89 33q-31 -33 -89 -33q-68 0 -95.5 29t-27.5 90v421q0 21 22 21h33q22 0 22 -21v-420q0 -31 11.5 -43.5
t36.5 -12.5q26 0 37.5 12.5t11.5 43.5v420q0 21 21 21h34q21 0 21 -21v-420q0 -31 11.5 -43.5t37.5 -12.5q25 0 36.5 12.5t11.5 43.5v420q0 21 22 21h33q22 0 22 -21v-421q0 -61 -27.5 -90t-95.5 -29z" />
    <glyph glyph-name="wdieresis.salt" horiz-adv-x="504" 
d="M279 678q0 20 12 32.5t32 12.5t32.5 -12.5t12.5 -32.5t-12.5 -32.5t-32.5 -12.5t-32 12.5t-12 32.5zM135 678q0 20 12.5 32.5t32.5 12.5t32.5 -12.5t12.5 -32.5t-12.5 -32.5t-32.5 -12.5t-32.5 12.5t-12.5 32.5zM341 -5q-58 0 -89 33q-31 -33 -89 -33q-68 0 -95.5 29
t-27.5 90v421q0 21 22 21h33q22 0 22 -21v-420q0 -31 11.5 -43.5t36.5 -12.5q26 0 37.5 12.5t11.5 43.5v420q0 21 21 21h34q21 0 21 -21v-420q0 -31 11.5 -43.5t37.5 -12.5q25 0 36.5 12.5t11.5 43.5v420q0 21 22 21h33q22 0 22 -21v-421q0 -61 -27.5 -90t-95.5 -29z" />
    <glyph glyph-name="wgrave.salt" horiz-adv-x="504" 
d="M341 -5q-58 0 -89 33q-31 -33 -89 -33q-68 0 -95.5 29t-27.5 90v421q0 21 22 21h33q22 0 22 -21v-420q0 -31 11.5 -43.5t36.5 -12.5q26 0 37.5 12.5t11.5 43.5v420q0 21 21 21h34q21 0 21 -21v-420q0 -31 11.5 -43.5t37.5 -12.5q25 0 36.5 12.5t11.5 43.5v420q0 21 22 21
h33q22 0 22 -21v-421q0 -61 -27.5 -90t-95.5 -29zM289 603l-114 113q-14 14 2 27l26 24q15 12 27 -2l98 -127q13 -13 -1 -26l-11 -11q-14 -11 -27 2z" />
    <glyph glyph-name="iacute_jacute" horiz-adv-x="313" 
d="M117 535v-513q0 -22 -22 -22h-33q-22 0 -22 22v513q0 21 22 21h33q22 0 22 -21zM197 -70v605q0 21 21 21h34q21 0 21 -21v-606q0 -66 -30 -97.5t-105 -31.5h-15q-21 0 -21 21v21q0 22 21 22h15q34 0 46.5 16t12.5 50zM338 716l-114 -113q-13 -13 -27 -2l-11 11
q-14 13 -1 26l98 127q12 14 27 2l26 -24q16 -13 2 -27zM181 716l-114 -113q-12 -14 -26 -2l-11 11q-15 12 -2 26l98 127q14 14 27 2l27 -24q15 -13 1 -27z" />
    <glyph glyph-name="a.smcp" horiz-adv-x="292" 
d="M233 0q-22 0 -25 22l-14 100h-97l-13 -100q-3 -22 -25 -22h-32q-24 0 -20 26l79 509q3 21 24 21h72q21 0 24 -21l78 -509q4 -26 -19 -26h-32zM123 302l-17 -116h80l-17 116l-20 176h-6z" />
    <glyph glyph-name="a.smcp..salt" 
d="M290 442v-420q0 -22 -21 -22h-34q-21 0 -21 22v151h-97v-151q0 -22 -22 -22h-33q-22 0 -22 22v420q0 61 27.5 90t97.5 29t97.5 -29t27.5 -90zM117 441v-204h97v204q0 31 -11.5 43.5t-37.5 12.5t-37 -12.5t-11 -43.5z" />
    <glyph glyph-name="b.smcp" horiz-adv-x="329" 
d="M40 22v513q0 21 22 21h93q75 0 105 -31.5t30 -97.5v-24q0 -51 -15.5 -80.5t-54.5 -40.5v-6q39 -11 54.5 -40.5t15.5 -80.5v-25q0 -66 -30 -98t-105 -32h-93q-22 0 -22 22zM117 247v-183h38q34 0 46.5 16.5t12.5 50.5v49q0 34 -12.5 50.5t-46.5 16.5h-38zM117 492v-181h38
q34 0 46.5 16t12.5 50v49q0 34 -12.5 50t-46.5 16h-38z" />
    <glyph glyph-name="c.smcp" 
d="M290 442v-79q0 -21 -21 -21h-34q-21 0 -21 21v78q0 31 -11.5 43.5t-37.5 12.5t-37 -12.5t-11 -43.5v-326q0 -31 11.5 -43.5t36.5 -12.5q26 0 37.5 12.5t11.5 43.5v78q0 22 21 22h34q21 0 21 -22v-79q0 -61 -27.5 -90t-97.5 -29t-97.5 29t-27.5 90v328q0 61 27.5 90
t97.5 29t97.5 -29t27.5 -90z" />
    <glyph glyph-name="d.smcp" 
d="M155 0h-93q-22 0 -22 22v513q0 21 22 21h93q75 0 105 -31.5t30 -97.5v-297q0 -66 -30 -98t-105 -32zM117 492v-428h38q34 0 46.5 16.5t12.5 50.5v295q0 34 -12.5 50t-46.5 16h-38z" />
    <glyph glyph-name="e.smcp" horiz-adv-x="265" 
d="M62 556h172q21 0 21 -21v-21q0 -22 -21 -22h-117v-181h99q21 0 21 -22v-21q0 -21 -21 -21h-99v-183h117q21 0 21 -21v-21q0 -22 -21 -22h-172q-22 0 -22 22v513q0 21 22 21z" />
    <glyph glyph-name="e.smcp..salt" 
d="M187 247h-11q-34 0 -46.5 -16t-12.5 -51v-65q0 -31 11.5 -43.5t36.5 -12.5q26 0 37.5 12.5t11.5 43.5v41q0 21 21 21h34q21 0 21 -21v-42q0 -61 -27.5 -90t-97.5 -29t-97.5 29t-27.5 90v41q0 50 15.5 80t54.5 41v6q-39 11 -54.5 41t-15.5 80v39q0 61 27.5 90t97.5 29
t97.5 -29t27.5 -90v-41q0 -22 -21 -22h-34q-21 0 -21 22v40q0 31 -11.5 43.5t-37.5 12.5t-37 -12.5t-11 -43.5v-64q0 -34 12.5 -50t46.5 -16h11q21 0 21 -22v-21q0 -21 -21 -21z" />
    <glyph glyph-name="f.smcp" horiz-adv-x="260" 
d="M62 556h172q21 0 21 -21v-21q0 -22 -21 -22h-117v-181h99q21 0 21 -22v-21q0 -21 -21 -21h-99v-225q0 -22 -22 -22h-33q-22 0 -22 22v513q0 21 22 21z" />
    <glyph glyph-name="g.smcp" 
d="M180 285h89q21 0 21 -22v-149q0 -61 -27.5 -90t-97.5 -29t-97.5 29t-27.5 90v328q0 61 27.5 90t97.5 29t97.5 -29t27.5 -90v-54q0 -21 -21 -21h-34q-21 0 -21 21v53q0 31 -11.5 43.5t-37.5 12.5t-37 -12.5t-11 -43.5v-326q0 -31 11.5 -43.5t36.5 -12.5q26 0 37.5 12.5
t11.5 43.5v106h-34q-21 0 -21 21v21q0 22 21 22z" />
    <glyph glyph-name="h.smcp" 
d="M117 535v-224h97v224q0 21 21 21h34q21 0 21 -21v-513q0 -22 -21 -22h-34q-21 0 -21 22v225h-97v-225q0 -22 -22 -22h-33q-22 0 -22 22v513q0 21 22 21h33q22 0 22 -21z" />
    <glyph glyph-name="i.smcp" horiz-adv-x="157" 
d="M117 535v-513q0 -22 -22 -22h-33q-22 0 -22 22v513q0 21 22 21h33q22 0 22 -21z" />
    <glyph glyph-name="j.smcp" horiz-adv-x="310" 
d="M194 115v420q0 21 21 21h34q21 0 21 -21v-421q0 -61 -27.5 -90t-97.5 -29t-97.5 29t-27.5 90v54q0 22 22 22h33q22 0 22 -22v-53q0 -31 11.5 -43.5t36.5 -12.5q26 0 37.5 12.5t11.5 43.5z" />
    <glyph glyph-name="k.smcp" horiz-adv-x="318" 
d="M117 535v-220h5l113 228q7 13 21 13h39q12 0 16.5 -10t-0.5 -19l-124 -248l124 -250q5 -9 0.5 -19t-16.5 -10h-39q-15 0 -21 14l-113 228h-5v-220q0 -22 -22 -22h-33q-22 0 -22 22v513q0 21 22 21h33q22 0 22 -21z" />
    <glyph glyph-name="k.smcp..salt" 
d="M117 535v-224h38q34 0 46.5 16t12.5 50v158q0 21 21 21h34q21 0 21 -21v-132q0 -51 -15.5 -80.5t-54.5 -40.5v-6q39 -11 54.5 -40.5t15.5 -80.5v-133q0 -22 -21 -22h-34q-21 0 -21 22v158q0 34 -12.5 50.5t-46.5 16.5h-38v-225q0 -22 -22 -22h-33q-22 0 -22 22v513
q0 21 22 21h33q22 0 22 -21z" />
    <glyph glyph-name="l.smcp" horiz-adv-x="260" 
d="M234 0h-172q-22 0 -22 22v513q0 21 22 21h33q22 0 22 -21v-471h117q21 0 21 -21v-21q0 -22 -21 -22z" />
    <glyph glyph-name="m.smcp" horiz-adv-x="405" 
d="M225 101h-46q-21 0 -24 20l-46 317h-5l7 -112v-304q0 -22 -21 -22h-28q-22 0 -22 22v513q0 21 22 21h65q18 0 21 -19l35 -210l17 -135h5l18 135l34 210q3 19 21 19h65q22 0 22 -21v-513q0 -22 -22 -22h-28q-22 0 -22 22v304l8 112h-6l-45 -317q-3 -20 -25 -20z" />
    <glyph glyph-name="m.smcp..salt" horiz-adv-x="504" 
d="M341 561q68 0 95.5 -29t27.5 -90v-420q0 -22 -22 -22h-33q-22 0 -22 22v419q0 31 -11 43.5t-37 12.5t-37.5 -12.5t-11.5 -43.5v-419q0 -22 -21 -22h-34q-21 0 -21 22v419q0 31 -11.5 43.5t-37.5 12.5t-37 -12.5t-11 -43.5v-419q0 -22 -22 -22h-33q-22 0 -22 22v420
q0 61 27.5 90t95.5 29q59 0 89 -32q30 32 89 32z" />
    <glyph glyph-name="n.smcp" horiz-adv-x="333" 
d="M219 299v236q0 21 21 21h31q22 0 22 -21v-513q0 -22 -22 -22h-42q-17 0 -23 19l-64 243l-34 139h-6l12 -144v-235q0 -22 -21 -22h-31q-22 0 -22 22v513q0 21 22 21h42q17 0 23 -19l64 -242l34 -140l6 1z" />
    <glyph glyph-name="n.smcp..salt" 
d="M290 442v-420q0 -22 -21 -22h-34q-21 0 -21 22v419q0 31 -11.5 43.5t-37.5 12.5t-37 -12.5t-11 -43.5v-419q0 -22 -22 -22h-33q-22 0 -22 22v420q0 61 27.5 90t97.5 29t97.5 -29t27.5 -90z" />
    <glyph glyph-name="o.smcp" 
d="M165 497q-26 0 -37 -12.5t-11 -43.5v-326q0 -31 11.5 -43.5t36.5 -12.5q26 0 37.5 12.5t11.5 43.5v326q0 31 -11.5 43.5t-37.5 12.5zM165 561q70 0 97.5 -29t27.5 -90v-328q0 -61 -27.5 -90t-97.5 -29t-97.5 29t-27.5 90v328q0 61 27.5 90t97.5 29z" />
    <glyph glyph-name="p.smcp" horiz-adv-x="310" 
d="M155 221h-38v-199q0 -22 -22 -22h-33q-22 0 -22 22v513q0 21 22 21h93q75 0 105 -31.5t30 -97.5v-77q0 -66 -29.5 -97.5t-105.5 -31.5zM117 492v-207h38q34 0 46.5 16t12.5 50v75q0 34 -12.5 50t-46.5 16h-38z" />
    <glyph glyph-name="q.smcp" 
d="M165 561q70 0 97.5 -29t27.5 -90v-328q0 -55 -20 -82l57 -99q11 -18 -8 -29l-29 -17q-19 -10 -30 8l-60 102q-22 -2 -35 -2q-70 0 -97.5 29t-27.5 90v328q0 61 27.5 90t97.5 29zM165 497q-26 0 -37 -12.5t-11 -43.5v-326q0 -31 11.5 -43.5t36.5 -12.5q26 0 37.5 12.5
t11.5 43.5v326q0 31 -11.5 43.5t-37.5 12.5z" />
    <glyph glyph-name="r.smcp" horiz-adv-x="323" 
d="M227 18l-82 224h-28v-220q0 -22 -22 -22h-33q-22 0 -22 22v513q0 21 22 21h93q75 0 105 -31.5t30 -97.5v-56q0 -50 -15.5 -79.5t-54.5 -40.5l85 -221q5 -10 0.5 -20t-17.5 -10h-38q-17 0 -23 18zM117 492v-186h38q34 0 46.5 16t12.5 50v54q0 34 -12.5 50t-46.5 16h-38z
" />
    <glyph glyph-name="r.smcp..salt" 
d="M214 363v63q0 34 -12.5 50t-46.5 16h-38v-196h38q34 0 46.5 16.5t12.5 50.5zM290 427v-39q0 -50 -15.5 -79.5t-54.5 -40.5v-7q39 -11 54.5 -40.5t15.5 -79.5v-119q0 -22 -21 -22h-34q-21 0 -21 22v144q0 34 -12.5 50t-46.5 16h-38v-210q0 -22 -22 -22h-33q-22 0 -22 22
v513q0 21 22 21h93q75 0 105 -31.5t30 -97.5z" />
    <glyph glyph-name="s.smcp" horiz-adv-x="325" 
d="M288 114q0 -61 -28 -90t-97 -29q-70 0 -97.5 29t-27.5 90v64q0 22 21 22h34q21 0 21 -22v-63q0 -31 11.5 -43.5t37.5 -12.5q25 0 36.5 12.5t11.5 43.5q0 44 -7 58.5t-37 44.5l-76 74q-29 28 -41 59t-12 91q0 61 27.5 90t97.5 29q69 0 97 -29t28 -90v-64q0 -21 -22 -21
h-33q-22 0 -22 21v63q0 31 -11 43.5t-37 12.5t-37.5 -12.5t-11.5 -43.5t4.5 -47.5t10.5 -24.5t29 -31l76 -74q29 -29 41.5 -59.5t12.5 -90.5z" />
    <glyph glyph-name="t.smcp" horiz-adv-x="280" 
d="M22 556h236q22 0 22 -21v-21q0 -22 -22 -22h-80v-470q0 -22 -21 -22h-34q-21 0 -21 22v470h-80q-22 0 -22 22v21q0 21 22 21z" />
    <glyph glyph-name="u.smcp" 
d="M40 114v421q0 21 22 21h33q22 0 22 -21v-420q0 -31 11.5 -43.5t36.5 -12.5q26 0 37.5 12.5t11.5 43.5v420q0 21 21 21h34q21 0 21 -21v-421q0 -61 -27.5 -90t-97.5 -29t-97.5 29t-27.5 90z" />
    <glyph glyph-name="v.smcp" horiz-adv-x="287" 
d="M58 556q21 0 24 -21l40 -281l19 -175h5l19 175l39 281q3 21 25 21h32q24 0 20 -26l-79 -509q-3 -21 -24 -21h-69q-21 0 -25 21l-78 509q-4 26 20 26h32z" />
    <glyph glyph-name="v.smcp..salt" 
d="M165 0h-103q-22 0 -22 22v513q0 21 22 21h33q22 0 22 -21v-471h48q26 0 37.5 12.5t11.5 43.5v415q0 21 21 21h34q21 0 21 -21v-416q0 -61 -27.5 -90t-97.5 -29z" />
    <glyph glyph-name="w.smcp" horiz-adv-x="469" 
d="M260 556q22 0 25 -21l32 -286l16 -170h6l14 170l34 286q3 21 24 21h32q24 0 20 -26l-68 -509q-3 -21 -25 -21h-61q-21 0 -24 21l-34 271l-14 170h-5l-14 -170l-34 -271q-3 -21 -24 -21h-61q-21 0 -25 21l-68 509q-4 26 20 26h32q21 0 24 -21l34 -286l15 -170h5l16 170
l32 286q3 21 25 21h51z" />
    <glyph glyph-name="w.smcp..salt" horiz-adv-x="504" 
d="M341 -5q-58 0 -89 33q-31 -33 -89 -33q-68 0 -95.5 29t-27.5 90v421q0 21 22 21h33q22 0 22 -21v-420q0 -31 11.5 -43.5t36.5 -12.5q26 0 37.5 12.5t11.5 43.5v420q0 21 21 21h34q21 0 21 -21v-420q0 -31 11.5 -43.5t37.5 -12.5q25 0 36.5 12.5t11.5 43.5v420q0 21 22 21
h33q22 0 22 -21v-421q0 -61 -27.5 -90t-95.5 -29z" />
    <glyph glyph-name="x.smcp" horiz-adv-x="299" 
d="M191 279l96 -249q4 -11 -0.5 -20.5t-16.5 -9.5h-35q-19 0 -23 18l-32 95l-28 89h-5l-28 -89l-31 -95q-6 -18 -24 -18h-34q-13 0 -17.5 9.5t-0.5 20.5l97 249l-97 247q-4 11 0.5 20.5t17.5 9.5h34q18 0 24 -18l31 -94l28 -90h5l28 90l32 94q4 18 23 18h35q12 0 16.5 -9.5
t0.5 -20.5z" />
    <glyph glyph-name="x.smcp..salt" 
d="M214 180q0 32 -10.5 47.5t-38.5 15.5t-38 -15.5t-10 -47.5v-158q0 -22 -22 -22h-33q-22 0 -22 22v133q0 50 15.5 80t54.5 41v6q-39 11 -54.5 41t-15.5 80v132q0 21 22 21h33q22 0 22 -21v-158q0 -32 10 -47.5t38 -15.5t38.5 15.5t10.5 47.5v158q0 21 21 21h34
q21 0 21 -21v-132q0 -51 -15.5 -80.5t-54.5 -40.5v-6q39 -11 54.5 -40.5t15.5 -80.5v-133q0 -22 -21 -22h-34q-21 0 -21 22v158z" />
    <glyph glyph-name="y.smcp" horiz-adv-x="318" 
d="M29 556h36q18 0 23 -16l43 -148l25 -103h6l25 103l44 148q3 16 22 16h36q11 0 16 -8t1 -20l-109 -336v-170q0 -22 -21 -22h-34q-21 0 -21 22v170l-109 336q-4 12 1.5 20t15.5 8z" />
    <glyph glyph-name="y.smcp..salt" 
d="M40 350v185q0 21 22 21h33q22 0 22 -21v-184q0 -31 11.5 -43.5t36.5 -12.5q26 0 37.5 12.5t11.5 43.5v184q0 21 21 21h34q21 0 21 -21v-185q0 -52 -19 -80.5t-68 -35.5v-212q0 -22 -21 -22h-34q-21 0 -21 22v212q-49 7 -68 35.5t-19 80.5z" />
    <glyph glyph-name="z.smcp" horiz-adv-x="256" 
d="M242 492l-146 -425h129q21 0 21 -21v-24q0 -22 -21 -22h-192q-21 0 -21 22v24q0 10 3 19l145 424h-128q-22 0 -22 22v24q0 21 22 21h191q22 0 22 -21v-24q0 -11 -3 -19z" />
    <glyph glyph-name="ae.smcp" horiz-adv-x="431" 
d="M201 483l-50 -195l-29 -102h84v297h-5zM206 22v100h-101l-29 -104q-4 -18 -21 -18h-34q-26 0 -19 28l151 510q3 18 23 18h224q21 0 21 -21v-21q0 -22 -21 -22h-117v-181h99q21 0 21 -22v-21q0 -21 -21 -21h-99v-183h117q21 0 21 -21v-21q0 -22 -21 -22h-172q-22 0 -22 22
z" />
    <glyph glyph-name="ae.smcp..salt" horiz-adv-x="504" 
d="M163 561q59 0 89 -32q30 32 89 32q68 0 95.5 -29t27.5 -90v-41q0 -22 -22 -22h-33q-22 0 -22 22v40q0 31 -11 43.5t-37 12.5t-37.5 -12.5t-11.5 -43.5v-130h70q22 0 22 -22v-21q0 -21 -22 -21h-70v-132q0 -31 11.5 -43.5t37.5 -12.5q25 0 36.5 12.5t11.5 43.5v41
q0 21 22 21h33q22 0 22 -21v-42q0 -61 -28 -90t-97 -29q-70 0 -97.5 29t-27.5 90v133h-97v-225q0 -22 -22 -22h-33q-22 0 -22 22v420q0 61 27.5 90t95.5 29zM117 441v-130h97v130q0 31 -11.5 43.5t-37.5 12.5t-37 -12.5t-11 -43.5z" />
    <glyph glyph-name="eng.smcp" horiz-adv-x="333" 
d="M293 535v-606q0 -66 -29.5 -97.5t-103.5 -31.5h-15q-21 0 -21 21v21q0 22 21 22h15q34 0 46.5 16t12.5 50v73q-8 2 -13 16l-64 243l-34 139h-6l12 -144v-235q0 -22 -21 -22h-31q-22 0 -22 22v513q0 21 22 21h42q17 0 23 -19l64 -242l34 -140l6 1l-12 143v236q0 21 21 21
h31q22 0 22 -21z" />
    <glyph glyph-name="eth.smcp" horiz-adv-x="328" 
d="M155 0h-93q-22 0 -22 22v226h-28q-20 0 -20 19v23q0 19 20 19h28v226q0 21 22 21h93q75 0 105 -31.5t30 -97.5v-297q0 -66 -30 -98t-105 -32zM117 492v-183h40q19 0 19 -19v-23q0 -19 -19 -19h-40v-184h38q34 0 46.5 16.5t12.5 50.5v295q0 34 -12.5 50t-46.5 16h-38z" />
    <glyph glyph-name="ij.smcp" horiz-adv-x="467" 
d="M350 115v420q0 21 21 21h34q21 0 21 -21v-421q0 -61 -27.5 -90t-97.5 -29t-97.5 29t-27.5 90v54q0 22 22 22h33q22 0 22 -22v-53q0 -31 11.5 -43.5t36.5 -12.5q26 0 37.5 12.5t11.5 43.5zM117 535v-513q0 -22 -22 -22h-33q-22 0 -22 22v513q0 21 22 21h33q22 0 22 -21z
" />
    <glyph glyph-name="oe.smcp" horiz-adv-x="446" 
d="M165 497q-26 0 -37 -12.5t-11 -43.5v-326q0 -31 11.5 -43.5t36.5 -12.5q26 0 37.5 12.5t11.5 43.5v326q0 31 -11.5 43.5t-37.5 12.5zM284 64h123q22 0 22 -21v-21q0 -22 -22 -22h-191q-23 -5 -51 -5q-70 0 -97.5 29t-27.5 90v328q0 61 27.5 90t97.5 29q27 0 50 -5h192
q22 0 22 -21v-21q0 -22 -22 -22h-123q6 -21 6 -55v-126h99q22 0 22 -22v-21q0 -21 -22 -21h-99v-128q0 -33 -6 -55z" />
    <glyph glyph-name="oe.smcp..salt" horiz-adv-x="504" 
d="M341 -5q-58 0 -89 33q-31 -33 -89 -33q-68 0 -95.5 29t-27.5 90v328q0 61 27.5 90t95.5 29q59 0 89 -32q30 32 89 32q68 0 95.5 -29t27.5 -90v-41q0 -22 -22 -22h-33q-22 0 -22 22v40q0 31 -11 43.5t-37 12.5t-37.5 -12.5t-11.5 -43.5v-130h70q22 0 22 -22v-21
q0 -21 -22 -21h-70v-132q0 -31 11.5 -43.5t37.5 -12.5q25 0 36.5 12.5t11.5 43.5v41q0 21 22 21h33q22 0 22 -21v-42q0 -61 -27.5 -90t-95.5 -29zM214 115v326q0 31 -11.5 43.5t-37.5 12.5t-37 -12.5t-11 -43.5v-326q0 -31 11.5 -43.5t36.5 -12.5q26 0 37.5 12.5t11.5 43.5z
" />
    <glyph glyph-name="oslash.smcp" 
d="M287 591l-19 -65q22 -26 22 -84v-328q0 -61 -27.5 -90t-97.5 -29q-31 0 -53 6l-15 -53q-8 -20 -27 -13l-14 3q-20 6 -14 27l19 66q-21 25 -21 83v328q0 61 27.5 90t97.5 29q31 0 53 -6l15 53q6 20 27 13l13 -3q21 -6 14 -27zM165 497q-26 0 -37 -12.5t-11 -43.5v-134
l-7 -125l6 -2l28 119l53 190q-9 8 -32 8zM165 59q26 0 37.5 12.5t11.5 43.5v134l6 126l-6 1l-28 -119l-53 -189q12 -9 32 -9z" />
    <glyph glyph-name="thorn.smcp" horiz-adv-x="310" 
d="M117 535v-89h38q75 0 105 -32t30 -98v-76q0 -66 -30 -97.5t-105 -31.5h-38v-89q0 -22 -22 -22h-33q-22 0 -22 22v513q0 21 22 21h33q22 0 22 -21zM117 382v-207h38q34 0 46.5 16t12.5 50v74q0 34 -12.5 50.5t-46.5 16.5h-38z" />
    <glyph glyph-name="aacute.smcp" horiz-adv-x="292" 
d="M239 716l-113 -113q-13 -13 -27 -2l-11 11q-14 13 -1 26l98 127q12 14 27 2l26 -24q15 -13 1 -27zM233 0q-22 0 -25 22l-14 100h-97l-13 -100q-3 -22 -25 -22h-32q-24 0 -20 26l79 509q3 21 24 21h72q21 0 24 -21l78 -509q4 -26 -19 -26h-32zM123 302l-17 -116h80
l-17 116l-20 176h-6z" />
    <glyph glyph-name="abreve.smcp" horiz-adv-x="292" 
d="M233 0q-22 0 -25 22l-14 100h-97l-13 -100q-3 -22 -25 -22h-32q-24 0 -20 26l79 509q3 21 24 21h72q21 0 24 -21l78 -509q4 -26 -19 -26h-32zM123 302l-17 -116h80l-17 116l-20 176h-6zM260 728q0 -61 -25 -89.5t-89 -28.5t-89 28.5t-25 89.5q0 19 19 19h16q19 0 19 -19
q0 -32 13 -45.5t47 -13.5t47 13.5t13 45.5q0 19 19 19h16q19 0 19 -19z" />
    <glyph glyph-name="acircumflex.smcp" horiz-adv-x="292" 
d="M146 691l-75 -84q-12 -13 -26 -2l-11 10q-12 11 -2 25l87 123q6 10 20 10h15q13 0 20 -10l86 -123q10 -14 -2 -25l-11 -10q-14 -11 -26 2zM233 0q-22 0 -25 22l-14 100h-97l-13 -100q-3 -22 -25 -22h-32q-24 0 -20 26l79 509q3 21 24 21h72q21 0 24 -21l78 -509
q4 -26 -19 -26h-32zM123 302l-17 -116h80l-17 116l-20 176h-6z" />
    <glyph glyph-name="adieresis.smcp" horiz-adv-x="292" 
d="M174 678q0 20 12 32.5t32 12.5t32.5 -12.5t12.5 -32.5t-12.5 -32.5t-32.5 -12.5t-32 12.5t-12 32.5zM30 678q0 20 12.5 32.5t32.5 12.5t32.5 -12.5t12.5 -32.5t-12.5 -32.5t-32.5 -12.5t-32.5 12.5t-12.5 32.5zM233 0q-22 0 -25 22l-14 100h-97l-13 -100q-3 -22 -25 -22
h-32q-24 0 -20 26l79 509q3 21 24 21h72q21 0 24 -21l78 -509q4 -26 -19 -26h-32zM123 302l-17 -116h80l-17 116l-20 176h-6z" />
    <glyph glyph-name="agrave.smcp" horiz-adv-x="292" 
d="M233 0q-22 0 -25 22l-14 100h-97l-13 -100q-3 -22 -25 -22h-32q-24 0 -20 26l79 509q3 21 24 21h72q21 0 24 -21l78 -509q4 -26 -19 -26h-32zM123 302l-17 -116h80l-17 116l-20 176h-6zM167 603l-114 113q-14 14 2 27l26 24q15 12 27 -2l98 -127q13 -13 -1 -26l-11 -11
q-14 -11 -27 2z" />
    <glyph glyph-name="amacron.smcp" horiz-adv-x="292" 
d="M58 700h178q19 0 19 -19v-26q0 -19 -19 -19h-178q-19 0 -19 19v26q0 19 19 19zM233 0q-22 0 -25 22l-14 100h-97l-13 -100q-3 -22 -25 -22h-32q-24 0 -20 26l79 509q3 21 24 21h72q21 0 24 -21l78 -509q4 -26 -19 -26h-32zM123 302l-17 -116h80l-17 116l-20 176h-6z" />
    <glyph glyph-name="aogonek.smcp" horiz-adv-x="294" 
d="M180 -48l34 54q-4 4 -6 16l-14 100h-97l-13 -100q-3 -22 -25 -22h-32q-24 0 -20 26l79 509q3 21 24 21h72q21 0 24 -21l78 -509q2 -16 -5 -21l-46 -75q-18 -28 -11 -49.5t35 -21.5h28q18 0 18 -18v-23q0 -18 -18 -18h-32q-48 0 -72.5 25t-23 59.5t22.5 67.5zM123 302
l-17 -116h80l-17 116l-20 176h-6z" />
    <glyph glyph-name="aring.smcp" horiz-adv-x="292" 
d="M60 685q0 38 24 62t62 24t61.5 -24t23.5 -62t-23.5 -61.5t-61.5 -23.5t-62 23.5t-24 61.5zM108 685q0 -17 10.5 -28t27.5 -11q16 0 26.5 11t10.5 28t-10.5 28.5t-26.5 11.5q-17 0 -27.5 -11.5t-10.5 -28.5zM233 0q-22 0 -25 22l-14 100h-97l-13 -100q-3 -22 -25 -22h-32
q-24 0 -20 26l79 509q3 21 24 21h72q21 0 24 -21l78 -509q4 -26 -19 -26h-32zM123 302l-17 -116h80l-17 116l-20 176h-6z" />
    <glyph glyph-name="atilde.smcp" horiz-adv-x="292" 
d="M233 0q-22 0 -25 22l-14 100h-97l-13 -100q-3 -22 -25 -22h-32q-24 0 -20 26l79 509q3 21 24 21h72q21 0 24 -21l78 -509q4 -26 -19 -26h-32zM123 302l-17 -116h80l-17 116l-20 176h-6zM134 645l-25 28q-12 13 -25.5 8.5t-13.5 -18.5v-22q0 -18 -18 -18h-20q-18 0 -18 18
v26q0 38 26 59t61 17.5t58 -30.5l25 -29q12 -13 25.5 -8t13.5 19v22q0 18 18 18h20q18 0 18 -18v-27q0 -38 -26 -59t-60.5 -17t-58.5 31z" />
    <glyph glyph-name="aacute.smcp..salt" 
d="M253 716l-113 -113q-13 -13 -27 -2l-11 11q-14 13 -1 26l98 127q12 14 27 2l26 -24q15 -13 1 -27zM290 442v-420q0 -22 -21 -22h-34q-21 0 -21 22v151h-97v-151q0 -22 -22 -22h-33q-22 0 -22 22v420q0 61 27.5 90t97.5 29t97.5 -29t27.5 -90zM117 441v-204h97v204
q0 31 -11.5 43.5t-37.5 12.5t-37 -12.5t-11 -43.5z" />
    <glyph glyph-name="abreve.smcp..salt" 
d="M290 442v-420q0 -22 -21 -22h-34q-21 0 -21 22v151h-97v-151q0 -22 -22 -22h-33q-22 0 -22 22v420q0 61 27.5 90t97.5 29t97.5 -29t27.5 -90zM117 441v-204h97v204q0 31 -11.5 43.5t-37.5 12.5t-37 -12.5t-11 -43.5zM280 728q0 -61 -25 -89.5t-89 -28.5t-89 28.5
t-25 89.5q0 19 19 19h16q19 0 19 -19q0 -32 13 -45.5t47 -13.5t47 13.5t13 45.5q0 19 19 19h16q19 0 19 -19z" />
    <glyph glyph-name="acircumflex.smcp..salt" 
d="M165 691l-75 -84q-12 -13 -26 -2l-11 10q-12 11 -2 25l87 123q6 10 20 10h15q13 0 20 -10l86 -123q10 -14 -2 -25l-11 -10q-14 -11 -26 2zM290 442v-420q0 -22 -21 -22h-34q-21 0 -21 22v151h-97v-151q0 -22 -22 -22h-33q-22 0 -22 22v420q0 61 27.5 90t97.5 29t97.5 -29
t27.5 -90zM117 441v-204h97v204q0 31 -11.5 43.5t-37.5 12.5t-37 -12.5t-11 -43.5z" />
    <glyph glyph-name="adieresis.smcp..salt" 
d="M193 678q0 20 12 32.5t32 12.5t32.5 -12.5t12.5 -32.5t-12.5 -32.5t-32.5 -12.5t-32 12.5t-12 32.5zM49 678q0 20 12.5 32.5t32.5 12.5t32.5 -12.5t12.5 -32.5t-12.5 -32.5t-32.5 -12.5t-32.5 12.5t-12.5 32.5zM290 442v-420q0 -22 -21 -22h-34q-21 0 -21 22v151h-97
v-151q0 -22 -22 -22h-33q-22 0 -22 22v420q0 61 27.5 90t97.5 29t97.5 -29t27.5 -90zM117 441v-204h97v204q0 31 -11.5 43.5t-37.5 12.5t-37 -12.5t-11 -43.5z" />
    <glyph glyph-name="agrave.smcp..salt" 
d="M192 603l-114 113q-14 14 2 27l26 24q15 12 27 -2l98 -127q13 -13 -1 -26l-11 -11q-14 -11 -27 2zM290 442v-420q0 -22 -21 -22h-34q-21 0 -21 22v151h-97v-151q0 -22 -22 -22h-33q-22 0 -22 22v420q0 61 27.5 90t97.5 29t97.5 -29t27.5 -90zM117 441v-204h97v204
q0 31 -11.5 43.5t-37.5 12.5t-37 -12.5t-11 -43.5z" />
    <glyph glyph-name="amacron.smcp..salt" 
d="M77 700h178q19 0 19 -19v-26q0 -19 -19 -19h-178q-19 0 -19 19v26q0 19 19 19zM290 442v-420q0 -22 -21 -22h-34q-21 0 -21 22v151h-97v-151q0 -22 -22 -22h-33q-22 0 -22 22v420q0 61 27.5 90t97.5 29t97.5 -29t27.5 -90zM117 441v-204h97v204q0 31 -11.5 43.5
t-37.5 12.5t-37 -12.5t-11 -43.5z" />
    <glyph glyph-name="aogonek.smcp..salt" 
d="M290 442v-420q0 -9 -5 -16l-47 -76q-18 -28 -11 -49.5t35 -21.5h28q18 0 18 -18v-23q0 -18 -18 -18h-32q-48 0 -72.5 25t-23 59.5t22.5 67.5l34 54q-5 4 -5 16v151h-97v-151q0 -22 -22 -22h-33q-22 0 -22 22v420q0 61 27.5 90t97.5 29t97.5 -29t27.5 -90zM117 441v-204
h97v204q0 31 -11.5 43.5t-37.5 12.5t-37 -12.5t-11 -43.5z" />
    <glyph glyph-name="aring.smcp..salt" 
d="M79 685q0 38 24 62t62 24t61.5 -24t23.5 -62t-23.5 -61.5t-61.5 -23.5t-62 23.5t-24 61.5zM127 685q0 -17 10.5 -28t27.5 -11q16 0 26.5 11t10.5 28t-10.5 28.5t-26.5 11.5q-17 0 -27.5 -11.5t-10.5 -28.5zM290 442v-420q0 -22 -21 -22h-34q-21 0 -21 22v151h-97v-151
q0 -22 -22 -22h-33q-22 0 -22 22v420q0 61 27.5 90t97.5 29t97.5 -29t27.5 -90zM117 441v-204h97v204q0 31 -11.5 43.5t-37.5 12.5t-37 -12.5t-11 -43.5z" />
    <glyph glyph-name="aringacute.smcp..salt" 
d="M290 442v-420q0 -22 -21 -22h-34q-21 0 -21 22v151h-97v-151q0 -22 -22 -22h-33q-22 0 -22 22v420q0 61 27.5 90t97.5 29t97.5 -29t27.5 -90zM117 441v-204h97v204q0 31 -11.5 43.5t-37.5 12.5t-37 -12.5t-11 -43.5zM153 645l-25 28q-12 13 -25.5 8.5t-13.5 -18.5v-22
q0 -18 -18 -18h-20q-18 0 -18 18v26q0 38 26 59t61 17.5t58 -30.5l25 -29q12 -13 25.5 -8t13.5 19v22q0 18 18 18h20q18 0 18 -18v-27q0 -38 -26 -59t-60.5 -17t-58.5 31z" />
    <glyph glyph-name="cacute.smcp" 
d="M251 716l-113 -113q-13 -13 -27 -2l-11 11q-14 13 -1 26l98 127q12 14 27 2l26 -24q15 -13 1 -27zM290 442v-79q0 -21 -21 -21h-34q-21 0 -21 21v78q0 31 -11.5 43.5t-37.5 12.5t-37 -12.5t-11 -43.5v-326q0 -31 11.5 -43.5t36.5 -12.5q26 0 37.5 12.5t11.5 43.5v78
q0 22 21 22h34q21 0 21 -22v-79q0 -61 -27.5 -90t-97.5 -29t-97.5 29t-27.5 90v328q0 61 27.5 90t97.5 29t97.5 -29t27.5 -90z" />
    <glyph glyph-name="ccaron.smcp" 
d="M165 691l-75 -84q-12 -13 -26 -2l-11 10q-12 11 -2 25l87 123q6 10 20 10h15q13 0 20 -10l86 -123q10 -14 -2 -25l-11 -10q-14 -11 -26 2zM290 442v-79q0 -21 -21 -21h-34q-21 0 -21 21v78q0 31 -11.5 43.5t-37.5 12.5t-37 -12.5t-11 -43.5v-326q0 -31 11.5 -43.5
t36.5 -12.5q26 0 37.5 12.5t11.5 43.5v78q0 22 21 22h34q21 0 21 -22v-79q0 -61 -27.5 -90t-97.5 -29t-97.5 29t-27.5 90v328q0 61 27.5 90t97.5 29t97.5 -29t27.5 -90z" />
    <glyph glyph-name="ccedilla.smcp" 
d="M290 442v-79q0 -21 -21 -21h-34q-21 0 -21 21v78q0 31 -11.5 43.5t-37.5 12.5t-37 -12.5t-11 -43.5v-326q0 -31 11.5 -43.5t36.5 -12.5q26 0 37.5 12.5t11.5 43.5v78q0 22 21 22h34q21 0 21 -22v-79q0 -54 -21.5 -82.5t-73.5 -34.5l-17 -45q75 -5 75 -76q0 -42 -21.5 -59
t-63.5 -17h-41q-19 0 -19 19v14q0 19 19 19h36q31 0 31 24t-31 24h-26q-19 0 -19 19v18q0 7 3 14l18 45q-55 5 -77 34t-22 84v328q0 61 27.5 90t97.5 29t97.5 -29t27.5 -90z" />
    <glyph glyph-name="ccircumflex.smcp" 
d="M165 681l75 83q12 15 26 3l11 -10q12 -11 2 -25l-86 -124q-8 -10 -20 -10h-15q-13 0 -20 10l-87 124q-10 14 2 25l11 10q14 12 26 -3zM290 442v-79q0 -21 -21 -21h-34q-21 0 -21 21v78q0 31 -11.5 43.5t-37.5 12.5t-37 -12.5t-11 -43.5v-326q0 -31 11.5 -43.5t36.5 -12.5
q26 0 37.5 12.5t11.5 43.5v78q0 22 21 22h34q21 0 21 -22v-79q0 -61 -27.5 -90t-97.5 -29t-97.5 29t-27.5 90v328q0 61 27.5 90t97.5 29t97.5 -29t27.5 -90z" />
    <glyph glyph-name="cdotaccent.smcp" 
d="M290 442v-79q0 -21 -21 -21h-34q-21 0 -21 21v78q0 31 -11.5 43.5t-37.5 12.5t-37 -12.5t-11 -43.5v-326q0 -31 11.5 -43.5t36.5 -12.5q26 0 37.5 12.5t11.5 43.5v78q0 22 21 22h34q21 0 21 -22v-79q0 -61 -27.5 -90t-97.5 -29t-97.5 29t-27.5 90v328q0 61 27.5 90
t97.5 29t97.5 -29t27.5 -90zM116 679q0 22 13.5 35.5t34.5 13.5q22 0 35.5 -13.5t13.5 -35.5q0 -21 -13.5 -34.5t-35.5 -13.5q-21 0 -34.5 13.5t-13.5 34.5z" />
    <glyph glyph-name="dcaron.smcp" 
d="M155 0h-93q-22 0 -22 22v513q0 21 22 21h93q75 0 105 -31.5t30 -97.5v-297q0 -66 -30 -98t-105 -32zM117 492v-428h38q34 0 46.5 16.5t12.5 50.5v295q0 34 -12.5 50t-46.5 16h-38zM147 681l75 83q12 15 26 3l11 -10q12 -11 2 -25l-86 -124q-8 -10 -20 -10h-15
q-13 0 -20 10l-87 124q-10 14 2 25l11 10q14 12 26 -3z" />
    <glyph glyph-name="dcroat.smcp" horiz-adv-x="328" 
d="M155 0h-93q-22 0 -22 22v226h-28q-20 0 -20 19v23q0 19 20 19h28v226q0 21 22 21h93q75 0 105 -31.5t30 -97.5v-297q0 -66 -30 -98t-105 -32zM117 492v-183h40q19 0 19 -19v-23q0 -19 -19 -19h-40v-184h38q34 0 46.5 16.5t12.5 50.5v295q0 34 -12.5 50t-46.5 16h-38z" />
    <glyph glyph-name="eacute.smcp" horiz-adv-x="265" 
d="M62 556h172q21 0 21 -21v-21q0 -22 -21 -22h-117v-181h99q21 0 21 -22v-21q0 -21 -21 -21h-99v-183h117q21 0 21 -21v-21q0 -22 -21 -22h-172q-22 0 -22 22v513q0 21 22 21zM231 716l-113 -113q-13 -13 -27 -2l-11 11q-14 13 -1 26l98 127q12 14 27 2l26 -24
q15 -13 1 -27z" />
    <glyph glyph-name="ebreve.smcp" horiz-adv-x="265" 
d="M62 556h172q21 0 21 -21v-21q0 -22 -21 -22h-117v-181h99q21 0 21 -22v-21q0 -21 -21 -21h-99v-183h117q21 0 21 -21v-21q0 -22 -21 -22h-172q-22 0 -22 22v513q0 21 22 21zM257 728q0 -61 -25 -89.5t-89 -28.5t-89 28.5t-25 89.5q0 19 19 19h16q19 0 19 -19
q0 -32 13 -45.5t47 -13.5t47 13.5t13 45.5q0 19 19 19h16q19 0 19 -19z" />
    <glyph glyph-name="ecaron.smcp" horiz-adv-x="265" 
d="M143 681l75 83q12 15 26 3l11 -10q12 -11 2 -25l-86 -124q-8 -10 -20 -10h-15q-13 0 -20 10l-87 124q-10 14 2 25l11 10q14 12 26 -3zM62 556h172q21 0 21 -21v-21q0 -22 -21 -22h-117v-181h99q21 0 21 -22v-21q0 -21 -21 -21h-99v-183h117q21 0 21 -21v-21
q0 -22 -21 -22h-172q-22 0 -22 22v513q0 21 22 21z" />
    <glyph glyph-name="ecircumflex.smcp" horiz-adv-x="265" 
d="M143 691l-75 -84q-12 -13 -26 -2l-11 10q-12 11 -2 25l87 123q6 10 20 10h15q13 0 20 -10l86 -123q10 -14 -2 -25l-11 -10q-14 -11 -26 2zM62 556h172q21 0 21 -21v-21q0 -22 -21 -22h-117v-181h99q21 0 21 -22v-21q0 -21 -21 -21h-99v-183h117q21 0 21 -21v-21
q0 -22 -21 -22h-172q-22 0 -22 22v513q0 21 22 21z" />
    <glyph glyph-name="edieresis.smcp" horiz-adv-x="265" 
d="M170 678q0 20 12 32.5t32 12.5t32.5 -12.5t12.5 -32.5t-12.5 -32.5t-32.5 -12.5t-32 12.5t-12 32.5zM26 678q0 20 12.5 32.5t32.5 12.5t32.5 -12.5t12.5 -32.5t-12.5 -32.5t-32.5 -12.5t-32.5 12.5t-12.5 32.5zM62 556h172q21 0 21 -21v-21q0 -22 -21 -22h-117v-181h99
q21 0 21 -22v-21q0 -21 -21 -21h-99v-183h117q21 0 21 -21v-21q0 -22 -21 -22h-172q-22 0 -22 22v513q0 21 22 21z" />
    <glyph glyph-name="edotaccent.smcp" horiz-adv-x="265" 
d="M62 556h172q21 0 21 -21v-21q0 -22 -21 -22h-117v-181h99q21 0 21 -22v-21q0 -21 -21 -21h-99v-183h117q21 0 21 -21v-21q0 -22 -21 -22h-172q-22 0 -22 22v513q0 21 22 21zM94 679q0 22 13.5 35.5t34.5 13.5q22 0 35.5 -13.5t13.5 -35.5q0 -21 -13.5 -34.5t-35.5 -13.5
q-21 0 -34.5 13.5t-13.5 34.5z" />
    <glyph glyph-name="egrave.smcp" horiz-adv-x="265" 
d="M62 556h172q21 0 21 -21v-21q0 -22 -21 -22h-117v-181h99q21 0 21 -22v-21q0 -21 -21 -21h-99v-183h117q21 0 21 -21v-21q0 -22 -21 -22h-172q-22 0 -22 22v513q0 21 22 21zM166 603l-114 113q-14 14 2 27l26 24q15 12 27 -2l98 -127q13 -13 -1 -26l-11 -11
q-14 -11 -27 2z" />
    <glyph glyph-name="emacron.smcp" horiz-adv-x="265" 
d="M62 556h172q21 0 21 -21v-21q0 -22 -21 -22h-117v-181h99q21 0 21 -22v-21q0 -21 -21 -21h-99v-183h117q21 0 21 -21v-21q0 -22 -21 -22h-172q-22 0 -22 22v513q0 21 22 21zM54 700h178q19 0 19 -19v-26q0 -19 -19 -19h-178q-19 0 -19 19v26q0 19 19 19z" />
    <glyph glyph-name="eogonek.smcp" horiz-adv-x="265" 
d="M134 -48l30 48h-102q-22 0 -22 22v513q0 21 22 21h172q21 0 21 -21v-21q0 -22 -21 -22h-117v-181h99q21 0 21 -22v-21q0 -21 -21 -21h-99v-183h117q21 0 21 -21v-21q0 -22 -21 -22h-4l-43 -70q-18 -28 -11 -49.5t35 -21.5h28q18 0 18 -18v-23q0 -18 -18 -18h-32
q-48 0 -72.5 25t-23 59.5t22.5 67.5z" />
    <glyph glyph-name="eacute.smcp..salt" 
d="M251 716l-113 -113q-13 -13 -27 -2l-11 11q-14 13 -1 26l98 127q12 14 27 2l26 -24q15 -13 1 -27zM187 247h-11q-34 0 -46.5 -16t-12.5 -51v-65q0 -31 11.5 -43.5t36.5 -12.5q26 0 37.5 12.5t11.5 43.5v41q0 21 21 21h34q21 0 21 -21v-42q0 -61 -27.5 -90t-97.5 -29
t-97.5 29t-27.5 90v41q0 50 15.5 80t54.5 41v6q-39 11 -54.5 41t-15.5 80v39q0 61 27.5 90t97.5 29t97.5 -29t27.5 -90v-41q0 -22 -21 -22h-34q-21 0 -21 22v40q0 31 -11.5 43.5t-37.5 12.5t-37 -12.5t-11 -43.5v-64q0 -34 12.5 -50t46.5 -16h11q21 0 21 -22v-21
q0 -21 -21 -21z" />
    <glyph glyph-name="ebreve.smcp..salt" 
d="M187 247h-11q-34 0 -46.5 -16t-12.5 -51v-65q0 -31 11.5 -43.5t36.5 -12.5q26 0 37.5 12.5t11.5 43.5v41q0 21 21 21h34q21 0 21 -21v-42q0 -61 -27.5 -90t-97.5 -29t-97.5 29t-27.5 90v41q0 50 15.5 80t54.5 41v6q-39 11 -54.5 41t-15.5 80v39q0 61 27.5 90t97.5 29
t97.5 -29t27.5 -90v-41q0 -22 -21 -22h-34q-21 0 -21 22v40q0 31 -11.5 43.5t-37.5 12.5t-37 -12.5t-11 -43.5v-64q0 -34 12.5 -50t46.5 -16h11q21 0 21 -22v-21q0 -21 -21 -21zM280 728q0 -61 -25 -89.5t-89 -28.5t-89 28.5t-25 89.5q0 19 19 19h16q19 0 19 -19
q0 -32 13 -45.5t47 -13.5t47 13.5t13 45.5q0 19 19 19h16q19 0 19 -19z" />
    <glyph glyph-name="ecaron.smcp..salt" 
d="M165 681l75 83q12 15 26 3l11 -10q12 -11 2 -25l-86 -124q-8 -10 -20 -10h-15q-13 0 -20 10l-87 124q-10 14 2 25l11 10q14 12 26 -3zM187 247h-11q-34 0 -46.5 -16t-12.5 -51v-65q0 -31 11.5 -43.5t36.5 -12.5q26 0 37.5 12.5t11.5 43.5v41q0 21 21 21h34q21 0 21 -21
v-42q0 -61 -27.5 -90t-97.5 -29t-97.5 29t-27.5 90v41q0 50 15.5 80t54.5 41v6q-39 11 -54.5 41t-15.5 80v39q0 61 27.5 90t97.5 29t97.5 -29t27.5 -90v-41q0 -22 -21 -22h-34q-21 0 -21 22v40q0 31 -11.5 43.5t-37.5 12.5t-37 -12.5t-11 -43.5v-64q0 -34 12.5 -50t46.5 -16
h11q21 0 21 -22v-21q0 -21 -21 -21z" />
    </font>
</defs>
</svg>
